<?xml version="1.0" standalone="no"?>
<!DOCTYPE svg PUBLIC "-//W3C//DTD SVG 20010904//EN"
 "http://www.w3.org/TR/2001/REC-SVG-20010904/DTD/svg10.dtd">
<svg version="1.0" xmlns="http://www.w3.org/2000/svg"
 width="1024.000000pt" height="1024.000000pt" viewBox="0 0 1024.000000 1024.000000"
 preserveAspectRatio="xMidYMid meet">
<metadata>
Created by potrace 1.11, written by Peter Selinger 2001-2013
</metadata>
<g transform="translate(0.000000,1024.000000) scale(0.100000,-0.100000)"
fill="#333333" stroke="none">
<path d="M6273 7578 c-18 -5 -35 -13 -38 -18 -7 -11 -16 -157 -21 -345 -2 -77
-6 -198 -9 -270 -3 -71 -7 -182 -9 -245 -2 -63 -11 -288 -20 -500 -17 -397
-21 -492 -30 -740 -3 -80 -8 -197 -12 -260 -3 -63 -7 -156 -8 -206 -4 -139 1
-137 -174 -58 -29 13 -59 24 -66 24 -7 0 -19 7 -26 14 -6 8 -28 20 -48 27 -20
6 -50 17 -67 25 -16 7 -65 27 -108 44 -43 16 -100 41 -127 55 -27 14 -71 32
-97 41 -26 9 -81 34 -122 55 -41 21 -81 39 -88 39 -8 0 -33 11 -56 24 -23 13
-53 27 -67 31 -14 4 -47 17 -75 30 -129 62 -160 75 -171 75 -7 0 -35 11 -62
25 -28 14 -56 25 -63 25 -8 0 -36 14 -64 30 -35 21 -63 30 -94 30 l-44 0 -351
-351 c-282 -282 -357 -352 -382 -356 -24 -4 -54 5 -115 34 -46 22 -100 45
-119 53 -19 7 -58 23 -87 36 -28 13 -55 24 -60 24 -7 0 -39 14 -168 75 -27 13
-79 35 -115 48 -36 14 -92 38 -125 55 -33 16 -91 42 -130 57 -38 16 -99 42
-135 60 -36 18 -81 37 -100 44 -19 6 -57 22 -84 36 -27 14 -55 25 -62 25 -8 0
-37 11 -66 24 -29 14 -73 34 -98 44 -25 11 -82 36 -126 56 -143 63 -93 97
-575 -386 -231 -231 -427 -431 -436 -444 -23 -35 -25 -996 -2 -1019 20 -20
328 -30 353 -12 15 11 17 54 17 407 0 220 4 411 10 431 7 30 89 130 146 181
12 11 236 233 332 330 61 62 94 88 116 91 33 5 85 -13 202 -71 44 -22 104 -47
134 -56 30 -10 88 -33 129 -53 41 -20 93 -44 115 -54 22 -9 75 -33 118 -53 42
-20 82 -36 87 -36 6 0 48 -18 94 -40 46 -22 87 -40 92 -40 5 0 56 -21 114 -46
58 -26 119 -52 135 -59 88 -37 238 -112 251 -126 13 -14 15 -78 17 -402 1
-244 6 -390 12 -396 6 -6 83 -13 171 -17 154 -7 162 -6 182 14 20 20 20 29 19
414 0 303 2 402 13 433 18 56 543 580 590 590 32 7 111 -22 243 -90 26 -14 54
-25 63 -25 8 0 50 -18 91 -40 42 -22 83 -40 91 -40 14 0 104 -38 237 -100 33
-16 91 -40 129 -55 38 -15 104 -44 146 -66 42 -21 115 -52 162 -69 48 -17 92
-38 99 -46 6 -8 22 -14 34 -14 12 0 33 -8 46 -19 13 -10 41 -21 61 -25 23 -4
46 -18 62 -36 l25 -30 0 -386 c-1 -212 3 -390 8 -395 5 -5 85 -9 177 -10 131
0 172 3 183 14 11 11 14 106 18 513 2 274 9 618 15 764 5 146 12 321 15 390
19 553 25 716 30 790 3 47 7 162 10 255 3 94 9 256 14 360 5 105 9 199 10 210
0 11 3 69 6 129 7 146 8 147 137 144 139 -4 135 3 149 -228 6 -102 13 -219 14
-260 1 -41 7 -158 14 -260 6 -102 14 -259 16 -350 3 -91 9 -212 15 -270 14
-150 24 -327 22 -380 -2 -82 16 -215 35 -248 10 -18 27 -34 38 -37 20 -6 67
-26 242 -104 50 -23 95 -41 98 -41 6 0 72 -29 180 -80 79 -36 163 -70 176 -70
8 0 30 -10 49 -21 19 -12 58 -30 87 -40 28 -9 78 -31 110 -48 32 -16 87 -42
123 -56 36 -14 77 -33 92 -41 14 -8 32 -14 40 -14 8 0 65 -25 126 -55 62 -30
120 -55 130 -55 10 0 22 -4 28 -8 5 -5 35 -19 67 -32 32 -12 71 -35 87 -50
l30 -28 1 -259 c0 -142 0 -267 -1 -278 -1 -11 -1 -65 -1 -119 0 -139 -4 -136
189 -140 132 -3 155 -2 173 13 21 17 21 24 23 523 2 447 1 509 -13 526 -18 21
-101 72 -119 72 -12 0 -256 103 -329 139 -23 12 -47 21 -53 21 -6 0 -28 11
-50 25 -22 14 -44 25 -49 25 -13 0 -156 61 -248 105 -39 19 -77 35 -84 35 -6
0 -40 16 -75 35 -34 19 -71 35 -81 35 -10 0 -27 6 -38 14 -11 7 -38 19 -60 26
-21 7 -68 28 -103 46 -36 19 -71 34 -80 34 -8 0 -35 11 -61 24 -79 41 -177 84
-210 91 -36 8 -81 57 -81 88 0 12 -5 87 -10 167 -6 80 -12 183 -15 230 -8 159
-16 305 -21 380 -7 106 -12 212 -19 390 -3 85 -10 178 -15 205 -5 28 -9 88 -9
135 1 99 -7 241 -20 393 -6 59 -8 113 -5 121 3 7 -4 23 -14 36 l-20 24 -448 1
c-247 1 -463 -2 -481 -7z"/>
</g>
</svg>
