<svg id="Layer_1" data-name="Layer 1" xmlns="http://www.w3.org/2000/svg" viewBox="0 0 150 225">
  <defs>
    <style>
      .cls-1 {
        fill: #222;
      }

      .cls-2 {
        fill: #fff;
      }
    </style>
  </defs>
  <title>MH_Map</title>
  <g>
    <polygon class="cls-1" points="0 0 0 150 75 225 150 150 150 0 0 0"/>
    <rect class="cls-2" x="15" y="15" width="120" height="120"/>
    <path class="cls-1" d="M99.55,104.45l-5.88-1.76H49.77V99.16Q62.21,89,68.68,82.84a64.81,64.81,0,0,0,9-10,13.11,13.11,0,0,0,2.54-7.15,10.4,10.4,0,0,0-3.33-8,12.31,12.31,0,0,0-8.72-3.08q-6.27,0-15.48,7L49.77,57.6l14-11.07a24.72,24.72,0,0,1,7.15-1,38,38,0,0,1,12.25,1.81,18.18,18.18,0,0,1,8.14,5.15,11.46,11.46,0,0,1,2.84,7.64q0,4.32-5.93,11.66T69.46,89.75H93l3.14-8,3.43,1.18Z"/>
  </g>
</svg>
