<svg id="Layer_1" data-name="Layer 1" xmlns="http://www.w3.org/2000/svg" viewBox="0 0 150 225">
  <defs>
    <style>
      .cls-1 {
        fill: #222;
      }

      .cls-2 {
        fill: #fff;
      }
    </style>
  </defs>
  <title>MH_Map</title>
  <g>
    <polygon class="cls-1" points="0 0 0 150 75 225 150 150 150 0 0 0"/>
    <rect class="cls-2" x="15" y="15" width="120" height="120"/>
    <path class="cls-1" d="M92.64,74a12.34,12.34,0,0,1,3.43,8.43q0,10.38-10.34,18.52T52.66,116.5l-1.57-5.19a151.36,151.36,0,0,0,19.3-8.14Q77,99.64,79.61,96a15,15,0,0,0,2.64-9,10.14,10.14,0,0,0-1.17-4.9,15.81,15.81,0,0,0-4-4.41,76.69,76.69,0,0,0-8-5.39V69.36a65.8,65.8,0,0,0,7.2-9.21,12.74,12.74,0,0,0,1.82-6.47,11.42,11.42,0,0,0-2.89-8,9.63,9.63,0,0,0-7.4-3.14q-5.59,0-14.9,7.06L50,45.45,64.12,34.28a12.63,12.63,0,0,1,4.31-.78,34.06,34.06,0,0,1,11.76,2,21.62,21.62,0,0,1,8.58,5.34A10.49,10.49,0,0,1,92,48.1a15.87,15.87,0,0,1-2.89,7.59,61.78,61.78,0,0,1-8.57,9.56h.1Q89.2,70.16,92.64,74Z"/>
  </g>
</svg>
