<svg id="Layer_1" data-name="Layer 1" xmlns="http://www.w3.org/2000/svg" viewBox="0 0 150 225">
  <defs>
    <style>
      .cls-1 {
        fill: #222;
      }

      .cls-2 {
        fill: #fff;
      }
    </style>
  </defs>
  <title>MH_Map</title>
  <g>
    <polygon class="cls-1" points="0 0 0 150 75 225 150 150 150 0 0 0"/>
    <rect class="cls-2" x="15" y="15" width="120" height="120"/>
    <path class="cls-1" d="M80.24,69.07Q88,73.68,91.07,77.6a13.58,13.58,0,0,1,3,8.52,20.86,20.86,0,0,1-6.27,15A51.25,51.25,0,0,1,72.35,111.8,194.93,194.93,0,0,1,50.5,120l-1.67-5.19a159.1,159.1,0,0,0,20.09-8.38c4.45-2.39,7.45-4.75,9-7.11a15.16,15.16,0,0,0,2.35-8.62,11.33,11.33,0,0,0-2.2-6.91q-2.2-3-8.43-6.57a181.66,181.66,0,0,0-18.57-8.77L57.46,38H86.07l3.24-8,3.43,1.08V52.61l-5.88-1.77H59.32l-1.47,7.45v.1A188.32,188.32,0,0,1,80.24,69.07Z"/>
  </g>
</svg>
