<svg id="Layer_1" data-name="Layer 1" xmlns="http://www.w3.org/2000/svg" viewBox="0 0 150 225">
  <defs>
    <style>
      .cls-1 {
        fill: #222;
      }

      .cls-2 {
        fill: #fff;
      }
    </style>
  </defs>
  <title>MH_Map</title>
  <g>
    <polygon class="cls-1" points="0 0 0 150 75 225 150 150 150 0 0 0"/>
    <rect class="cls-2" x="15" y="15" width="120" height="120"/>
    <path class="cls-1" d="M69.56,60q-8.37,11.76-8.38,24a40.2,40.2,0,0,0,2,13,21.76,21.76,0,0,0,6,9.51,14.38,14.38,0,0,0,9.9,3.58q11.55,0,11.56-15.39a21.79,21.79,0,0,0-5.54-15.09A32.79,32.79,0,0,0,71,70.44l3.24-4.9A36.59,36.59,0,0,1,89.6,68.73a26.7,26.7,0,0,1,10.93,8.77,20.81,20.81,0,0,1,4,12.35,24.32,24.32,0,0,1-4.56,13.72,35.52,35.52,0,0,1-11.81,11,29.1,29.1,0,0,1-14.8,4.22,23.53,23.53,0,0,1-13.37-4,26.25,26.25,0,0,1-9.21-10.93,35.82,35.82,0,0,1-3.29-15.48,49.76,49.76,0,0,1,4-19.95q4-9.15,14.21-18.42T94.31,31.24l2.54,4.51Q77.94,48.2,69.56,60Z"/>
  </g>
</svg>
