<svg id="Layer_1" data-name="Layer 1" xmlns="http://www.w3.org/2000/svg" viewBox="0 0 150 225">
  <defs>
    <style>
      .cls-1 {
        fill: #222;
      }

      .cls-2 {
        fill: #fff;
      }
    </style>
  </defs>
  <title>MH_Mapmarkers_Tidied_JustNumbers</title>
  <g>
    <polygon class="cls-1" points="0 0 0 150 75 225 150 150 150 0 0 0"/>
    <rect class="cls-2" x="15" y="15" width="120" height="120"/>
    <path class="cls-1" d="M95.09,78a30,30,0,0,1,6.81,7,15.2,15.2,0,0,1,2.74,8.86q0,5.3-4.5,11.42a41.1,41.1,0,0,1-11,10.29q-6.47,4.17-11.76,4.17A41.71,41.71,0,0,1,61,116.65a27.22,27.22,0,0,1-11.37-8.43,19.06,19.06,0,0,1-4.07-11.81q0-4.89,4.31-9.9T64.17,74.17a44.53,44.53,0,0,1-10-8.82,16,16,0,0,1-3.57-10.2q0-4.69,4.21-10.09A38.39,38.39,0,0,1,65.15,36q6.07-3.73,11.17-3.73A27.38,27.38,0,0,1,88,34.62a20.07,20.07,0,0,1,8,6.47A15,15,0,0,1,99,50a20.08,20.08,0,0,1-3.38,9q-3,4.65-11,12.2h.1Q91,75,95.09,78ZM84.8,110.33a13.16,13.16,0,0,0,4.61-5.2A15.21,15.21,0,0,0,91,98.27a11.11,11.11,0,0,0-2.5-7,28.23,28.23,0,0,0-6.17-5.83q-3.67-2.61-9.95-6.32-1.08-.69-2-1.23c-.62-.36-1.19-.7-1.71-1q-5.79,4.91-7.6,8a13.09,13.09,0,0,0-1.81,6.71,20.85,20.85,0,0,0,2.6,10.14,21.34,21.34,0,0,0,6.91,7.65,16.06,16.06,0,0,0,9.11,2.89A12.29,12.29,0,0,0,84.8,110.33ZM67.11,42.61a11.35,11.35,0,0,0-2.84,7.94,12.61,12.61,0,0,0,4.07,9.16,61.93,61.93,0,0,0,11.71,8.67,41.6,41.6,0,0,0,5.14-7.84,15.09,15.09,0,0,0,1.13-6,16.63,16.63,0,0,0-3.43-10.69,10.6,10.6,0,0,0-8.62-4.31v-.1A9.26,9.26,0,0,0,67.11,42.61Z"/>
  </g>
</svg>
