<svg id="Layer_1" data-name="Layer 1" xmlns="http://www.w3.org/2000/svg" viewBox="0 0 150 225">
  <defs>
    <style>
      .cls-1 {
        fill: #222;
      }

      .cls-2 {
        fill: #fff;
      }
    </style>
  </defs>
  <title>MH_Mapmarkers_Tidied_JustNumbers</title>
  <g>
    <polygon class="cls-1" points="0 0 0 150 75 225 150 150 150 0 0 0"/>
    <rect class="cls-2" x="15" y="15" width="120" height="120"/>
    <path class="cls-1" d="M90,33.8a25.56,25.56,0,0,1,9.26,10A30,30,0,0,1,102.54,58a46.9,46.9,0,0,1-4,19.35q-4,8.86-14.21,17.74T55.79,113.13l-2.55-4.51Q72.15,96.47,80.44,85.3t8.28-22.94a33.7,33.7,0,0,0-2-11.71,19.06,19.06,0,0,0-6-8.57,15.3,15.3,0,0,0-9.85-3.24q-5.77,0-8.72,3.92T59.22,54.33a22.44,22.44,0,0,0,5.29,15.09,30.51,30.51,0,0,0,13.63,9l-3.24,4.9A34.29,34.29,0,0,1,60,80.15a26.23,26.23,0,0,1-10.59-8.77A21.2,21.2,0,0,1,45.5,59a24.32,24.32,0,0,1,4.56-13.72,35.52,35.52,0,0,1,11.81-11,29,29,0,0,1,14.7-4.22A24.92,24.92,0,0,1,90,33.8Z"/>
  </g>
</svg>
