<svg id="Layer_1" data-name="Layer 1" xmlns="http://www.w3.org/2000/svg" viewBox="0 0 150 225">
  <defs>
    <style>
      .cls-1 {
        fill: #222;
      }

      .cls-2 {
        fill: #fff;
      }
    </style>
  </defs>
  <title>MH_Mapmarkers_animals_tidied</title>
  <g>
    <polygon class="cls-1" points="0 0 0 150 75 225 150 150 150 0 0 0"/>
    <path class="cls-2" d="M118.47,134.64c-3.24-5.15-6.32-10.43-10.27-15.09-3.1-3.66-6.21-7.29-9.33-10.93a20.22,20.22,0,0,0-2.13-2.3,28.4,28.4,0,0,0-8.63-4.57C86,100.94,83.87,100,81.77,99c-.24-.11-.36-.49-.53-.74a5.53,5.53,0,0,1,.82-.46,1.3,1.3,0,0,1,.62,0c2.77.48,4.77-.82,6.52-2.77a7.52,7.52,0,0,1,1.39-1c.39-.26.81-.46,1.22-.69a5.39,5.39,0,0,0-1-1.34c-.79-.55-1.79-.8-2.52-1.39A6.16,6.16,0,0,0,84,89.31a1.7,1.7,0,0,1-1.91-1.17,25.63,25.63,0,0,0-5.73-7.92c-.22-.21-.21-.76-.17-1.14.13-1.36.91-3,.37-4a20.25,20.25,0,0,0-4.25-4.73c-.5-.46-1.35-.27-1.29.93a4.56,4.56,0,0,1-.7,2c-.59,1.28-1.25,2.53-1.85,3.81a9,9,0,0,0-.36,1.15l-.33.05a11.09,11.09,0,0,1-.72-2.32,39,39,0,0,1-.19-5.4A11,11,0,0,0,66,65c-2.08-4.3-4-8.7-6.3-12.86-2.19-3.9-4.81-7.58-7.34-11.29-1.72-2.53-3.61-5-5.44-7.41a15.15,15.15,0,0,0-1.12-1.2,9.23,9.23,0,0,0-.5,1.66c-.43,5-2.76,9.16-5.73,13-.31.41-1,.55-1.69.92a3,3,0,0,0,.24,1.24,7.16,7.16,0,0,1,.85,5,15.66,15.66,0,0,1-4.8,8.83c2.55,1.86,3.21,4.46,2.85,7.37a8.3,8.3,0,0,1-4.56,6.44c.09.12.11.17.14.18.39.13.79.26,1.19.37C38,78.43,41.34,81,44.81,83.45c2.14,1.51,3.58,3.4,3.61,6.22,0,1.68-1,4.21-2.28,4.53-2,.47-4,1.09-5.89-.47a5.24,5.24,0,0,0-1.2-.68,4.19,4.19,0,0,0-4.49.24l2.85,1.06a11,11,0,0,0-1.92.41c-.37.15-.63.57-.93.87a5.89,5.89,0,0,0,1.16.5c1,.21,2,.35,3.32.58l-2.42,2.91.19.35,2.82-1.18c-.17.91-.35,1.68-.44,2.46,0,.23.22.48.34.73.21-.16.5-.27.63-.48a4.23,4.23,0,0,0,.25-.83c.44-1.19.9-2.38,1.36-3.57l.45-.08a13.48,13.48,0,0,1,2.3,2.88,18.49,18.49,0,0,1,1.32,4.91c.26,1.87.89,3.27,2.77,3.94,1.66.6,3.28,1.29,4.92,1.94a3.42,3.42,0,0,1,2.43,4c-.09.88-.39,1.38-1.42,1.28a10.52,10.52,0,0,0-2.15.18l0,.37c.89.34,1.77.71,2.67,1s1,.88.44,1.59-1.07,1.15-1.6,1.71c.93,1.27,1.33,1.08,3.43-1.57,1.9,1.07.75,3.42,1.94,5,1.21-1.25.75-2.62,1-4l1.51,2.72.45-.14a8,8,0,0,0-.33-2.38c-.43-.92-1.24-1.67-1.77-2.56-.38-.64-1-1.52-.77-2.09a6.44,6.44,0,0,1,2.5-3.82c.71-.45,1.23-.62,1.85,0,1,1.11,2.07,2.2,3.09,3.32a21.3,21.3,0,0,1,5.06,10.13c.39,1.8.56,3.64.8,5.47.22,1.65.9,2.53,2,2.43,6.33-.57,11.15,2,14.72,7.13.26.37.57.71,1,1.3a20.73,20.73,0,0,0,1.34-1.71c2.08-3.43,5.28-4.36,9-3.85a3.46,3.46,0,0,0,3.08-.69,4.59,4.59,0,0,1,2.22-.79,20.06,20.06,0,0,1,11,1.05,8.76,8.76,0,0,0,2,.25C118.81,135.37,118.68,135,118.47,134.64Z"/>
  </g>
</svg>
