<svg id="Layer_1" data-name="Layer 1" xmlns="http://www.w3.org/2000/svg" viewBox="0 0 150 225">
  <defs>
    <style>
      .cls-1 {
        fill: #222;
      }

      .cls-2 {
        fill: #fff;
      }
    </style>
  </defs>
  <title>MH_Map</title>
  <g>
    <polygon class="cls-1" points="0 0 0 150 75 225 150 150 150 0 0 0"/>
    <path class="cls-2" d="M135.39,82.29c0-.33.11-.33.11-.67s-.2-.41-.31-.6a1.19,1.19,0,0,0-.49-.41c-.31-.14-.26-.24-.57-.38l-.59-.27c-.32-.14-.36,0-.67-.16s-.31-.09-.63-.22-.28-.18-.59-.3-.31-.12-.62-.25-.29-.16-.59-.28-.32-.12-.63-.25-.31-.11-.61-.24-.28-.22-.59-.35l-.61-.25c-.31-.13-.33-.07-.63-.2s-.28-.19-.59-.33-.26-.22-.57-.35-.35,0-.65-.16-.31-.16-.61-.29-.29-.16-.59-.3-.33-.09-.63-.23-.33-.06-.64-.19-.27-.19-.58-.33-.29-.19-.59-.32l-.61-.27c-.31-.13-.33,0-.64-.18s-.29-.17-.59-.31-.27-.2-.58-.33l-.61-.27c-.32-.14-.35,0-.67-.16s-.27-.19-.57-.32-.34-.07-.65-.2-.33-.08-.62-.21-.26-.26-.57-.4-.33-.07-.63-.21-.27-.22-.57-.36-.37,0-.67-.13a6.63,6.63,0,0,1-.59-.31c-.3-.13-.28-.21-.57-.34s-.36,0-.66-.16-.29-.17-.59-.31-.31-.16-.61-.29-.33-.07-.65-.19a4.48,4.48,0,0,1-.63-.24c-.18-.08-.3-.32-.44-.52a1.46,1.46,0,0,1-.24-.6c0-.33.05-.33,0-.66s-.1-.33-.11-.66,0-.33,0-.66,0-.32,0-.65,0-.33,0-.66-.11-.32-.14-.65,0-.34,0-.66-.08-.33-.1-.66.12-.34.11-.67-.12-.32-.14-.64,0-.33-.06-.66,0-.32,0-.65,0-.34,0-.67-.08-.32-.1-.65,0-.33,0-.66.11-.33.09-.67-.11-.32-.13-.65.07-.34.06-.66-.14-.32-.15-.65,0-.33-.07-.66.15-.33.13-.67-.05-.32-.07-.65-.15-.33-.18-.66.11-.33.1-.66-.15-.32-.17-.64.15-.34.13-.67,0-.33-.06-.66-.09-.32-.11-.65.06-.34,0-.67l0-.65c0-.33,0-.33-.06-.66s-.13-.32-.16-.64,0-.34,0-.67,0-.32-.06-.66.17-.33.15-.66-.12-.33-.13-.66,0-.33,0-.66,0-.33,0-.66-.08-.32-.1-.65.07-.34.06-.66,0-.33,0-.66-.05-.33-.07-.66-.08-.33-.1-.66,0-.33,0-.66,0-.33-.07-.66-.05-.32-.07-.66.08-.34.06-.66a.73.73,0,0,0-.33-.48c-.15-.14-.29-.33-.5-.33s-.33.11-.66.11-.32-.1-.65-.1-.32.11-.64.11-.33-.12-.65-.12h-.66c-.33,0-.33.11-.66.11s-.32-.13-.65-.13h-.65c-.33,0-.33.13-.66.13s-.32-.14-.65-.14-.33.06-.66.06-.33.11-.66.11-.33-.07-.66-.07-.31.07-.64.07-.33-.08-.66-.08-.32-.1-.65-.1l-.66,0c-.33,0-.33.07-.65.07s-.33-.07-.65-.07h-.66c-.33,0-.33.1-.65.1a.69.69,0,0,0-.52.22.75.75,0,0,0-.31.5l0,.66c0,.34,0,.34,0,.67s-.12.33-.13.66,0,.33,0,.67,0,.33,0,.66-.09.33-.11.67,0,.33,0,.66.11.34.1.67,0,.33,0,.66,0,.34,0,.67-.19.32-.2.66,0,.33,0,.66.1.34.09.68-.08.33-.09.66,0,.33,0,.67-.1.32-.12.65-.06.34-.07.66.15.34.14.67,0,.35,0,.67-.07.33-.08.66.08.34.06.67,0,.33-.06.67,0,.33-.07.65-.12.33-.13.67,0,.33,0,.66,0,.34,0,.67,0,.33,0,.67l0,.66c0,.33,0,.34,0,.67s0,.33-.06.66,0,.34-.07.67S91,58.66,91,59l0,.67c0,.33,0,.33,0,.67s0,.32,0,.66.09.34.08.68-.08.32-.08.65,0,.33,0,.67-.09.33-.11.65-.06.34-.06.67.14.33.13.67,0,.34,0,.66-.09.33-.1.67-.07.33-.08.66,0,.34,0,.67.08.33.07.67-.18.33-.18.66l0,.66c0,.34.13.35.11.67l0,.68c0,.32,0,.32,0,.66s-.07.33-.08.66l0,.67c0,.34,0,.34,0,.67s-.16.31-.18.65.11.34.1.67,0,.33-.06.67-.11.33-.13.66.11.34.1.67,0,.34,0,.68a.49.49,0,0,1-.77.43c-.3-.14-.29-.16-.59-.3s-.34,0-.64-.16-.29-.15-.59-.27-.27-.22-.57-.34-.36,0-.66-.12-.24-.28-.54-.41-.29-.15-.6-.28-.33,0-.63-.17a6.45,6.45,0,0,1-.58-.31c-.3-.13-.32-.08-.61-.21s-.32-.09-.63-.23L82.3,75l-.59-.27c-.3-.13-.29-.17-.58-.3s-.3-.14-.59-.28-.29-.18-.59-.31-.36,0-.66-.12l-.59-.27c-.3-.13-.29-.17-.58-.3s-.29-.17-.59-.29-.3-.18-.59-.31-.32-.08-.63-.2-.32-.06-.62-.2-.24-.28-.53-.41-.33-.08-.63-.2-.34,0-.64-.16-.26-.27-.55-.4-.3-.11-.6-.25-.33-.05-.64-.19-.25-.23-.55-.36-.33-.07-.63-.21-.33-.06-.64-.19-.27-.18-.57-.32-.3-.11-.6-.25-.34,0-.64-.18l-.59-.27c-.31-.13-.25-.28-.55-.4s-.34,0-.65-.17a1.08,1.08,0,0,0-.62,0c-.22,0-.5,0-.64.19s-.2.27-.43.51l-.48.45c-.23.24-.25.23-.48.46s-.23.24-.47.47-.26.21-.49.45-.19.26-.44.5-.16.3-.4.54-.29.18-.52.41-.18.3-.42.52-.24.24-.47.47-.3.17-.54.4-.19.28-.43.52l-.47.46c-.23.24-.28.19-.52.42l-.47.48c-.22.23-.26.21-.5.44s-.17.3-.41.53-.28.18-.52.41-.22.25-.46.48-.19.28-.42.53-.24.22-.48.46-.21.26-.45.49a1.1,1.1,0,0,1-.61.23,1.27,1.27,0,0,1-.64,0c-.31-.14-.33-.1-.63-.23s-.26-.24-.57-.37-.31-.09-.61-.22-.29-.18-.6-.31l-.6-.25c-.32-.14-.34-.06-.65-.19s-.28-.18-.59-.32l-.6-.25c-.31-.13-.33-.08-.64-.21l-.6-.25c-.31-.14-.27-.23-.58-.35s-.34,0-.66-.17-.28-.16-.59-.29-.25-.25-.55-.38-.35,0-.65-.16-.32-.11-.62-.25l-.61-.25c-.32-.13-.32-.11-.62-.24s-.26-.24-.56-.38l-.61-.25c-.31-.12-.3-.14-.61-.27s-.31-.09-.62-.23L39.92,73c-.31-.13-.31-.11-.62-.24l-.61-.27c-.3-.13-.27-.2-.57-.34s-.29-.16-.6-.29-.32-.08-.62-.21-.35-.08-.65-.2-.25-.23-.56-.37-.32-.1-.62-.23-.35,0-.66-.15-.3-.15-.6-.27-.26-.23-.57-.37-.35,0-.66-.15-.27-.2-.58-.34-.31-.1-.61-.22-.33-.1-.63-.23-.28-.2-.58-.34-.29-.16-.6-.28-.34-.06-.65-.19a.87.87,0,0,0-.6-.05,1.14,1.14,0,0,0-.62.19c-.23.23-.22.24-.46.48s-.16.3-.38.53-.3.19-.52.42-.27.2-.49.43-.21.28-.44.51-.27.2-.51.42-.26.22-.48.45-.25.22-.49.45-.12.34-.36.57-.26.22-.49.45-.21.25-.45.48-.33.15-.55.38-.18.29-.41.53-.21.25-.45.48-.26.21-.49.44-.27.21-.5.43-.18.3-.41.53-.3.17-.53.41-.18.29-.41.52-.29.18-.52.41-.16.32-.39.55-.33.15-.56.37-.2.27-.44.5-.22.24-.46.48-.17.3-.4.53-.35.13-.58.36-.17.3-.4.54a1.72,1.72,0,0,0-.55,1.27c0,.34.08.34.08.68s0,.33,0,.67,0,.33,0,.67,0,.33,0,.67-.13.34-.13.68,0,.34,0,.67.08.34.08.67,0,.34,0,.68,0,.33,0,.67,0,.33,0,.67.06.33.06.67-.06.34-.06.67,0,.34,0,.68.11.34.11.67-.05.34-.05.68-.1.33-.1.67,0,.33,0,.67.15.34.15.67-.15.34-.15.67.09.34.09.68.06.34.06.67a.66.66,0,0,0,.19.51.62.62,0,0,0,.5.17c.3,0,.3,0,.62,0s.3.08.62.08.31,0,.63,0,.3.07.62.07.31,0,.62,0,.31-.11.63-.11.31.12.62.12a1,1,0,0,0,.59-.24c.14-.14.12-.38.12-.6s0-.33,0-.65,0-.32,0-.64-.07-.33-.07-.66.1-.32.1-.65-.1-.32-.1-.65v-.64c0-.32,0-.32,0-.65s0-.32,0-.65.08-.33.08-.65-.05-.33-.05-.65.06-.33.06-.65-.08-.33-.08-.65,0-.32,0-.65-.05-.33-.05-.64.14-.33.14-.66-.17-.32-.17-.65.07-.32.07-.65.07-.33.07-.65a1.89,1.89,0,0,1,.1-.69,1.75,1.75,0,0,1,.42-.56c.24-.23.19-.28.43-.52s.26-.21.49-.45.24-.25.48-.48.15-.32.39-.55.37-.11.6-.35.21-.27.45-.51.15-.31.38-.55.31-.16.56-.4.25-.22.48-.45.26-.23.49-.48l.45-.48c.24-.24.15-.33.38-.57s.26-.21.51-.45.29-.18.52-.42.17-.32.41-.55.26-.21.5-.45.22-.25.46-.49.41-.12.64-.17a1.13,1.13,0,0,1,.63,0l.6.26c.32.14.33.09.63.23s.29.2.58.33.32.11.63.24.28.16.6.29.27.17.58.3.33.09.63.21.33.08.64.22.33.07.64.2.28.18.59.31.27.19.58.32.29.16.59.28.35,0,.65.18.27.25.56.39.35,0,.65.16.27.21.57.35.33.08.63.22.28.19.58.32.34.06.66.19.28.16.59.29.33.07.63.21.26.24.56.37.32.1.63.24.34,0,.65.16.28.17.59.31.3.15.6.28.33.09.63.22.27.2.57.34.37,0,.67.15.24.26.56.38.35,0,.66.14.29.18.59.3.3.16.61.29.27.2.58.33.29.16.6.29a1.21,1.21,0,0,1,.54.35,1.18,1.18,0,0,1,.09.64c0,.32.05.32.05.65s0,.31,0,.64.1.32.1.65-.1.32-.1.65,0,.32,0,.63-.07.33-.07.65,0,.32,0,.65.17.32.17.64-.08.32-.08.65v.65c0,.32.08.32.08.65s-.07.32-.07.63-.11.33-.11.65.1.32.1.65,0,.32,0,.65,0,.32,0,.64,0,.32,0,.65,0,.46.09.6.38.09.59.09.31,0,.62,0,.31,0,.63,0,.3.14.61.14.31,0,.63,0,.31,0,.63,0,.3,0,.62,0h.62a.84.84,0,0,0,.79-.81c0-.33,0-.33,0-.65s0-.32,0-.64,0-.33,0-.66-.11-.32-.11-.65,0-.32,0-.65.1-.31.1-.64,0-.32,0-.65.09-.32.09-.65-.05-.33-.05-.65-.11-.33-.11-.65.14-.33.14-.65,0-.33,0-.65-.11-.32-.11-.65.16-.33.16-.64-.11-.33-.11-.66,0-.32,0-.65,0-.32,0-.65.12-.33.12-.65a1.74,1.74,0,0,1,.13-.68c.1-.23.14-.52.29-.66s.32-.15.55-.39.18-.3.41-.55.23-.25.46-.49.22-.24.46-.48.3-.19.54-.42.18-.29.42-.53.23-.24.47-.46.26-.22.5-.46.31-.17.54-.41.22-.24.47-.48.22-.25.45-.49.2-.28.43-.52.21-.25.46-.49.33-.15.56-.39.23-.24.48-.48.13-.33.37-.56.29-.2.53-.44a1,1,0,0,1,.61-.21,1.16,1.16,0,0,1,.66,0c.3.13.28.17.59.31s.28.17.59.31a6.5,6.5,0,0,1,.61.25c.31.13.33.08.64.2s.29.15.6.28.26.23.57.37.36,0,.66.12.29.16.59.3l.62.27c.3.13.26.23.57.36s.32.09.62.23.35,0,.66.16.31.11.61.24.29.16.59.28.31.16.61.3.29.16.59.28.33.08.63.21.25.27.56.4.36,0,.66.14.28.19.59.32.34.06.65.18l.6.27c.3.13.29.15.6.28s.27.22.58.35l.6.27c.32.13.3.18.6.31s.32.1.62.24.34.05.64.19l.61.25c.3.14.32.08.63.21s.23.3.55.44.36,0,.67.12.24.27.54.41.39,0,.69.1l.6.27a1.47,1.47,0,0,1,.49.5,1.29,1.29,0,0,1,.24.63c0,.32-.14.32-.14.65s.1.31.1.64,0,.32,0,.65.08.32.08.65,0,.32,0,.63v.65c0,.32,0,.32,0,.65s0,.32,0,.64-.1.32-.1.65.12.32.12.65,0,.32,0,.65-.08.32-.08.63-.05.33-.05.65,0,.32,0,.65.13.32.13.65.06.32.06.64,0,.32,0,.65,0,.46.11.6.39.1.6.1.3,0,.62,0,.31.05.61.05.31-.05.63-.05h.62c.31,0,.31.1.62.1s.31,0,.63,0,.31,0,.63,0a.83.83,0,0,0,.54-.23.76.76,0,0,0,.22-.55v-.67c0-.34-.07-.34-.07-.68s0-.33,0-.67.08-.33.08-.68,0-.33,0-.67-.17-.34-.17-.68,0-.34,0-.67,0-.34,0-.68,0-.34,0-.67S96,90,96,89.69s-.08-.33-.08-.67v-.68c0-.34,0-.34,0-.67s-.08-.34-.08-.68.12-.34.12-.68S96,86,96,85.64s0-.34,0-.68-.13-.34-.13-.67.16-.35.16-.68,0-.48,0-.76,0-.56,0-.75,0-.34,0-.67,0-.33,0-.66l0-.67c0-.33.15-.32.17-.65s0-.34,0-.67,0-.33,0-.66,0-.34,0-.67.07-.33.09-.66,0-.34,0-.67,0-.32,0-.66l0-.67c0-.33,0-.33,0-.65s0-.34,0-.67.06-.33.08-.66-.11-.34-.1-.67.15-.32.17-.65-.07-.34-.06-.67,0-.33,0-.67.08-.33.09-.66,0-.33,0-.66-.07-.34-.06-.67.14-.33.15-.66,0-.33.06-.66-.08-.34-.07-.67,0-.34,0-.66,0-.34,0-.66,0-.34,0-.67,0-.33,0-.66.06-.33.08-.66.13-.33.14-.66-.09-.34-.08-.67.07-.33.08-.67-.11-.33-.09-.66.11-.33.12-.66,0-.34,0-.66,0-.34,0-.67,0-.33,0-.67,0-.33,0-.67.07-.32.08-.64-.09-.34-.07-.67.08-.34.09-.66-.06-.34,0-.67,0-.33,0-.66,0-.34,0-.67,0-.33,0-.66.05-.34.07-.67.06-.33.08-.66,0-.33,0-.67,0-.33,0-.66-.06-.34,0-.67.17-.32.19-.66,0-.34,0-.66-.1-.34-.09-.68.08-.32.1-.65.13-.32.14-.66,0-.34,0-.66,0-.34,0-.68-.08-.33-.06-.67a.72.72,0,0,1,.32-.5c.14-.14.32-.33.52-.33s.32.1.64.1.31-.07.63-.07.32.14.63.14.33-.06.65-.06a.67.67,0,0,1,.48.25c.15.14.3.27.3.48s0,.33,0,.66.09.33.11.65,0,.32,0,.65,0,.34,0,.67,0,.33,0,.66,0,.33,0,.66.12.32.14.65,0,.34,0,.66.09.32.1.65-.06.33,0,.66-.09.34-.08.67.18.32.2.65-.13.34-.11.67.18.32.2.65,0,.33,0,.66.08.33.11.66,0,.34,0,.66-.06.33,0,.66,0,.33,0,.66.12.33.14.66,0,.32,0,.65-.1.34-.08.67.14.33.16.65-.1.34-.09.67,0,.33,0,.65l0,.66c0,.33,0,.33,0,.66s.06.33.08.66,0,.33,0,.66l0,.66c0,.33.08.33.11.66s0,.33.06.66.09.32.11.64-.14.35-.12.68.06.32.08.65,0,.33,0,.67.16.32.17.65,0,.33,0,.66.09.33.1.66-.12.34-.11.67,0,.33,0,.67.17.31.18.64-.12.34-.1.67.15.32.17.65a1.13,1.13,0,0,0,.24.58c.14.19.23.48.41.56s.34,0,.64.18l.61.26c.31.12.27.22.57.35s.31.11.61.25.35,0,.65.16.27.2.57.34.3.15.59.28.32.11.63.25.31.08.61.22.31.11.62.25.3.1.61.24.25.24.56.37.33.05.63.17.28.23.57.37.34,0,.65.19.27.18.57.31.31.1.62.24.34,0,.65.16.28.16.6.29.26.22.56.34.31.09.62.23.34,0,.64.18l.61.25c.3.14.26.22.57.36s.27.18.58.32.34,0,.64.17.28.18.58.32l.6.26c.31.13.34.06.64.18s.26.26.56.39.36,0,.67.13.32.09.61.23.3.16.6.29.26.23.56.36.32.08.62.21.28.22.58.34.37,0,.67.11.28.2.58.34a5.5,5.5,0,0,1,.61.23c.31.12.31.12.62.26s.27.2.58.34a1.08,1.08,0,0,1,.47.41,1.27,1.27,0,0,1,.31.61c0,.32-.06.32-.06.65s0,.31,0,.64,0,.32,0,.65-.1.32-.1.65,0,.32,0,.63,0,.33,0,.65.1.32.1.65-.12.32-.12.64.17.32.17.65-.08.32-.08.65,0,.32,0,.65.06.32.06.63-.14.33-.14.65-.05.32-.05.65,0,.32,0,.65.05.32.05.64,0,.32,0,.65.17.35.3.5a.68.68,0,0,0,.49.18c.32,0,.32.05.63.05s.31-.05.63-.05.31.13.61.13.32,0,.63,0,.31,0,.62,0,.31-.1.63-.1.3.09.61.09a.75.75,0,0,0,.54-.27.73.73,0,0,0,.21-.53c0-.33,0-.33,0-.67s.08-.33.08-.67-.06-.34-.06-.67v-.68c0-.34,0-.34,0-.67s0-.34,0-.67,0-.34,0-.68,0-.33,0-.68,0-.33,0-.67.07-.33.07-.67-.11-.34-.11-.67v-.68c0-.34-.06-.34-.06-.67s.14-.35.14-.69-.07-.33-.07-.67v-.67c0-.34.09-.34.09-.67s0-.35,0-.68,0-.34,0-.67.1-.35.1-.68-.11-.34-.11-.68"/>
  </g>
</svg>
