<svg id="Layer_1" data-name="Layer 1" xmlns="http://www.w3.org/2000/svg" viewBox="0 0 150 225">
  <defs>
    <style>
      .cls-1 {
        fill: #222;
      }

      .cls-2 {
        fill: #fff;
      }
    </style>
  </defs>
  <title>MH_Mapmarkers_animals_tidied</title>
  <g>
    <polygon class="cls-1" points="0 0 0 150 75 225 150 150 150 0 0 0"/>
    <path class="cls-2" d="M119.66,101.94a3.29,3.29,0,0,0-.77-.71c1.5-1.83,1.44-2.47-.43-3.81a28.25,28.25,0,0,0-2.7-1.54c.27-1.57-.28-2.45-2-2.82-1.22-.26-2.59.19-3.81.31,1.17-1.5,1-2.42-.92-3.09a5.3,5.3,0,0,0-2.4-.28,21.67,21.67,0,0,0-9.14,3.79c-1.13.74-2.31,1.71-3.68.21a2.87,2.87,0,0,0-1.62-.63c-2.14-.36-4.29-.64-6.32-.93.81-.28,1.76-.56,2.67-.94s1.8-.88,2.7-1.31a2.25,2.25,0,0,0,1.29-3,19.27,19.27,0,0,0-1.3-2.33c1.2-.24,2.5-.42,2.72-2,.26-1.86-.74-2.92-2.43-3.54,4-2.85,4.28-4,1.42-6.23,3.25-2.42,3.39-2.81,1.62-5.24.82-.35,1.58-.73,2.38-1,1.92-.65,2.92-2,2.25-3.42a7.9,7.9,0,0,0-1.55-1.72c3.88-1.77,4.19-2,4.17-3.69a2.86,2.86,0,0,0-2.46-2.91c.66-.48,1.15-.79,1.59-1.17a20,20,0,0,0,3.26-3c1.31-1.83.83-2.68-1.56-3.16,1.26-.78,2.44-1.47,3.58-2.2,1.42-.92,2.81-1.84,3.34-3.64A2.7,2.7,0,0,0,109,39c-.79-.83-1.71-.53-2.52-.21-2.59,1-5.12,2.2-7,4.37a11.44,11.44,0,0,1-1.66,1.34,1.22,1.22,0,0,1,.4-.83c1.94-1.87,4-3.65,5.81-5.63a16.9,16.9,0,0,0,2.45-3.85,1.87,1.87,0,0,0-.4-1.65,1.67,1.67,0,0,0-1.52-.3c-1.27.52-2.46,1.24-3.64,1.86a34,34,0,0,0,.9-3.9,1.4,1.4,0,0,0-2.2-1.48,25.59,25.59,0,0,0-3.28,2.41c-.76.62-1.42,1.35-2.12,2A15.25,15.25,0,0,1,95,30.56a18.22,18.22,0,0,0,.74-2.49,18.84,18.84,0,0,0,.61-4.44c-.12-2.06-1.8-2.65-3.35-1.32a5.49,5.49,0,0,0-1.39,1.5c-1.25,2.33-2.42,4.7-3.61,7.07-.24.48-.45,1-.65,1.45-.3-1-.57-2-.83-2.91l-.64-.09a14.15,14.15,0,0,0-1.65,2.36c-1.39,3.18-2.6,6.43-4,9.61-2.59,6-6.45,11.25-10,16.64a27.42,27.42,0,0,1-4.68,5.13c-1.67,1.47-3.41,2.65-4.39,4.87a38,38,0,0,0-3.41,15.13c0,2.3.2,4.6.32,7-.74-.23-1.34-.44-1.94-.59A36.55,36.55,0,0,0,49.57,88a10.08,10.08,0,0,0-9.22,4.66,2,2,0,0,1-.93.66c-2.21.66-4.47,1.21-6.65,2a7.59,7.59,0,0,0-2.53,1.6c-1.06.94-1,1.61.29,2.14a21.93,21.93,0,0,0,4.29,1.23c1.65.31,3.34.39,5,.61a1.66,1.66,0,0,1,.75.44,34.33,34.33,0,0,1,2.79,2.6c1.93,2.15,5.39,2,6.94,4.67,0,.05.17,0,.26.05,2.34.75,4.67,1.53,7,2.24,1.65.5,3.34.88,5,1.37a42.14,42.14,0,0,0,12.09,2.18h7.15c1.3,2.24,2.58,4.61,4,6.87a10.31,10.31,0,0,0,5.47,4.33,4,4,0,0,1,2.45,1.78,6.24,6.24,0,0,0,1.94,1.68,3.8,3.8,0,0,0,1.21.36,4.09,4.09,0,0,0,0-1.52,17,17,0,0,0-1.25-2,7.35,7.35,0,0,1-.43-1l.31-.26c.63.39,1.24.84,1.9,1.17a7.6,7.6,0,0,0,1.44.37,4.7,4.7,0,0,0,.09-1.48c-.48-1.76-1.82-2.61-4-2.85a22.69,22.69,0,0,0,2.76-1.21c1.07-.66,1-1.53-.17-2a2.38,2.38,0,0,0-1.45-.19c-1.39.38-2.83.65-3.53,2.26-.48,1.1-1.5,1.62-2.53.64a39.16,39.16,0,0,1-3.87-4.17,22.09,22.09,0,0,1-1.86-3.44,9.46,9.46,0,0,0,1.55-.45,2.63,2.63,0,0,1,3.08.44,15.52,15.52,0,0,0,6.75,3.13c1,.14,2.25.24,2.45,1.71,0,.25.38.51.64.67,1.07.7,2.14,1.42,3.27,2a11.46,11.46,0,0,0,2,.61l.21-.41a13.83,13.83,0,0,0-1.07-1.33c-.73-.75-1.52-1.44-2.26-2.19a3.18,3.18,0,0,1-.45-.76,3.77,3.77,0,0,1,.94-.33,5.6,5.6,0,0,1,.93.21l3.63.4c-.74-2.17-2.89-1.9-4.32-3.24a5.09,5.09,0,0,0,1.45,0,19.05,19.05,0,0,0,1.87-.92,13.09,13.09,0,0,0-1.48-1.41,3.23,3.23,0,0,0-1.3-.38c-2.74-.49-2.72-.48-4,2.08a1.4,1.4,0,0,1-.88.69c-2.74.32-4.72-1.09-6.67-2.9,2.22-1.34,5.09-1.83,4.78-5.39a31.76,31.76,0,0,1,4.47.65c2.88.84,5.71,1.82,8.53,2.83,2.26.81,4.44,1.86,6.73,2.54a3,3,0,0,0,2.35-.89,2.17,2.17,0,0,0,0-2,6.94,6.94,0,0,0-1.82-2,25.54,25.54,0,0,0-2.45-1.61h5.06a1.88,1.88,0,0,0,2-1.52C120.57,103.4,120,102.63,119.66,101.94Z"/>
  </g>
</svg>
