<svg id="Layer_1" data-name="Layer 1" xmlns="http://www.w3.org/2000/svg" viewBox="0 0 150 225">
  <defs>
    <style>
      .cls-1 {
        fill: #222;
      }

      .cls-2 {
        fill: #fff;
      }
    </style>
  </defs>
  <title>MH_Mapmarkers_animals_tidied</title>
  <g>
    <polygon class="cls-1" points="0 0 0 150 75 225 150 150 150 0 0 0"/>
    <path class="cls-2" d="M120.05,49.54c-.73,1.47-1.5,2.92-2.29,4.36a9.19,9.19,0,0,1-.77,1l-.44-.51c-.8,1.09-1.51,2.13-2.32,3.08-.24.29-.75.35-1.13.51l-.41-.53c-.66.79-1.32,1.6-2,2.38-.46.54-1,1-1.39.14L107,61.19a4.33,4.33,0,0,0-1.26-.28c-.54.07-1.06.33-1.61.41-1,.16-2.06.24-3.09.36l0-.3,1.24-.73-4.92-1.46,0-.29,1.64-.12.07-.23L94.53,57,96,55.91,90.12,55l.49-.83-.13-.28L86.36,55l.38-.79-.18-.31L81.09,56l.52-1c-1.81-.36-3.24.64-4.83.95L76.46,55l-2.78,1.2c-.54-1.34-1.28-.33-1.88-.18a18.21,18.21,0,0,0-2.16.85l-.34-1-3.47,1.35c0-.5-.07-.84-.1-1.33l-3.57,1.31.44-1.46-4,1.63.28-1.84L55,56.24l1.39-2H53.64c.14-1.86.27-3.58.41-5.3l.83,0a21.63,21.63,0,0,1-.14-2.6,17.52,17.52,0,0,1,.46-2c.2-1,.28-2,.55-3a10.81,10.81,0,0,1,.87-3.26c.45-.74.24-1.89.34-3.12L53.2,37.62c-.21.14-.54.46-.61.41-.87-.62-1.28.23-1.8.57s-.94.94-1.49,1.29A19.07,19.07,0,0,1,47.12,41a5,5,0,0,1-1.2.5,8.17,8.17,0,0,1-1.48-.05l0,.14-2.24-.38-.86.54-1-.79-.09.3A5.43,5.43,0,0,1,38.93,41c-.89-.37-2.19-.34-2-1.88,0-.07-.15-.15-.22-.24-.89-1.16-1.79-2.32-2.67-3.49-.72-1-1.43-2-2.32-3.18a10.78,10.78,0,0,0-.59,1.64c-.22,1.7-.33,3.41-.6,5.1-.23,1.45-.64,2.87-.94,4.31-.21,1-.35,2-.57,3.05a8.73,8.73,0,0,1-.73,2.47,8.74,8.74,0,0,0-1.38,5.38,8,8,0,0,1,4.78,4c1.21,2.12-.26,4.2-.46,6.55l.89-.7c-.13,1-.25,1.92-.39,3l1.38-.71v2.88l1.24-.82c.06,1.06.11,2,.17,3l1.06-.59c.44,2.1.44,2.1.94,2.24l.17,3.4,1.15-.81.69,2.11.71-.67c1,.41-.37,2.34,1.89,2.1a45.35,45.35,0,0,1,1.32,6c.4,4.51.63,9,.76,13.56a28,28,0,0,1-1,9c-.37,1.18-.91,2.1-2.35,2.06a4.57,4.57,0,0,0-1.1.11,2.72,2.72,0,0,0-1.9,3.11c.26,1.06,1.16,1.35,2.61.84,1.51,1.2,2,1.26,3.36.46l.09.32a6.93,6.93,0,0,0,2.26.08,1.5,1.5,0,0,1,1.37,0,2.14,2.14,0,0,0,3.07-1.94c0-2.11.08-4.22.1-6.33,0-3.27,1.23-6.22,2.53-9.14,1-2.26,2.06-4.51,3.08-6.77s2-4.45,3.07-6.81l1,1.63c.4-.76.72-1.39,1.23-2.37.2.5.32.81.5,1.24l1-1.61,1.41,1.91,1.32-2.28,1.08,1.37.86-1.28L68.06,84l1.53-2.29,1,2.06c.45-.86.78-1.47,1.16-2.19l1.12,1.88L74.25,81l1.5,2.21c.57-1,1-1.81,1.48-2.64l.9,1.39,1.05-1.81c.43.63.79,1.15,1.22,1.76l.85-1.14c.31,1.27.5,2.41.87,3.49A50.59,50.59,0,0,0,84,89.3c.74,1.61,1.71,3.11,2.52,4.69.58,1.12,1,2.29,1.61,3.41,1.81,3.63,2.5,7.28.41,11a6.33,6.33,0,0,1-5,3.57,2.85,2.85,0,0,0-2.4,2c-.36,1.11.19,1.82,1.35,1.79.32,0,.73-.1.94.06a2.18,2.18,0,0,0,3.16-.1,12.12,12.12,0,0,0,.9,1A1.42,1.42,0,0,0,90,116.1a10.37,10.37,0,0,0,.23-1.41,8.88,8.88,0,0,1,.66-2.14c.6-1,1.37-1.93,2.07-2.89a12.91,12.91,0,0,0,2.18-10.55c-.34-1.63-1-3.2-1.47-4.82s-.8-3.13-1.18-4.7c-.06-.25-.12-.64,0-.76.7-.64.23-1.36.24-2.06a13.21,13.21,0,0,1,.32-2l.29.08c.29,1.32.58,2.63.89,4l.76-.4c.4.79.64,2,1.13,2.1.78.19.81.62.93,1.09a11.94,11.94,0,0,0,3.19,5.61,9.76,9.76,0,0,1,1.84,3.35,15.82,15.82,0,0,1,.57,3.17,22,22,0,0,1-1.41,11.88c-.28.68-.67,1.41.07,1.88a5.39,5.39,0,0,0,1.89.39c1.32,1.3,2.24,1.15,3.44-.9.79.46,1.76.7,2.27-.16a2.23,2.23,0,0,0-.17-2,6.88,6.88,0,0,1-1.34-4.26c0-1.08,0-2.15,0-3.23,0-4.59-.61-9-3.07-13a16.06,16.06,0,0,1-1.73-3.71,14.69,14.69,0,0,1-.31-3.17,5.7,5.7,0,0,0,.42-1.52c0-.81-.24-1.61-.35-2.42,0-.4-.19-1.08,0-1.18,1.27-.72.47-1.81.57-2.73,0-.25,0-.5,0-.76l1.14.09c-.25-1.16-.48-2.22-.72-3.28h1.3c-.41-1.24-.78-2.37-1.16-3.54l1,.33c.09-.18.18-.28.17-.37-.16-1.16-.34-2.32-.53-3.57.5.18.94.34,1.39.48,1.09.35,1.32.14,1.11-1,1.09-.47,2.3-.35,3.36-1.33,1.41-1.29,3.3-2,5-3a1.82,1.82,0,0,0,.6-.57c.26-.38.43-.82.67-1.22.36-.59.75-1.17,1.14-1.75.08-.12.17-.29.28-.33.91-.27.78-1.06.89-1.72s.15-1.4.24-2.1c0-.09.11-.17.18-.28l.7.35c.49-2.34,1-4.59,1.47-7C120.67,48.68,120.36,48.91,120.05,49.54Z"/>
  </g>
</svg>
