<svg id="Layer_1" data-name="Layer 1" xmlns="http://www.w3.org/2000/svg" viewBox="0 0 150 225">
  <defs>
    <style>
      .cls-1 {
        fill: #222;
      }

      .cls-2 {
        fill: #fff;
      }
    </style>
  </defs>
  <title>MH_Mapmarkers_animals_tidied</title>
  <g>
    <polygon class="cls-1" points="0 0 0 150 75 225 150 150 150 0 0 0"/>
    <path class="cls-2" d="M109.86,94.06c-2-.42-4-.55-6-.79A10.25,10.25,0,0,1,98,91.16l.1-.43a11.17,11.17,0,0,1,1.43.13,23.9,23.9,0,0,0,2.84.68c.95.09,2.28.48,2.63-.85s-.83-1.91-1.79-2.29c-2.12-.85-4.3-1.53-6.46-2.3-2.93-1-6.14-1-8.77-3.3-1.78-1.53-4.36-2.19-6.63-3.09-3-1.2-6.15-2.23-9.2-3.4-4.07-1.57-6.58-4.66-8.2-8.59-.29-.68-1-1.23-1.14-1.92A31.51,31.51,0,0,1,62,60.27c-.19-4-.15-8-.29-12a8.67,8.67,0,0,0-2-5.91c-1.33-1.41-2.76-2.73-4.15-4.08a1.36,1.36,0,0,0-.32-.21,7.87,7.87,0,0,0-7.79,0c-.76.41-1.29,1.26-2.06,1.64-1.75.86-3.56,1.61-5.38,2.31S36,43.41,34,44.23A2.37,2.37,0,0,0,32.7,47.1c.35.95,1.47,1.4,2.82,1.1a38.88,38.88,0,0,1,4.47-1,17.05,17.05,0,0,1,3.76.23,1,1,0,0,1,.63.65c.15,1.21.25,2.44.29,3.66.09,2.72.09,5.43.22,8.14.14,3,.43,6,.54,9a5.92,5.92,0,0,1-.54,2.84,20.79,20.79,0,0,0-2.4,8c-.36,3.7,0,7.22,2.73,10.11a37.84,37.84,0,0,1,3.05,3.42,25.76,25.76,0,0,0,6.89,6.15c2.7,1.83,5.42,3.64,8.1,5.5,4.21,2.93,8.39,5.9,12.57,8.86a1.32,1.32,0,0,1,.52.76c.39,2.93.63,5.89,1.14,8.8.29,1.61.82,3.16.09,4.82a.92.92,0,0,1-.3.08,38.62,38.62,0,0,0-12.47,1.54,6.83,6.83,0,0,0-1.62,1.08,8.23,8.23,0,0,0,1.12,1.57,6.3,6.3,0,0,0,1.62.73c1.83.77,3.64,1.6,5.49,2.3a4.54,4.54,0,0,0,2.42.41c2.68-.62,5.32-1.43,8-2.19a10.29,10.29,0,0,0,1.41-.6c1.73-.8,2-1.93.83-3.36a21.06,21.06,0,0,1-5-13.07c0-1.06.29-1.41,1.32-1.09,3.07.94,6.16.36,9.24.06,1.33-.13,2.71,0,3.87-1A4.68,4.68,0,0,1,95,114.1a23.06,23.06,0,0,1,1.42,3.08c.75,2.55,1.4,5.14,2,7.73.39,1.66.26,1.74-1.43,2.32-2.44.84-4.88,1.7-7.29,2.64-1,.4-1.15,1.13-.39,2a5.88,5.88,0,0,0,1,.8c1.44,1,2.92,2,4.32,3.13,1.7,1.33,3.27,1.54,4.78.48q3.75-2.64,7.46-5.3a1.65,1.65,0,0,0,.36-2.63,16.83,16.83,0,0,0-2.63-2.21,9.94,9.94,0,0,1-4.32-6.52c-.44-2.41-.86-4.84-1.22-7.27a2.22,2.22,0,0,1,.24-1.59c2.41-2.71,3.28-6.21,5-9.26a5.13,5.13,0,0,1,2.11-1.85,15.74,15.74,0,0,1,3-.9c1.25-.35,2.43-1,2.57-2.33S111,94.3,109.86,94.06Z"/>
  </g>
</svg>
