<svg id="Layer_1" data-name="Layer 1" xmlns="http://www.w3.org/2000/svg" viewBox="0 0 150 225">
  <defs>
    <style>
      .cls-1 {
        fill: #222;
      }

      .cls-2 {
        fill: #fff;
      }
    </style>
  </defs>
  <title>MH_Mapmarkers_animals_tidied</title>
  <g>
    <polygon class="cls-1" points="0 0 0 150 75 225 150 150 150 0 0 0"/>
    <path class="cls-2" d="M123.91,61.68c-.8-1-2.2-1.63-2.82-2.71-1.5-2.64-4-4-6.42-5.4a17.56,17.56,0,0,0-15.14-1.29,25.24,25.24,0,0,1-6.64,1.5c-4.54.22-9.09.6-13.66-.2-2.29-.4-4.42-.57-5.69-2.83-.17-.3-.61-.45-.92-.68-1.08-.8-2.18-1.58-3.23-2.41-2.29-1.8-4.41-3.79-7.13-5a8.61,8.61,0,0,1-2.72-2.33c-1.45-1.69-2.9-3.28-5.35-3.37a2.27,2.27,0,0,1-1.07-.54A27.39,27.39,0,0,0,49,33.62a52.72,52.72,0,0,0-6.4-2c-.43-.12-.93,0-1.36-.18a2.43,2.43,0,0,1-1-.64c-.64-.72-1.21-1.51-1.79-2.24-.25.16-.31.17-.32.21a4,4,0,0,0-.21.58,9.1,9.1,0,0,1-3.33,5.19,16.93,16.93,0,0,0-3.92,3.72C28.13,41.9,26,45.71,23.65,49.43a7,7,0,0,0-.37,6.36c.76,2,4.42,3.09,6.45,1.8a41.38,41.38,0,0,0,4.2-3.43A6.76,6.76,0,0,1,35.28,53c1.61-.71,3.28-1.31,4.92-1.95.67-.27,2.65,1.2,2.49,1.9-.42,1.8-.9,3.59-1.34,5.38a3.43,3.43,0,0,0-.05.56l.27.12.76-1.14c.36,1.26.71,2.44,1.08,3.72l1.42-1c0,.67-.09,1.12-.13,1.57l.23,0L46.31,59a29,29,0,0,1-.08,3.86c-.08,1.22-.13,2.39,1.62,2.33a.38.38,0,0,0,.14-.06c.27-.69.52-1.34.77-2l.4.13c-.18.7-.36,1.4-.55,2.1l.2.06,1.25-2.51.33.08A26.36,26.36,0,0,0,50.32,72c.43,2.09.28,4.32,1.82,6.06.93,1,.79,2.23.65,3.48-.33,2.89-.71,5.79-.83,8.69-.08,2.21.87,4.31,1.2,6.51a32.31,32.31,0,0,1-.15,9.82,45.22,45.22,0,0,1-.92,4.46c-.48,1.88-1.06,3.72-1.65,5.74h1.84c-.15,1.21-.14,1.41.89,1.65a29.65,29.65,0,0,0,5.35.92,39.87,39.87,0,0,0,5.23-.38c.07-.11.16-.18.16-.25.11-2.65.31-5.3.25-7.94,0-1.55-.6-3.09-.73-4.65a9.93,9.93,0,0,1,.27-3.44c.51-1.83,1.09-3.7.45-5.48a8,8,0,0,1,.06-4.55c.54-2.87,1-5.76,1.45-8.65a1.4,1.4,0,0,1,1.77-1.27c2,.36,4.07.77,6.12,1a48.68,48.68,0,0,0,19.22-2c2.75-.81,5.45-1.79,8.23-2.72a4.39,4.39,0,0,1,.07.61,11.33,11.33,0,0,0,1.76,5.74c1.33,2.22,2.88,4.4,2.44,7.25a2.71,2.71,0,0,0,.23,1.12c.8,2.67,1.68,5.31,2.4,8a5.72,5.72,0,0,1,0,2.57q-.76,3.67-1.76,7.29c-.42,1.54-1,3-1.53,4.54-.61,1.82-1.2,3.64-1.79,5.45,1.12.12,2,.14,2.74.3.58.11,1.12.54,1.69.56q3,.15,6,.09c1.64,0,3.27-.22,4.92-.34l-.37-2.05c-.32-1.61-.66-3.22-1-4.84a10.8,10.8,0,0,1-.21-2c0-3.17,0-6.34.06-9.52a14.26,14.26,0,0,1,.09-3.76,13.62,13.62,0,0,0,.63-5.25c-.37-2.91-.74-5.83-1.14-9,.55-.64,1.34-1.58,2.41-2.82-.1,1.12-.11,1.87-.24,2.6a30.07,30.07,0,0,0-.39,9.08c.18,1.42.29,2.86.35,4.29.14,3.47.23,7,.38,10.42a2.73,2.73,0,0,0,.43.94l.33-.09v-3h.16l.62,4.73.36,0L120,105l.35,0c.54,3.6.38,7.29,1.18,10.83l.79-7.57.46,0v3l.26,0v-4.7l.24,0c.35.83.7,1.66,1.06,2.49l.35-.09-.42-8.94h.15l1,7.76c-.1-4.56-1.15-9.08-.27-13.66l.38,7.43.29,0c-.07-.83-.14-1.67-.2-2.5-.19-2.68-.57-5.37-.5-8,.07-2.47.63-4.93.94-7.4.42-3.35,1-6.7,1.16-10.07A17.3,17.3,0,0,0,123.91,61.68Z"/>
  </g>
</svg>
