<svg xmlns="http://www.w3.org/2000/svg" width="570" height="239" viewBox="0 0 570 239">
  <g id="Group_208" data-name="Group 208" transform="translate(-3795 1827)">
    <g id="Group_207" data-name="Group 207" transform="translate(3540 -781)">
      <g id="Group_131" data-name="Group 131">
        <g id="Group_130" data-name="Group 130">
          <path id="Path_601" data-name="Path 601" d="M798.164-1038A28.122,28.122,0,0,0,817-1019.164v185.328A28.122,28.122,0,0,0,798.164-815H281.836A28.122,28.122,0,0,0,263-833.836v-185.328A28.122,28.122,0,0,0,281.836-1038H798.164m6.836-8H275a20,20,0,0,1-20,20v199a20,20,0,0,1,20,20H805a20,20,0,0,1,20-20v-199a20,20,0,0,1-20-20Z" fill="#fff"/>
        </g>
      </g>
      <g id="Group_158" data-name="Group 158">
        <g id="Group_132" data-name="Group 132">
          <path id="Path_602" data-name="Path 602" d="M288.826-992.655a3.845,3.845,0,0,1-.741-2.433,5.593,5.593,0,0,1,.939-3.161,6.01,6.01,0,0,1,2.738-2.182l1.983,1.4a5.128,5.128,0,0,0-3.279,2.83l.105.079a1.236,1.236,0,0,1,.821-.291,2.255,2.255,0,0,1,1.533.582,2.106,2.106,0,0,1,.661,1.666,2.3,2.3,0,0,1-.727,1.812,2.771,2.771,0,0,1-1.918.648A2.519,2.519,0,0,1,288.826-992.655Z" fill="#222"/>
        </g>
        <g id="Group_133" data-name="Group 133">
          <path id="Path_603" data-name="Path 603" d="M316.913-982.129h-4.02v-8.014l.132-5.368h-.053l-4.311,13.382h-3.676l-4.311-13.382h-.053l.133,5.368v8.014h-4.047v-17.455h6.48l2.751,8.886.978,3.7h.053l1.005-3.676,2.723-8.913h6.216Z" fill="#222"/>
        </g>
        <g id="Group_134" data-name="Group 134">
          <path id="Path_604" data-name="Path 604" d="M333.164-998.777a7.2,7.2,0,0,1,2.949,3.094,10.508,10.508,0,0,1,1.032,4.827,10.5,10.5,0,0,1-1.032,4.826,7.2,7.2,0,0,1-2.949,3.094,9.215,9.215,0,0,1-4.562,1.072,9.291,9.291,0,0,1-4.576-1.072,7.173,7.173,0,0,1-2.962-3.094,10.516,10.516,0,0,1-1.031-4.826,10.521,10.521,0,0,1,1.031-4.827,7.178,7.178,0,0,1,2.962-3.094,9.28,9.28,0,0,1,4.576-1.072A9.2,9.2,0,0,1,333.164-998.777Zm-7.472,3.874a6.818,6.818,0,0,0-1,4.047,6.816,6.816,0,0,0,1,4.046,3.381,3.381,0,0,0,2.91,1.375,3.346,3.346,0,0,0,2.9-1.375,6.887,6.887,0,0,0,.991-4.046,6.888,6.888,0,0,0-.991-4.047,3.348,3.348,0,0,0-2.9-1.375A3.384,3.384,0,0,0,325.692-994.9Z" fill="#222"/>
        </g>
        <g id="Group_135" data-name="Group 135">
          <path id="Path_605" data-name="Path 605" d="M351.175-999.108a9.292,9.292,0,0,1,3.265,2.407l-2.565,2.962a5.627,5.627,0,0,0-2.049-1.944,5.962,5.962,0,0,0-2.817-.622,3.916,3.916,0,0,0-2.115.476,1.448,1.448,0,0,0-.741,1.27,1.215,1.215,0,0,0,.78,1.071,10.149,10.149,0,0,0,2.658.754,11.641,11.641,0,0,1,5.171,1.93,4.362,4.362,0,0,1,1.547,3.571,4.535,4.535,0,0,1-.953,2.882,5.875,5.875,0,0,1-2.631,1.852,10.68,10.68,0,0,1-3.8.635,13.363,13.363,0,0,1-4.814-.728,8.332,8.332,0,0,1-3.2-2.235L341.244-988a5.9,5.9,0,0,0,2.327,2.01,7.585,7.585,0,0,0,3.12.582,4.57,4.57,0,0,0,2.183-.41,1.287,1.287,0,0,0,.727-1.177q0-.608-.78-.992a11.132,11.132,0,0,0-2.605-.727,19.547,19.547,0,0,1-3.716-1.071,5.445,5.445,0,0,1-2.274-1.68,4.32,4.32,0,0,1-.807-2.7,5.078,5.078,0,0,1,.886-2.935,5.788,5.788,0,0,1,2.591-2.023,10.237,10.237,0,0,1,4.034-.728A10.918,10.918,0,0,1,351.175-999.108Z" fill="#222"/>
        </g>
        <g id="Group_136" data-name="Group 136">
          <path id="Path_606" data-name="Path 606" d="M368.207-999.108a9.3,9.3,0,0,1,3.266,2.407l-2.566,2.962a5.62,5.62,0,0,0-2.049-1.944,5.962,5.962,0,0,0-2.817-.622,3.916,3.916,0,0,0-2.115.476,1.45,1.45,0,0,0-.74,1.27,1.214,1.214,0,0,0,.779,1.071,10.149,10.149,0,0,0,2.658.754,11.636,11.636,0,0,1,5.171,1.93,4.362,4.362,0,0,1,1.547,3.571,4.54,4.54,0,0,1-.952,2.882,5.883,5.883,0,0,1-2.632,1.852,10.676,10.676,0,0,1-3.795.635,13.363,13.363,0,0,1-4.814-.728,8.339,8.339,0,0,1-3.2-2.235L358.276-988a5.9,5.9,0,0,0,2.328,2.01,7.578,7.578,0,0,0,3.12.582,4.569,4.569,0,0,0,2.182-.41,1.285,1.285,0,0,0,.727-1.177q0-.608-.779-.992a11.159,11.159,0,0,0-2.606-.727,19.546,19.546,0,0,1-3.716-1.071,5.452,5.452,0,0,1-2.274-1.68,4.321,4.321,0,0,1-.807-2.7,5.078,5.078,0,0,1,.886-2.935,5.786,5.786,0,0,1,2.592-2.023,10.228,10.228,0,0,1,4.033-.728A10.919,10.919,0,0,1,368.207-999.108Z" fill="#222"/>
        </g>
        <g id="Group_137" data-name="Group 137">
          <path id="Path_607" data-name="Path 607" d="M387.474-985.646v3.517h-13.3v-17.455h4.549v13.938Z" fill="#222"/>
        </g>
        <g id="Group_138" data-name="Group 138">
          <path id="Path_608" data-name="Path 608" d="M404.029-985.646v3.517H390.092v-17.455h13.594v3.518h-9.045v3.544h7.193v3.3h-7.193v3.571Z" fill="#222"/>
        </g>
        <g id="Group_139" data-name="Group 139">
          <path id="Path_609" data-name="Path 609" d="M415.8-988.5v6.374H411.25V-988.5l-6.162-11.081H409.8l2.46,4.787,1.3,2.909,1.322-2.909,2.46-4.787h4.628Z" fill="#222"/>
        </g>
        <g id="Group_140" data-name="Group 140">
          <path id="Path_610" data-name="Path 610" d="M428.32-999.425a3.887,3.887,0,0,1,.728,2.433,5.6,5.6,0,0,1-.939,3.16,6,6,0,0,1-2.737,2.182l-1.983-1.4a5.127,5.127,0,0,0,3.3-2.829l-.132-.08a1.019,1.019,0,0,1-.793.291,2.325,2.325,0,0,1-1.547-.569,2.035,2.035,0,0,1-.675-1.653,2.331,2.331,0,0,1,.727-1.837,2.77,2.77,0,0,1,1.917-.648A2.512,2.512,0,0,1,428.32-999.425Z" fill="#222"/>
        </g>
        <g id="Group_141" data-name="Group 141">
          <path id="Path_611" data-name="Path 611" d="M452.216-983.173a8.78,8.78,0,0,1-4.893,1.309,9.29,9.29,0,0,1-4.575-1.072,7.172,7.172,0,0,1-2.962-3.094,10.516,10.516,0,0,1-1.031-4.826,10.54,10.54,0,0,1,1.031-4.814,7.166,7.166,0,0,1,2.962-3.107,9.222,9.222,0,0,1,4.549-1.072,9.172,9.172,0,0,1,4.84,1.2,5.753,5.753,0,0,1,2.618,3.61l-3.993,1.613a3.99,3.99,0,0,0-1.138-2.222,3.317,3.317,0,0,0-2.168-.634,3.54,3.54,0,0,0-2.989,1.388,6.569,6.569,0,0,0-1.058,4.034,6.757,6.757,0,0,0,1.019,4.033,3.427,3.427,0,0,0,2.948,1.388,3.546,3.546,0,0,0,2.3-.688,3.678,3.678,0,0,0,1.163-2.168l4.126,1.164A6.647,6.647,0,0,1,452.216-983.173Z" fill="#222"/>
        </g>
        <g id="Group_142" data-name="Group 142">
          <path id="Path_612" data-name="Path 612" d="M469.9-998.777a7.206,7.206,0,0,1,2.949,3.094,10.52,10.52,0,0,1,1.031,4.827,10.516,10.516,0,0,1-1.031,4.826,7.2,7.2,0,0,1-2.949,3.094,9.218,9.218,0,0,1-4.563,1.072,9.287,9.287,0,0,1-4.575-1.072,7.167,7.167,0,0,1-2.962-3.094,10.5,10.5,0,0,1-1.031-4.826,10.508,10.508,0,0,1,1.031-4.827,7.172,7.172,0,0,1,2.962-3.094,9.276,9.276,0,0,1,4.575-1.072A9.207,9.207,0,0,1,469.9-998.777Zm-7.472,3.874a6.817,6.817,0,0,0-1.005,4.047,6.816,6.816,0,0,0,1.005,4.046,3.379,3.379,0,0,0,2.909,1.375,3.345,3.345,0,0,0,2.9-1.375,6.879,6.879,0,0,0,.992-4.046,6.881,6.881,0,0,0-.992-4.047,3.347,3.347,0,0,0-2.9-1.375A3.382,3.382,0,0,0,462.424-994.9Z" fill="#222"/>
        </g>
        <g id="Group_143" data-name="Group 143">
          <path id="Path_613" data-name="Path 613" d="M497.2-982.129h-4.02v-8.014l.132-5.368h-.053l-4.311,13.382h-3.676l-4.311-13.382h-.053l.133,5.368v8.014H477v-17.455h6.48l2.751,8.886.978,3.7h.053l1.005-3.676,2.723-8.913H497.2Z" fill="#222"/>
        </g>
        <g id="Group_144" data-name="Group 144">
          <path id="Path_614" data-name="Path 614" d="M515-985.646v3.517H501.063v-17.455h13.594v3.518h-9.045v3.544h7.194v3.3h-7.194v3.571Z" fill="#222"/>
        </g>
        <g id="Group_145" data-name="Group 145">
          <path id="Path_615" data-name="Path 615" d="M528.82-999.108a9.3,9.3,0,0,1,3.266,2.407l-2.565,2.962a5.635,5.635,0,0,0-2.049-1.944,5.966,5.966,0,0,0-2.818-.622,3.916,3.916,0,0,0-2.115.476,1.45,1.45,0,0,0-.74,1.27,1.216,1.216,0,0,0,.779,1.071,10.161,10.161,0,0,0,2.658.754,11.636,11.636,0,0,1,5.171,1.93,4.362,4.362,0,0,1,1.547,3.571,4.534,4.534,0,0,1-.952,2.882,5.884,5.884,0,0,1-2.632,1.852,10.676,10.676,0,0,1-3.795.635,13.357,13.357,0,0,1-4.813-.728,8.324,8.324,0,0,1-3.2-2.235L518.89-988a5.893,5.893,0,0,0,2.327,2.01,7.578,7.578,0,0,0,3.12.582,4.573,4.573,0,0,0,2.183-.41,1.286,1.286,0,0,0,.726-1.177q0-.608-.779-.992a11.159,11.159,0,0,0-2.606-.727,19.513,19.513,0,0,1-3.715-1.071,5.449,5.449,0,0,1-2.275-1.68,4.321,4.321,0,0,1-.807-2.7,5.078,5.078,0,0,1,.886-2.935,5.786,5.786,0,0,1,2.592-2.023,10.232,10.232,0,0,1,4.033-.728A10.919,10.919,0,0,1,528.82-999.108Z" fill="#222"/>
        </g>
        <g id="Group_146" data-name="Group 146">
          <path id="Path_616" data-name="Path 616" d="M546.9-996.066v3.7h7.194v3.517H546.9v6.718h-4.548v-17.455h13.567v3.518Z" fill="#222"/>
        </g>
        <g id="Group_147" data-name="Group 147">
          <path id="Path_617" data-name="Path 617" d="M565.727-988.5H563v6.374h-4.47v-17.455h8.331a7.405,7.405,0,0,1,4.879,1.428,5.075,5.075,0,0,1,1.706,4.126,5.483,5.483,0,0,1-.872,3.174,5.089,5.089,0,0,1-2.539,1.877l4.442,6.85h-5.024ZM563-991.729H566.1a3.39,3.39,0,0,0,2.116-.529,2.043,2.043,0,0,0,.661-1.693,2.01,2.01,0,0,0-.661-1.666,3.39,3.39,0,0,0-2.116-.529H563Z" fill="#222"/>
        </g>
        <g id="Group_148" data-name="Group 148">
          <path id="Path_618" data-name="Path 618" d="M588.987-998.777a7.2,7.2,0,0,1,2.95,3.094,10.52,10.52,0,0,1,1.031,4.827,10.516,10.516,0,0,1-1.031,4.826,7.2,7.2,0,0,1-2.95,3.094,9.212,9.212,0,0,1-4.562,1.072,9.287,9.287,0,0,1-4.575-1.072,7.167,7.167,0,0,1-2.962-3.094,10.5,10.5,0,0,1-1.032-4.826,10.508,10.508,0,0,1,1.032-4.827,7.172,7.172,0,0,1,2.962-3.094,9.276,9.276,0,0,1,4.575-1.072A9.2,9.2,0,0,1,588.987-998.777Zm-7.471,3.874a6.817,6.817,0,0,0-1.005,4.047,6.816,6.816,0,0,0,1.005,4.046,3.379,3.379,0,0,0,2.909,1.375,3.346,3.346,0,0,0,2.9-1.375,6.887,6.887,0,0,0,.992-4.046,6.888,6.888,0,0,0-.992-4.047,3.349,3.349,0,0,0-2.9-1.375A3.382,3.382,0,0,0,581.516-994.9Z" fill="#222"/>
        </g>
        <g id="Group_149" data-name="Group 149">
          <path id="Path_619" data-name="Path 619" d="M616.295-982.129h-4.021v-8.014l.133-5.368h-.053l-4.311,13.382h-3.676l-4.311-13.382H600l.133,5.368v8.014h-4.047v-17.455h6.479l2.751,8.886.979,3.7h.053l1-3.676,2.724-8.913h6.216Z" fill="#222"/>
        </g>
        <g id="Group_150" data-name="Group 150">
          <path id="Path_620" data-name="Path 620" d="M641.948-996.066h-5.686v13.937h-4.549v-13.937H626v-3.518h15.948Z" fill="#222"/>
        </g>
        <g id="Group_151" data-name="Group 151">
          <path id="Path_621" data-name="Path 621" d="M653-982.129H647.9l-5.024-17.455h4.893l2.882,13.885,3.148-13.885h4.125l3.2,13.858L664-999.584h4.708l-5.052,17.455h-4.945l-2.063-8.463-.794-4.258h-.052l-.767,4.258Z" fill="#222"/>
        </g>
        <g id="Group_152" data-name="Group 152">
          <path id="Path_622" data-name="Path 622" d="M682.9-998.777a7.2,7.2,0,0,1,2.95,3.094,10.52,10.52,0,0,1,1.031,4.827,10.516,10.516,0,0,1-1.031,4.826,7.2,7.2,0,0,1-2.95,3.094,9.212,9.212,0,0,1-4.562,1.072,9.287,9.287,0,0,1-4.575-1.072,7.167,7.167,0,0,1-2.962-3.094,10.5,10.5,0,0,1-1.031-4.826,10.508,10.508,0,0,1,1.031-4.827,7.172,7.172,0,0,1,2.962-3.094,9.276,9.276,0,0,1,4.575-1.072A9.2,9.2,0,0,1,682.9-998.777ZM675.43-994.9a6.817,6.817,0,0,0-1.005,4.047,6.816,6.816,0,0,0,1.005,4.046,3.379,3.379,0,0,0,2.909,1.375,3.346,3.346,0,0,0,2.9-1.375,6.887,6.887,0,0,0,.992-4.046,6.888,6.888,0,0,0-.992-4.047,3.349,3.349,0,0,0-2.9-1.375A3.382,3.382,0,0,0,675.43-994.9Z" fill="#222"/>
        </g>
        <g id="Group_153" data-name="Group 153">
          <path id="Path_623" data-name="Path 623" d="M705.553-982.129h-5.1l-5.024-17.455h4.892L703.2-985.7l3.148-13.885h4.125l3.2,13.858,2.883-13.858h4.708l-5.052,17.455h-4.945l-2.063-8.463-.794-4.258h-.053l-.766,4.258Z" fill="#222"/>
        </g>
        <g id="Group_154" data-name="Group 154">
          <path id="Path_624" data-name="Path 624" d="M735.452-998.777a7.2,7.2,0,0,1,2.949,3.094,10.508,10.508,0,0,1,1.032,4.827,10.5,10.5,0,0,1-1.032,4.826,7.2,7.2,0,0,1-2.949,3.094,9.215,9.215,0,0,1-4.562,1.072,9.294,9.294,0,0,1-4.576-1.072,7.164,7.164,0,0,1-2.961-3.094,10.5,10.5,0,0,1-1.032-4.826,10.507,10.507,0,0,1,1.032-4.827,7.169,7.169,0,0,1,2.961-3.094,9.283,9.283,0,0,1,4.576-1.072A9.2,9.2,0,0,1,735.452-998.777ZM727.98-994.9a6.825,6.825,0,0,0-1,4.047,6.823,6.823,0,0,0,1,4.046,3.381,3.381,0,0,0,2.91,1.375,3.346,3.346,0,0,0,2.9-1.375,6.887,6.887,0,0,0,.991-4.046,6.888,6.888,0,0,0-.991-4.047,3.349,3.349,0,0,0-2.9-1.375A3.384,3.384,0,0,0,727.98-994.9Z" fill="#222"/>
        </g>
        <g id="Group_155" data-name="Group 155">
          <path id="Path_625" data-name="Path 625" d="M749.746-988.5h-2.724v6.374h-4.469v-17.455h8.331a7.405,7.405,0,0,1,4.879,1.428,5.078,5.078,0,0,1,1.706,4.126,5.483,5.483,0,0,1-.872,3.174,5.089,5.089,0,0,1-2.539,1.877l4.442,6.85h-5.024Zm-2.724-3.226h3.094a3.386,3.386,0,0,0,2.116-.529,2.04,2.04,0,0,0,.662-1.693,2.008,2.008,0,0,0-.662-1.666,3.386,3.386,0,0,0-2.116-.529h-3.094Z" fill="#222"/>
        </g>
        <g id="Group_156" data-name="Group 156">
          <path id="Path_626" data-name="Path 626" d="M774.462-997.323a8.944,8.944,0,0,1,2.182,6.467,8.942,8.942,0,0,1-2.182,6.466,8.33,8.33,0,0,1-6.281,2.261h-7.406v-17.455h7.406A8.326,8.326,0,0,1,774.462-997.323Zm-3.5,10.433a6.379,6.379,0,0,0,1.031-3.966,6.385,6.385,0,0,0-1.031-3.968,3.841,3.841,0,0,0-3.227-1.322h-2.407v10.579h2.407A3.839,3.839,0,0,0,770.958-986.89Z" fill="#222"/>
        </g>
        <g id="Group_157" data-name="Group 157">
          <path id="Path_627" data-name="Path 627" d="M790.674-999.108a9.292,9.292,0,0,1,3.265,2.407l-2.565,2.962a5.627,5.627,0,0,0-2.049-1.944,5.962,5.962,0,0,0-2.817-.622,3.916,3.916,0,0,0-2.115.476,1.449,1.449,0,0,0-.741,1.27,1.216,1.216,0,0,0,.78,1.071,10.149,10.149,0,0,0,2.658.754,11.641,11.641,0,0,1,5.171,1.93,4.362,4.362,0,0,1,1.547,3.571,4.535,4.535,0,0,1-.953,2.882,5.874,5.874,0,0,1-2.631,1.852,10.68,10.68,0,0,1-3.795.635,13.363,13.363,0,0,1-4.814-.728,8.332,8.332,0,0,1-3.2-2.235L780.743-988a5.9,5.9,0,0,0,2.327,2.01,7.585,7.585,0,0,0,3.12.582,4.57,4.57,0,0,0,2.183-.41,1.287,1.287,0,0,0,.727-1.177q0-.608-.78-.992a11.133,11.133,0,0,0-2.6-.727A19.547,19.547,0,0,1,782-989.785a5.452,5.452,0,0,1-2.274-1.68,4.321,4.321,0,0,1-.807-2.7,5.078,5.078,0,0,1,.886-2.935,5.786,5.786,0,0,1,2.592-2.023,10.228,10.228,0,0,1,4.033-.728A10.919,10.919,0,0,1,790.674-999.108Z" fill="#222"/>
        </g>
      </g>
      <g id="Group_160" data-name="Group 160">
        <g id="Group_159" data-name="Group 159">
          <path id="Path_628" data-name="Path 628" d="M561.352-879.032a22.16,22.16,0,0,1-6.522-.828,18.566,18.566,0,0,1-5.9-3.45,16.11,16.11,0,0,1-5.694,3.174,23.593,23.593,0,0,1-7.419,1.1q-7.178,0-11.558-3.243a10.842,10.842,0,0,1-4.451-9.109,12.924,12.924,0,0,1,2.138-7.074q2.139-3.347,7.178-5.21a23.772,23.772,0,0,1-3.727-5.624,13.01,13.01,0,0,1-.966-5.073,10.979,10.979,0,0,1,1.552-5.624,11.483,11.483,0,0,1,4.659-4.313,16.123,16.123,0,0,1,7.66-1.656q6.555,0,10.11,3.036a9.726,9.726,0,0,1,3.554,7.729q0,8.488-9.868,12.491,2.136,2.348,3.243,3.589l4.624,4.968a19.231,19.231,0,0,0,1.587-8.971l7.8.207a20.8,20.8,0,0,1-4.416,13.526,11.265,11.265,0,0,0,2.9,1.691,8.373,8.373,0,0,0,2.967.517,13.5,13.5,0,0,0,1.587-.069Zm-17.667-9.109-4-4.14q-4.14-4.278-6-6.281a10.834,10.834,0,0,0-3,3.072,6.564,6.564,0,0,0-.794,3.278,4.743,4.743,0,0,0,1.967,3.933,8.177,8.177,0,0,0,5.14,1.518A16.288,16.288,0,0,0,543.685-888.141Zm-8.144-28.949a4.32,4.32,0,0,0-1.1,3.139,5.892,5.892,0,0,0,.724,2.761,25.66,25.66,0,0,0,2.933,4,11.731,11.731,0,0,0,3.657-3.589,7.7,7.7,0,0,0,.9-3.726,3.531,3.531,0,0,0-1.069-2.761,4.325,4.325,0,0,0-3-.966A4.028,4.028,0,0,0,535.541-917.09Z" fill="#fff"/>
        </g>
      </g>
      <g id="Group_167" data-name="Group 167">
        <g id="Group_161" data-name="Group 161">
          <path id="Path_629" data-name="Path 629" d="M295.086-905.737a8.14,8.14,0,0,1-1.568-5.152,11.835,11.835,0,0,1,1.988-6.692,12.7,12.7,0,0,1,5.8-4.62l4.2,2.968q-5.6,2.184-6.944,5.992l.223.168a2.608,2.608,0,0,1,1.737-.616,4.769,4.769,0,0,1,3.248,1.232,4.454,4.454,0,0,1,1.4,3.528,4.873,4.873,0,0,1-1.54,3.836,5.875,5.875,0,0,1-4.061,1.372A5.339,5.339,0,0,1,295.086-905.737Z" fill="#222"/>
        </g>
        <g id="Group_162" data-name="Group 162">
          <path id="Path_630" data-name="Path 630" d="M356.8-883.449h-8.512v-16.968l.279-11.368h-.111l-9.128,28.336h-7.784l-9.128-28.336H322.3l.28,11.368v16.968h-8.568v-36.96h13.719l5.825,18.816,2.072,7.84h.112l2.128-7.784,5.768-18.872H356.8Z" fill="#222"/>
        </g>
        <g id="Group_163" data-name="Group 163">
          <path id="Path_631" data-name="Path 631" d="M393.449-918.7a15.246,15.246,0,0,1,6.244,6.552,22.256,22.256,0,0,1,2.184,10.22,22.256,22.256,0,0,1-2.184,10.22,15.247,15.247,0,0,1-6.244,6.552,19.51,19.51,0,0,1-9.66,2.268,19.666,19.666,0,0,1-9.688-2.268,15.194,15.194,0,0,1-6.272-6.552,22.256,22.256,0,0,1-2.184-10.22,22.256,22.256,0,0,1,2.184-10.22A15.194,15.194,0,0,1,374.1-918.7a19.665,19.665,0,0,1,9.688-2.268A19.509,19.509,0,0,1,393.449-918.7Zm-15.82,8.2q-2.129,2.911-2.128,8.568t2.128,8.568a7.158,7.158,0,0,0,6.16,2.912,7.084,7.084,0,0,0,6.132-2.912q2.1-2.911,2.1-8.568t-2.1-8.568a7.086,7.086,0,0,0-6.132-2.912A7.16,7.16,0,0,0,377.629-910.5Z" fill="#222"/>
        </g>
        <g id="Group_164" data-name="Group 164">
          <path id="Path_632" data-name="Path 632" d="M433.825-919.4a19.7,19.7,0,0,1,6.916,5.1l-5.432,6.272a11.949,11.949,0,0,0-4.34-4.116,12.62,12.62,0,0,0-5.964-1.316,8.3,8.3,0,0,0-4.481,1.008,3.069,3.069,0,0,0-1.567,2.688,2.574,2.574,0,0,0,1.651,2.268,21.567,21.567,0,0,0,5.628,1.6q7.674,1.4,10.949,4.088a9.231,9.231,0,0,1,3.276,7.56,9.6,9.6,0,0,1-2.017,6.1,12.47,12.47,0,0,1-5.571,3.92,22.606,22.606,0,0,1-8.036,1.344,28.3,28.3,0,0,1-10.192-1.54,17.629,17.629,0,0,1-6.776-4.732l4.928-6.72a12.485,12.485,0,0,0,4.928,4.256,16.065,16.065,0,0,0,6.608,1.232,9.659,9.659,0,0,0,4.62-.868,2.725,2.725,0,0,0,1.54-2.492q0-1.289-1.652-2.1a23.564,23.564,0,0,0-5.516-1.54,41.3,41.3,0,0,1-7.868-2.268,11.545,11.545,0,0,1-4.816-3.556,9.151,9.151,0,0,1-1.708-5.712,10.754,10.754,0,0,1,1.876-6.216,12.249,12.249,0,0,1,5.488-4.284,21.664,21.664,0,0,1,8.54-1.54A23.133,23.133,0,0,1,433.825-919.4Z" fill="#222"/>
        </g>
        <g id="Group_165" data-name="Group 165">
          <path id="Path_633" data-name="Path 633" d="M472.129-919.4a19.714,19.714,0,0,1,6.916,5.1l-5.433,6.272a11.933,11.933,0,0,0-4.34-4.116,12.616,12.616,0,0,0-5.963-1.316,8.3,8.3,0,0,0-4.481,1.008,3.068,3.068,0,0,0-1.567,2.688,2.574,2.574,0,0,0,1.651,2.268,21.567,21.567,0,0,0,5.628,1.6q7.672,1.4,10.948,4.088a9.229,9.229,0,0,1,3.277,7.56,9.6,9.6,0,0,1-2.017,6.1,12.475,12.475,0,0,1-5.571,3.92,22.606,22.606,0,0,1-8.036,1.344,28.313,28.313,0,0,1-10.193-1.54,17.633,17.633,0,0,1-6.775-4.732l4.928-6.72a12.482,12.482,0,0,0,4.927,4.256,16.07,16.07,0,0,0,6.609,1.232,9.664,9.664,0,0,0,4.62-.868,2.725,2.725,0,0,0,1.54-2.492q0-1.289-1.652-2.1a23.564,23.564,0,0,0-5.516-1.54,41.3,41.3,0,0,1-7.868-2.268,11.549,11.549,0,0,1-4.817-3.556,9.157,9.157,0,0,1-1.708-5.712,10.754,10.754,0,0,1,1.876-6.216,12.247,12.247,0,0,1,5.489-4.284,21.66,21.66,0,0,1,8.54-1.54A23.137,23.137,0,0,1,472.129-919.4Z" fill="#222"/>
        </g>
        <g id="Group_166" data-name="Group 166">
          <path id="Path_634" data-name="Path 634" d="M496.32-920.073a8.244,8.244,0,0,1,1.54,5.152,11.84,11.84,0,0,1-1.988,6.692,12.7,12.7,0,0,1-5.8,4.62l-4.2-2.968q5.544-2.071,7-5.992l-.28-.168a2.157,2.157,0,0,1-1.68.616,4.937,4.937,0,0,1-3.276-1.2,4.32,4.32,0,0,1-1.428-3.5,4.94,4.94,0,0,1,1.54-3.892,5.874,5.874,0,0,1,4.061-1.372A5.325,5.325,0,0,1,496.32-920.073Z" fill="#222"/>
        </g>
      </g>
      <g id="Group_174" data-name="Group 174">
        <g id="Group_168" data-name="Group 168">
          <path id="Path_635" data-name="Path 635" d="M590.918-905.737a8.14,8.14,0,0,1-1.568-5.152,11.835,11.835,0,0,1,1.988-6.692,12.7,12.7,0,0,1,5.8-4.62l4.2,2.968q-5.6,2.184-6.944,5.992l.223.168a2.608,2.608,0,0,1,1.737-.616,4.77,4.77,0,0,1,3.248,1.232,4.454,4.454,0,0,1,1.4,3.528,4.873,4.873,0,0,1-1.54,3.836,5.875,5.875,0,0,1-4.061,1.372A5.339,5.339,0,0,1,590.918-905.737Z" fill="#222"/>
        </g>
        <g id="Group_169" data-name="Group 169">
          <path id="Path_636" data-name="Path 636" d="M638.013-890.9v7.448H609.845v-36.96h9.632V-890.9Z" fill="#222"/>
        </g>
        <g id="Group_170" data-name="Group 170">
          <path id="Path_637" data-name="Path 637" d="M675.309-890.9v7.448H645.8v-36.96h28.784v7.448H655.429v7.5h15.232v7H655.429v7.56Z" fill="#222"/>
        </g>
        <g id="Group_171" data-name="Group 171">
          <path id="Path_638" data-name="Path 638" d="M704.54-891.793H691.772l-2.576,8.344h-9.688l12.992-36.96h11.536l12.937,36.96h-9.912Zm-2.016-6.552-2.688-8.848-1.624-5.824H698.1l-1.513,5.768-2.8,8.9Z" fill="#222"/>
        </g>
        <g id="Group_172" data-name="Group 172">
          <path id="Path_639" data-name="Path 639" d="M756.9-920.409v36.96h-9.631v-14.9H733.155v14.9h-9.632v-36.96h9.632v14.616h14.113v-14.616Z" fill="#222"/>
        </g>
        <g id="Group_173" data-name="Group 173">
          <path id="Path_640" data-name="Path 640" d="M776.136-920.073a8.25,8.25,0,0,1,1.54,5.152,11.84,11.84,0,0,1-1.988,6.692,12.7,12.7,0,0,1-5.8,4.62l-4.2-2.968q5.546-2.071,7-5.992l-.28-.168a2.156,2.156,0,0,1-1.68.616,4.936,4.936,0,0,1-3.276-1.2,4.323,4.323,0,0,1-1.428-3.5,4.939,4.939,0,0,1,1.54-3.892,5.875,5.875,0,0,1,4.061-1.372A5.328,5.328,0,0,1,776.136-920.073Z" fill="#222"/>
        </g>
      </g>
      <g id="Group_187" data-name="Group 187">
        <g id="Group_175" data-name="Group 175">
          <path id="Path_641" data-name="Path 641" d="M317.709-855.733h-5.73l-1.218,3.631H307.58l5.437-14.888h3.722l5.437,14.888H318.95Zm-.767-2.3-1.4-4.2-.677-2.256h-.046l-.631,2.21-1.444,4.241Z" fill="#222"/>
        </g>
        <g id="Group_176" data-name="Group 176">
          <path id="Path_642" data-name="Path 642" d="M340.493-862.05a6.609,6.609,0,0,1,1.286,4.331,6.524,6.524,0,0,1-1.286,4.3,4.356,4.356,0,0,1-3.541,1.545,4.015,4.015,0,0,1-2.312-.666,4.107,4.107,0,0,1-1.478-1.793l-.113,2.233h-2.73v-16.219h3.091v6.79a3.909,3.909,0,0,1,1.421-1.523,3.986,3.986,0,0,1,2.121-.552A4.341,4.341,0,0,1,340.493-862.05Zm-2.5,6.9a4.159,4.159,0,0,0,.7-2.594,4.156,4.156,0,0,0-.7-2.594,2.339,2.339,0,0,0-1.962-.9,2.325,2.325,0,0,0-1.828.79,3.579,3.579,0,0,0-.789,2.21v.993a3.562,3.562,0,0,0,.789,2.222,2.341,2.341,0,0,0,1.828.778A2.338,2.338,0,0,0,337.989-855.147Z" fill="#222"/>
        </g>
        <g id="Group_177" data-name="Group 177">
          <path id="Path_643" data-name="Path 643" d="M353.95-862.05a5.9,5.9,0,0,1,1.523,4.309,5.9,5.9,0,0,1-1.523,4.308,5.676,5.676,0,0,1-4.253,1.557,5.675,5.675,0,0,1-4.252-1.557,5.9,5.9,0,0,1-1.522-4.308,5.9,5.9,0,0,1,1.522-4.309,5.675,5.675,0,0,1,4.252-1.556A5.676,5.676,0,0,1,353.95-862.05Zm-6.249,1.635a4.338,4.338,0,0,0-.688,2.674,4.333,4.333,0,0,0,.688,2.673,2.37,2.37,0,0,0,2,.891,2.372,2.372,0,0,0,2-.891,4.339,4.339,0,0,0,.688-2.673,4.344,4.344,0,0,0-.688-2.674,2.374,2.374,0,0,0-2-.891A2.372,2.372,0,0,0,347.7-860.415Z" fill="#222"/>
        </g>
        <g id="Group_178" data-name="Group 178">
          <path id="Path_644" data-name="Path 644" d="M367.756-853.41a2.817,2.817,0,0,1,1,2.324,3.147,3.147,0,0,1-1.67,2.819,8.386,8.386,0,0,1-4.4,1.016,9.06,9.06,0,0,1-4.184-.745,2.257,2.257,0,0,1-1.365-2.03,1.9,1.9,0,0,1,.519-1.331,2.987,2.987,0,0,1,1.533-.812,2.925,2.925,0,0,1-1.217-.892,2.14,2.14,0,0,1-.452-1.364,2.163,2.163,0,0,1,.474-1.4,2.844,2.844,0,0,1,1.309-.88A3.479,3.479,0,0,1,358-857.978a3.509,3.509,0,0,1-.451-1.793,3.306,3.306,0,0,1,1.388-2.809,6.221,6.221,0,0,1,3.778-1.026,8.5,8.5,0,0,1,2.278.293,3.8,3.8,0,0,1,1.14-2.087,3.01,3.01,0,0,1,2.289-.665l.406,2.21a3.66,3.66,0,0,0-.473-.022,2.948,2.948,0,0,0-1.388.293,1.679,1.679,0,0,0-.778.79,3.5,3.5,0,0,1,1.275,1.263,3.475,3.475,0,0,1,.439,1.76,3.285,3.285,0,0,1-1.387,2.786,6.269,6.269,0,0,1-3.8,1.026,9.491,9.491,0,0,1-2.03-.2,1,1,0,0,0-.88,1.015.787.787,0,0,0,.339.688,1.631,1.631,0,0,0,.947.237H364.9A4.438,4.438,0,0,1,367.756-853.41Zm-2.38,3.643q.856-.395.857-1a.774.774,0,0,0-.395-.71,2.641,2.641,0,0,0-1.3-.237h-3.068q-1.872,0-1.872,1.015,0,.632.835.981a6.809,6.809,0,0,0,2.5.35A6,6,0,0,0,365.376-849.767Zm-4.14-11.38a1.735,1.735,0,0,0-.575,1.353,1.765,1.765,0,0,0,.575,1.376,2.123,2.123,0,0,0,1.478.519,2.155,2.155,0,0,0,1.5-.519,1.762,1.762,0,0,0,.575-1.376,1.732,1.732,0,0,0-.575-1.353,2.151,2.151,0,0,0-1.5-.52A2.119,2.119,0,0,0,361.236-861.147Z" fill="#222"/>
        </g>
        <g id="Group_179" data-name="Group 179">
          <path id="Path_645" data-name="Path 645" d="M387.021-862.05a5.9,5.9,0,0,1,1.523,4.309,5.9,5.9,0,0,1-1.523,4.308,5.675,5.675,0,0,1-4.252,1.557,5.673,5.673,0,0,1-4.252-1.557,5.892,5.892,0,0,1-1.523-4.308,5.9,5.9,0,0,1,1.523-4.309,5.672,5.672,0,0,1,4.252-1.556A5.675,5.675,0,0,1,387.021-862.05Zm-6.249,1.635a4.338,4.338,0,0,0-.688,2.674,4.333,4.333,0,0,0,.688,2.673,2.37,2.37,0,0,0,2,.891,2.372,2.372,0,0,0,2-.891,4.34,4.34,0,0,0,.687-2.673,4.345,4.345,0,0,0-.687-2.674,2.374,2.374,0,0,0-2-.891A2.373,2.373,0,0,0,380.772-860.415Z" fill="#222"/>
        </g>
        <g id="Group_180" data-name="Group 180">
          <path id="Path_646" data-name="Path 646" d="M398.808-863.358l-.384,2.707A2.577,2.577,0,0,0,397-860.99a2.6,2.6,0,0,0-1.906.8,3.035,3.035,0,0,0-.8,2.245v5.842H391.2v-11.279h2.685l.2,2.211a3.455,3.455,0,0,1,3.5-2.436A2.453,2.453,0,0,1,398.808-863.358Z" fill="#222"/>
        </g>
        <g id="Group_181" data-name="Group 181">
          <path id="Path_647" data-name="Path 647" d="M406.365-854.042l1.805-1.85a2.676,2.676,0,0,0,1.3,1.365,4.9,4.9,0,0,0,2.086.395,3.509,3.509,0,0,0,1.534-.27.827.827,0,0,0,.542-.745c0-.255-.17-.474-.508-.654a7.015,7.015,0,0,0-1.748-.519,8.782,8.782,0,0,1-3.644-1.365,2.787,2.787,0,0,1-1.048-2.29,3.046,3.046,0,0,1,.586-1.782,4.055,4.055,0,0,1,1.737-1.342,6.792,6.792,0,0,1,2.752-.507,6.99,6.99,0,0,1,3.068.575,4.859,4.859,0,0,1,1.963,1.816l-1.918,1.624a3.371,3.371,0,0,0-1.229-1.331,3.594,3.594,0,0,0-1.838-.429,2.978,2.978,0,0,0-1.478.316.9.9,0,0,0-.553.767.914.914,0,0,0,.541.789,6.745,6.745,0,0,0,1.918.587,8.7,8.7,0,0,1,3.486,1.3,2.664,2.664,0,0,1,1.026,2.222,2.975,2.975,0,0,1-1.343,2.538,6.458,6.458,0,0,1-3.8.959Q407.832-851.876,406.365-854.042Z" fill="#222"/>
        </g>
        <g id="Group_182" data-name="Group 182">
          <path id="Path_648" data-name="Path 648" d="M436.752-863.381,433.165-852.1h-3.587l-2.459-7.963-2.368,7.963h-3.564L417.6-863.381h3.271l2.256,8.8,2.526-8.8H428.7l2.528,8.8,2.255-8.8Z" fill="#222"/>
        </g>
        <g id="Group_183" data-name="Group 183">
          <path id="Path_649" data-name="Path 649" d="M449.723-854.064l-.226,1.872a3.229,3.229,0,0,1-1.466.316q-2.164,0-2.594-1.692A3.073,3.073,0,0,1,443.9-852.3a6.414,6.414,0,0,1-2.459.429,4,4,0,0,1-2.572-.745,2.591,2.591,0,0,1-.925-2.143q0-2.751,4.4-3.564l2.707-.519v-.541a1.99,1.99,0,0,0-.508-1.433,1.863,1.863,0,0,0-1.41-.53,2.917,2.917,0,0,0-1.692.452,2.373,2.373,0,0,0-.9,1.466l-2.459-1.038a3.736,3.736,0,0,1,1.624-2.3,5.88,5.88,0,0,1,3.294-.834,6.021,6.021,0,0,1,3.767,1.048,3.686,3.686,0,0,1,1.353,3.1v4.625a.9.9,0,0,0,.2.654.865.865,0,0,0,.632.2A2.689,2.689,0,0,0,449.723-854.064Zm-5.493-.395a1.477,1.477,0,0,0,.824-1.32v-1.173l-2.414.542a2.841,2.841,0,0,0-1.14.485,1.033,1.033,0,0,0-.372.846,1.009,1.009,0,0,0,.339.823,1.436,1.436,0,0,0,.947.282A3.508,3.508,0,0,0,444.23-854.459Z" fill="#222"/>
        </g>
        <g id="Group_184" data-name="Group 184">
          <path id="Path_650" data-name="Path 650" d="M468.594-862.546a3.954,3.954,0,0,1,1.139,3.045v7.4h-3.09v-6.79a2.455,2.455,0,0,0-.519-1.726,1.858,1.858,0,0,0-1.421-.552,2.274,2.274,0,0,0-1.782.789,3.221,3.221,0,0,0-.7,2.211v6.068h-3.09v-6.79a2.45,2.45,0,0,0-.52-1.726,1.883,1.883,0,0,0-1.443-.552,2.317,2.317,0,0,0-1.748.778,3.257,3.257,0,0,0-.733,2.312v5.978H451.6v-11.279h2.775l.09,2.008a3.914,3.914,0,0,1,1.545-1.669,4.335,4.335,0,0,1,2.2-.564,4.288,4.288,0,0,1,2.244.586,3.416,3.416,0,0,1,1.433,1.692,3.824,3.824,0,0,1,1.579-1.692,4.5,4.5,0,0,1,2.256-.586A4.055,4.055,0,0,1,468.594-862.546Z" fill="#222"/>
        </g>
        <g id="Group_185" data-name="Group 185">
          <path id="Path_651" data-name="Path 651" d="M483.087-862.062a6.531,6.531,0,0,1,1.286,4.3,6.611,6.611,0,0,1-1.286,4.331,4.343,4.343,0,0,1-3.541,1.557,3.981,3.981,0,0,1-2.121-.553A3.905,3.905,0,0,1,476-853.951v6.587h-3.091v-16.017h2.73l.113,2.234a4.114,4.114,0,0,1,1.477-1.794,4.02,4.02,0,0,1,2.313-.665A4.36,4.36,0,0,1,483.087-862.062Zm-2.5,6.915a4.159,4.159,0,0,0,.7-2.594,4.156,4.156,0,0,0-.7-2.594,2.339,2.339,0,0,0-1.962-.9,2.339,2.339,0,0,0-1.828.779,3.553,3.553,0,0,0-.789,2.221v.993a3.576,3.576,0,0,0,.789,2.211,2.327,2.327,0,0,0,1.828.789A2.338,2.338,0,0,0,480.583-855.147Z" fill="#222"/>
        </g>
        <g id="Group_186" data-name="Group 186">
          <path id="Path_652" data-name="Path 652" d="M489.709-855.057a1.735,1.735,0,0,1,.53,1.331,1.733,1.733,0,0,1-.53,1.331,2.013,2.013,0,0,1-1.433.5,2.042,2.042,0,0,1-1.432-.486,1.725,1.725,0,0,1-.531-1.342,1.726,1.726,0,0,1,.531-1.342,2.041,2.041,0,0,1,1.432-.485A2.017,2.017,0,0,1,489.709-855.057Z" fill="#222"/>
        </g>
      </g>
      <g id="Group_205" data-name="Group 205">
        <g id="Group_188" data-name="Group 188">
          <path id="Path_653" data-name="Path 653" d="M575.418-855.733h-5.73L568.47-852.1h-3.181l5.437-14.888h3.722l5.437,14.888h-3.226Zm-.767-2.3-1.4-4.2-.677-2.256h-.046l-.631,2.21-1.444,4.241Z" fill="#222"/>
        </g>
        <g id="Group_189" data-name="Group 189">
          <path id="Path_654" data-name="Path 654" d="M596.669-862.7a4.484,4.484,0,0,1,1.691,2.413l-2.887,1.038q-.406-2.052-2.188-2.053a2.433,2.433,0,0,0-2.042.914,4.3,4.3,0,0,0-.711,2.673,4.139,4.139,0,0,0,.723,2.651,2.438,2.438,0,0,0,2.008.891,2.169,2.169,0,0,0,2.345-2.008l2.8.9a4.055,4.055,0,0,1-1.68,2.481,5.824,5.824,0,0,1-3.417.925,5.833,5.833,0,0,1-4.332-1.545,5.864,5.864,0,0,1-1.534-4.32,5.89,5.89,0,0,1,1.523-4.321,5.67,5.67,0,0,1,4.229-1.544A5.817,5.817,0,0,1,596.669-862.7Z" fill="#222"/>
        </g>
        <g id="Group_190" data-name="Group 190">
          <path id="Path_655" data-name="Path 655" d="M603.91-855.688a1.968,1.968,0,0,0,.236,1.127,1.027,1.027,0,0,0,.87.316,3.41,3.41,0,0,0,.665-.056,4.811,4.811,0,0,0,.666-.192l-.272,2.143a2.926,2.926,0,0,1-.947.35,5.525,5.525,0,0,1-1.15.124,3.171,3.171,0,0,1-2.4-.8,3.64,3.64,0,0,1-.756-2.56v-13.084h3.091Z" fill="#222"/>
        </g>
        <g id="Group_191" data-name="Group 191">
          <path id="Path_656" data-name="Path 656" d="M618.505-856.568h-7.986a2.631,2.631,0,0,0,2.82,2.391,3.188,3.188,0,0,0,1.6-.361,1.927,1.927,0,0,0,.88-1.038l2.527.925a4.011,4.011,0,0,1-1.817,2.065,6.494,6.494,0,0,1-3.191.71,5.835,5.835,0,0,1-4.332-1.545,5.864,5.864,0,0,1-1.533-4.32,5.976,5.976,0,0,1,1.488-4.321,5.56,5.56,0,0,1,4.2-1.544,5.237,5.237,0,0,1,4.027,1.511,6.083,6.083,0,0,1,1.41,4.308A8.154,8.154,0,0,1,618.505-856.568Zm-7.163-4.106a3.272,3.272,0,0,0-.846,1.94h5.256a3.267,3.267,0,0,0-.856-1.929,2.408,2.408,0,0,0-1.76-.665A2.448,2.448,0,0,0,611.342-860.674Z" fill="#222"/>
        </g>
        <g id="Group_192" data-name="Group 192">
          <path id="Path_657" data-name="Path 657" d="M632.266-854.064l-.226,1.872a3.229,3.229,0,0,1-1.466.316q-2.164,0-2.595-1.692a3.066,3.066,0,0,1-1.533,1.263,6.413,6.413,0,0,1-2.459.429,4,4,0,0,1-2.572-.745,2.591,2.591,0,0,1-.925-2.143q0-2.751,4.4-3.564l2.707-.519v-.541a1.99,1.99,0,0,0-.508-1.433,1.863,1.863,0,0,0-1.41-.53,2.917,2.917,0,0,0-1.692.452,2.373,2.373,0,0,0-.9,1.466l-2.459-1.038a3.736,3.736,0,0,1,1.624-2.3,5.88,5.88,0,0,1,3.294-.834,6.021,6.021,0,0,1,3.767,1.048,3.686,3.686,0,0,1,1.353,3.1v4.625a.9.9,0,0,0,.2.654.865.865,0,0,0,.632.2A2.688,2.688,0,0,0,632.266-854.064Zm-5.493-.395a1.477,1.477,0,0,0,.824-1.32v-1.173l-2.414.542a2.841,2.841,0,0,0-1.14.485,1.033,1.033,0,0,0-.372.846,1.009,1.009,0,0,0,.339.823,1.436,1.436,0,0,0,.947.282A3.508,3.508,0,0,0,626.773-854.459Z" fill="#222"/>
        </g>
        <g id="Group_193" data-name="Group 193">
          <path id="Path_658" data-name="Path 658" d="M641.74-863.358l-.384,2.707a2.572,2.572,0,0,0-1.42-.339,2.6,2.6,0,0,0-1.907.8,3.034,3.034,0,0,0-.8,2.245v5.842h-3.091v-11.279h2.684l.2,2.211a3.457,3.457,0,0,1,3.5-2.436A2.448,2.448,0,0,1,641.74-863.358Z" fill="#222"/>
        </g>
        <g id="Group_194" data-name="Group 194">
          <path id="Path_659" data-name="Path 659" d="M643.3-866.652q0-1.67,1.917-1.669t1.918,1.669q0,1.647-1.918,1.647T643.3-866.652Zm3.451,14.55h-3.091v-11.279h3.091Z" fill="#222"/>
        </g>
        <g id="Group_195" data-name="Group 195">
          <path id="Path_660" data-name="Path 660" d="M659.686-862.546A4,4,0,0,1,660.8-859.5v7.4h-3.091v-6.5q0-2.571-2.007-2.571a2.481,2.481,0,0,0-1.839.767,3.221,3.221,0,0,0-.756,2.346v5.955h-3.09v-11.279h2.775l.09,2.008a3.89,3.89,0,0,1,1.556-1.669,4.578,4.578,0,0,1,2.3-.564A4.1,4.1,0,0,1,659.686-862.546Z" fill="#222"/>
        </g>
        <g id="Group_196" data-name="Group 196">
          <path id="Path_661" data-name="Path 661" d="M673.694-853.41a2.817,2.817,0,0,1,1,2.324,3.145,3.145,0,0,1-1.67,2.819,8.385,8.385,0,0,1-4.4,1.016,9.061,9.061,0,0,1-4.185-.745,2.257,2.257,0,0,1-1.365-2.03,1.9,1.9,0,0,1,.52-1.331,2.979,2.979,0,0,1,1.533-.812,2.928,2.928,0,0,1-1.218-.892,2.14,2.14,0,0,1-.451-1.364,2.158,2.158,0,0,1,.474-1.4,2.841,2.841,0,0,1,1.308-.88,3.476,3.476,0,0,1-1.308-1.274,3.51,3.51,0,0,1-.452-1.793,3.306,3.306,0,0,1,1.388-2.809,6.225,6.225,0,0,1,3.778-1.026,8.5,8.5,0,0,1,2.279.293,3.8,3.8,0,0,1,1.139-2.087,3.011,3.011,0,0,1,2.289-.665l.407,2.21a3.678,3.678,0,0,0-.474-.022,2.948,2.948,0,0,0-1.388.293,1.679,1.679,0,0,0-.778.79,3.487,3.487,0,0,1,1.275,1.263,3.476,3.476,0,0,1,.44,1.76,3.283,3.283,0,0,1-1.388,2.786,6.267,6.267,0,0,1-3.8,1.026,9.49,9.49,0,0,1-2.03-.2,1,1,0,0,0-.88,1.015.787.787,0,0,0,.339.688,1.633,1.633,0,0,0,.947.237h3.813A4.436,4.436,0,0,1,673.694-853.41Zm-2.38,3.643q.858-.395.858-1a.775.775,0,0,0-.4-.71,2.639,2.639,0,0,0-1.3-.237h-3.068q-1.872,0-1.872,1.015,0,.632.835.981a6.818,6.818,0,0,0,2.5.35A5.992,5.992,0,0,0,671.314-849.767Zm-4.139-11.38a1.732,1.732,0,0,0-.575,1.353,1.762,1.762,0,0,0,.575,1.376,2.122,2.122,0,0,0,1.477.519,2.152,2.152,0,0,0,1.5-.519,1.763,1.763,0,0,0,.576-1.376,1.733,1.733,0,0,0-.576-1.353,2.148,2.148,0,0,0-1.5-.52A2.118,2.118,0,0,0,667.175-861.147Z" fill="#222"/>
        </g>
        <g id="Group_197" data-name="Group 197">
          <path id="Path_662" data-name="Path 662" d="M683.158-866.652q0-1.67,1.917-1.669t1.918,1.669q0,1.647-1.918,1.647T683.158-866.652Zm3.451,14.55h-3.09v-11.279h3.09Z" fill="#222"/>
        </g>
        <g id="Group_198" data-name="Group 198">
          <path id="Path_663" data-name="Path 663" d="M699.547-862.546a4,4,0,0,1,1.116,3.045v7.4h-3.091v-6.5q0-2.571-2.007-2.571a2.479,2.479,0,0,0-1.838.767,3.221,3.221,0,0,0-.756,2.346v5.955H689.88v-11.279h2.775l.09,2.008a3.891,3.891,0,0,1,1.557-1.669,4.573,4.573,0,0,1,2.3-.564A4.1,4.1,0,0,1,699.547-862.546Z" fill="#222"/>
        </g>
        <g id="Group_199" data-name="Group 199">
          <path id="Path_664" data-name="Path 664" d="M721.823-854.064l-.225,1.872a3.232,3.232,0,0,1-1.466.316q-2.166,0-2.6-1.692A3.07,3.07,0,0,1,716-852.3a6.417,6.417,0,0,1-2.459.429,3.993,3.993,0,0,1-2.572-.745,2.588,2.588,0,0,1-.925-2.143q0-2.751,4.4-3.564l2.707-.519v-.541a1.99,1.99,0,0,0-.508-1.433,1.86,1.86,0,0,0-1.41-.53,2.914,2.914,0,0,0-1.691.452,2.368,2.368,0,0,0-.9,1.466l-2.459-1.038a3.736,3.736,0,0,1,1.624-2.3,5.878,5.878,0,0,1,3.294-.834,6.016,6.016,0,0,1,3.766,1.048,3.684,3.684,0,0,1,1.354,3.1v4.625a.9.9,0,0,0,.2.654.865.865,0,0,0,.632.2A2.676,2.676,0,0,0,721.823-854.064Zm-5.492-.395a1.476,1.476,0,0,0,.823-1.32v-1.173l-2.414.542a2.842,2.842,0,0,0-1.139.485,1.033,1.033,0,0,0-.372.846,1.011,1.011,0,0,0,.338.823,1.439,1.439,0,0,0,.948.282A3.511,3.511,0,0,0,716.331-854.459Z" fill="#222"/>
        </g>
        <g id="Group_200" data-name="Group 200">
          <path id="Path_665" data-name="Path 665" d="M747.789-863.381,744.2-852.1h-3.587l-2.459-7.963-2.368,7.963h-3.564l-3.587-11.279h3.271l2.256,8.8,2.526-8.8h3.045l2.528,8.8,2.256-8.8Z" fill="#222"/>
        </g>
        <g id="Group_201" data-name="Group 201">
          <path id="Path_666" data-name="Path 666" d="M759.013-862.05a5.9,5.9,0,0,1,1.522,4.309,5.9,5.9,0,0,1-1.522,4.308,5.679,5.679,0,0,1-4.253,1.557,5.672,5.672,0,0,1-4.252-1.557,5.892,5.892,0,0,1-1.523-4.308,5.9,5.9,0,0,1,1.523-4.309,5.672,5.672,0,0,1,4.252-1.556A5.679,5.679,0,0,1,759.013-862.05Zm-6.249,1.635a4.338,4.338,0,0,0-.689,2.674,4.333,4.333,0,0,0,.689,2.673,2.37,2.37,0,0,0,2,.891,2.372,2.372,0,0,0,2-.891,4.34,4.34,0,0,0,.687-2.673,4.345,4.345,0,0,0-.687-2.674,2.374,2.374,0,0,0-2-.891A2.373,2.373,0,0,0,752.764-860.415Z" fill="#222"/>
        </g>
        <g id="Group_202" data-name="Group 202">
          <path id="Path_667" data-name="Path 667" d="M772.638-862.05a5.9,5.9,0,0,1,1.522,4.309,5.9,5.9,0,0,1-1.522,4.308,5.679,5.679,0,0,1-4.253,1.557,5.672,5.672,0,0,1-4.252-1.557,5.892,5.892,0,0,1-1.523-4.308,5.9,5.9,0,0,1,1.523-4.309,5.672,5.672,0,0,1,4.252-1.556A5.679,5.679,0,0,1,772.638-862.05Zm-6.249,1.635a4.338,4.338,0,0,0-.689,2.674,4.333,4.333,0,0,0,.689,2.673,2.37,2.37,0,0,0,2,.891,2.372,2.372,0,0,0,2-.891,4.34,4.34,0,0,0,.687-2.673,4.345,4.345,0,0,0-.687-2.674,2.374,2.374,0,0,0-2-.891A2.373,2.373,0,0,0,766.389-860.415Z" fill="#222"/>
        </g>
        <g id="Group_203" data-name="Group 203">
          <path id="Path_668" data-name="Path 668" d="M787.74-868.321V-852.1h-2.752l-.135-2.1a3.988,3.988,0,0,1-1.478,1.692,4.056,4.056,0,0,1-2.245.632,4.356,4.356,0,0,1-3.541-1.545,6.524,6.524,0,0,1-1.286-4.3,6.609,6.609,0,0,1,1.286-4.331,4.341,4.341,0,0,1,3.541-1.556,3.986,3.986,0,0,1,2.121.552,3.748,3.748,0,0,1,1.4,1.523v-6.79Zm-3.79,13.2a3.938,3.938,0,0,0,.7-2.5v-.226a3.951,3.951,0,0,0-.7-2.493,2.306,2.306,0,0,0-1.918-.891,2.314,2.314,0,0,0-1.939.9,4.156,4.156,0,0,0-.7,2.594,4.158,4.158,0,0,0,.7,2.594,2.313,2.313,0,0,0,1.939.9A2.316,2.316,0,0,0,783.95-855.125Z" fill="#222"/>
        </g>
        <g id="Group_204" data-name="Group 204">
          <path id="Path_669" data-name="Path 669" d="M794-855.057a1.735,1.735,0,0,1,.53,1.331A1.733,1.733,0,0,1,794-852.4a2.013,2.013,0,0,1-1.433.5,2.041,2.041,0,0,1-1.432-.486,1.725,1.725,0,0,1-.531-1.342,1.726,1.726,0,0,1,.531-1.342,2.041,2.041,0,0,1,1.432-.485A2.017,2.017,0,0,1,794-855.057Z" fill="#222"/>
        </g>
      </g>
      <g id="Group_206" data-name="Group 206">
        <rect id="Rectangle_113" data-name="Rectangle 113" width="331" height="8" transform="translate(375 -960)" fill="#fff"/>
      </g>
    </g>
  </g>
</svg>
