<svg xmlns="http://www.w3.org/2000/svg" xmlns:xlink="http://www.w3.org/1999/xlink" width="153.555" height="47.602" viewBox="0 0 153.555 47.602">
  <title>Emmaus logo</title>
  <defs>
    <clipPath id="clip-path">
      <path id="Path_43" data-name="Path 43" d="M0,24H153.555V-23.6H0Z" transform="translate(-1.852 21.173)" fill="#222"/>
    </clipPath>
  </defs>
  <g id="Group_16" data-name="Group 16" transform="translate(1.852 2.425)" clip-path="url(#clip-path)">
    <g id="Group_9" data-name="Group 9" transform="translate(0.001 -0.001)">
      <path id="Path_36" data-name="Path 36" d="M4.2,7.5a.489.489,0,1,0,.478.489A.484.484,0,0,0,4.2,7.5m21.59.623-2.8-8.469a1.719,1.719,0,0,0-1.631-1.205,1.707,1.707,0,0,0-1.428.782l-.29-.876-.009-.025a1.712,1.712,0,0,0-1.622-1.182A1.715,1.715,0,0,0,16.4-1.7a1.7,1.7,0,0,0-1.039-.358A1.736,1.736,0,0,0,13.64-.3a1.821,1.821,0,0,0,.06.465l1.691,5.1A6.26,6.26,0,0,0,8.558,6.48c-.043-.049-.083-.089-.083-.089-.177-.188-.583-.051-.9.1l-.554-.907a7.086,7.086,0,0,0,4.664-2.123C13.443,1.435,13.11-1.759,13.094-1.9l-.025-.235-.232.009A7.315,7.315,0,0,0,8.069.06,7.405,7.405,0,0,0,6.6,4.9L4.6,1.625A2.811,2.811,0,0,0,4.3-1.383a4.691,4.691,0,0,0-.443-.6,4.177,4.177,0,0,0,.592.043l.065,0c1.522-.022,2.7-.773,2.691-1.709C7.188-4.57,6.015-5.287,4.527-5.287l-.063,0a4.668,4.668,0,0,0-.606.051A4.24,4.24,0,0,0,4.3-5.872c.773-1.339.758-2.762-.033-3.238a1.083,1.083,0,0,0-.563-.15A3.007,3.007,0,0,0,1.484-7.566a4.547,4.547,0,0,0-.427.994,4.55,4.55,0,0,0-.335-.672,3,3,0,0,0-2.23-1.631,1.085,1.085,0,0,0-.6.168c-.776.5-.753,1.919.056,3.236a4.771,4.771,0,0,0,.395.545,4.222,4.222,0,0,0-.577-.043c-.123,0-.246.005-.371.016-1.519.125-2.65.954-2.576,1.888.065.843,1.1,1.457,2.465,1.457.123,0,.248-.005.371-.016a4.264,4.264,0,0,0,.74-.13,4.718,4.718,0,0,0-.331.561c-.682,1.39-.576,2.807.243,3.227A1.053,1.053,0,0,0-1.2,2.15,2.9,2.9,0,0,0,.99.308a4.816,4.816,0,0,0,.221-.534,4.4,4.4,0,0,0,.313.617,3,3,0,0,0,2.23,1.631,1.191,1.191,0,0,0,.281-.036L5.092,3.72A8.374,8.374,0,0,0,.836,2.337c-.156,0-.311.005-.46.02A8.018,8.018,0,0,0-4.286,4.93l-.167.192.188.17A8.022,8.022,0,0,0,.389,7.249c.13,0,.261-.005.387-.016C3.356,7.01,5.338,4.406,5.434,4.281l1.276,2.1A6.582,6.582,0,0,0,1.873,7.651c-2.541,1.834-4,5.046-4,8.813a14.839,14.839,0,0,0,7.6,12.668A13.524,13.524,0,0,0,12.136,30.9a15.251,15.251,0,0,0,8.04-2.425l3.035,4.979.567-.36-3.037-4.985c9.385-6.375,5.092-19.847,5.046-19.984m-14.48-5A6.473,6.473,0,0,1,7.3,5.044L12.625-1.28a6.821,6.821,0,0,1-1.318,4.406M8.444.4a6.481,6.481,0,0,1,3.729-1.919L7.1,4.492A6.645,6.645,0,0,1,8.444.4M4.469-4.777h.058c1.171,0,2.167.518,2.176,1.129.007.63-1,1.175-2.2,1.191l-.058,0a3.346,3.346,0,0,1-1.5-.331A2.108,2.108,0,0,0,2.921-4.4a3.394,3.394,0,0,1,1.548-.373M1.915-7.307A2.563,2.563,0,0,1,3.707-8.751a.592.592,0,0,1,.311.081c.53.32.463,1.482-.145,2.539a3.317,3.317,0,0,1-1.22,1.265,2.022,2.022,0,0,0-1.229-.74,3.4,3.4,0,0,1,.491-1.7m-3.756-.967a.6.6,0,0,1,.333-.09A2.611,2.611,0,0,1,.3-6.972,3.685,3.685,0,0,1,.809-5.627,2,2,0,0,0,.1-5.4a2.035,2.035,0,0,0-.748.724A3.643,3.643,0,0,1-1.627-5.74c-.637-1.041-.735-2.2-.214-2.534M-2.382-2.13c-.11.009-.223.013-.331.013-1.061,0-1.924-.434-1.969-.988-.049-.626.921-1.24,2.12-1.339.11-.009.221-.013.331-.013a3.1,3.1,0,0,1,1.347.281.088.088,0,0,1-.005.013A2.1,2.1,0,0,0-.771-2.673a3.272,3.272,0,0,1-1.611.543M.545.078C.1.985-.635,1.642-1.2,1.642a.588.588,0,0,1-.266-.062c-.55-.282-.559-1.448-.02-2.543a3.5,3.5,0,0,1,1-1.254,2.037,2.037,0,0,0,.967.646A1.947,1.947,0,0,0,.921-1.5c0,.081,0,.157.005.243A3.741,3.741,0,0,1,.545.078m.125-2.3A1.364,1.364,0,0,1-.143-2.9,1.418,1.418,0,0,1-.25-3.969,1.4,1.4,0,0,1,.414-4.8a1.348,1.348,0,0,1,.646-.167,1.366,1.366,0,0,1,1.209.735,1.418,1.418,0,0,1-.556,1.9A1.341,1.341,0,0,1,.67-2.226M4.085,1.423a.6.6,0,0,1-.331.091A2.611,2.611,0,0,1,1.946.121a3.7,3.7,0,0,1-.519-1.394c.005-.087.007-.172.007-.257a2.046,2.046,0,0,0,.6-.2,2.01,2.01,0,0,0,.65-.574A3.378,3.378,0,0,1,3.872-1.111c.637,1.039.735,2.2.214,2.534M.416,2.865c.138-.013.279-.02.42-.02a7.666,7.666,0,0,1,3.642,1.1L-3.4,4.766a6.97,6.97,0,0,1,3.817-1.9M.735,6.724c-.114.011-.228.014-.346.014A7.066,7.066,0,0,1-3.455,5.283L4.637,4.44a6.654,6.654,0,0,1-3.9,2.284m13.609,4.509a4.078,4.078,0,0,1-.891,4.916L8.447,7.933a5.992,5.992,0,0,1,5.9,3.3M7.586,8.013,7.7,8l5.2,8.531a4.61,4.61,0,0,1-3.624.253A3.981,3.981,0,0,1,6.757,14.33c-.755-2.12.223-4.916.829-6.317M5.792,28.533A14.142,14.142,0,0,1-1.457,16.464c0-3.542,1.354-6.55,3.718-8.255A6.135,6.135,0,0,1,5.837,6.985a5.181,5.181,0,0,1,1.354.181l.024.038c-.568,1.173-2.049,4.661-1.086,7.359a4.636,4.636,0,0,0,2.932,2.869,5.275,5.275,0,0,0,4.19-.32l6.572,10.782c-4.587,2.842-9.68,3.082-14.031.639m8.024-11.789a4.782,4.782,0,0,0,1.128-5.817A6.653,6.653,0,0,0,8.721,7.24a5.651,5.651,0,0,1,6.952-1.108l.936,2.816.635-.219-2.9-8.748-.005-.014A1.151,1.151,0,0,1,14.308-.3a1.061,1.061,0,0,1,1.05-1.07,1.064,1.064,0,0,1,1.017.807L19.2,7.993l.635-.219L17.074-.6l-.062-.176v0h0a1.448,1.448,0,0,1-.051-.328A1.058,1.058,0,0,1,18.006-2.17,1.044,1.044,0,0,1,19-1.434l2.892,8.757.634-.219L20.359.538A1.037,1.037,0,0,1,20.306.2a1.062,1.062,0,0,1,1.048-1.07,1.058,1.058,0,0,1,1,.757l2.8,8.451c.043.132,4.167,13.1-4.766,19.186Z" transform="translate(5.182 9.26)" fill="#222"/>
    </g>
    <g id="Group_10" data-name="Group 10" transform="translate(37.29 13.589)">
      <path id="Path_37" data-name="Path 37" d="M5.431,4.069c.458-.331,1.3,1.377.755,2.04C4.7,7.871,2.653,8.449.2,8.449c-4.773,0-6.9-2.534-6.9-6.887,0-4.105,2.049-6.585,7.066-6.585,4.288,0,5.96,2.755,5.96,5.484,0,1.348-.567,1.928-2.051,1.928-2.858,0-4.907.11-4.907.11-.433.027-.568.136-.568.44,0,1.019,1.242,2.094,3.426,2.094a5.945,5.945,0,0,0,3.209-.965M.226.128a.724.724,0,0,0,.809-.742c0-1.24-.673-2.04-1.537-2.04-.755,0-1.052.827-1.052,2.04,0,.55.243.742.755.742Z" transform="translate(6.705 5.023)" fill="#222"/>
    </g>
    <g id="Group_11" data-name="Group 11" transform="translate(50.882 13.617)">
      <path id="Path_38" data-name="Path 38" d="M7.1,3.292c0,3.609,1.16,2.094,1.16,4.3,0,1.434-.433,1.625-3.669,1.625C1,9.214.677,8.993.677,7.589c0-2.259,1-.606,1-3.663V2.933C1.676.51.867-.676-.132-.676c-.782,0-1.187.442-1.187,2.342V3.815c0,3.444,1.106,1.488,1.106,4.27,0,.909-.7,1.1-2.885,1.1-4.72,0-5.233-.219-5.233-1.6,0-2.4,1.43-.357,1.43-3.774V1.391c0-2.067-1.16-1.654-1.511-2.067A2.1,2.1,0,0,1-8.762-1.97a1.394,1.394,0,0,1,.349-1.075C-7.547-3.733-4.42-3.9-3.638-3.9c2.319,0,1.566,1.3,2.427,1.3.594,0,1.16-1.461,4.263-1.461C6.4-4.064,5.883-2.6,6.746-2.6c.594,0,1.187-1.406,4.288-1.406,2.32,0,4.8,1.819,4.8,6.614v.8c0,3.609,1.133,1.9,1.133,4.105,0,1.432-.7,1.625-5.394,1.625-2.239,0-2.563-.221-2.563-1.323,0-2.534,1.024-.577,1.024-3.884V2.933C10.037.51,9.228-.676,8.23-.676,7.448-.676,7.1-.234,7.1,1.666Z" transform="translate(8.762 4.064)" fill="#222"/>
    </g>
    <g id="Group_12" data-name="Group 12" transform="translate(76.852 13.617)">
      <path id="Path_39" data-name="Path 39" d="M7.1,3.292c0,3.609,1.16,2.094,1.16,4.3,0,1.434-.433,1.625-3.669,1.625C1,9.214.677,8.993.677,7.589c0-2.259,1-.606,1-3.663V2.933C1.676.51.867-.676-.132-.676c-.782,0-1.187.442-1.187,2.342V3.815c0,3.444,1.106,1.488,1.106,4.27,0,.909-.7,1.1-2.885,1.1-4.72,0-5.233-.219-5.233-1.6,0-2.4,1.43-.357,1.43-3.774V1.391c0-2.067-1.16-1.654-1.511-2.067A2.1,2.1,0,0,1-8.762-1.97a1.394,1.394,0,0,1,.349-1.075C-7.549-3.733-4.42-3.9-3.638-3.9c2.319,0,1.564,1.3,2.427,1.3.594,0,1.16-1.461,4.261-1.461C6.4-4.064,5.885-2.6,6.746-2.6c.594,0,1.187-1.406,4.288-1.406,2.32,0,4.8,1.819,4.8,6.614v.8c0,3.609,1.133,1.9,1.133,4.105,0,1.432-.7,1.625-5.4,1.625-2.237,0-2.561-.221-2.561-1.323,0-2.534,1.024-.577,1.024-3.884V2.933C10.037.51,9.228-.676,8.23-.676,7.448-.676,7.1-.234,7.1,1.666Z" transform="translate(8.762 4.064)" fill="#222"/>
    </g>
    <g id="Group_13" data-name="Group 13" transform="translate(103.524 13.59)">
      <path id="Path_40" data-name="Path 40" d="M5.794,2.355V4.614c0,2.121,1.158,1.68,1.51,2.121a2.5,2.5,0,0,1,.351,1.35,1.418,1.418,0,0,1-.351,1.1A5.415,5.415,0,0,1,4.04,10.565c-2.454,0-1.672-1.24-2.912-1.24-.7,0-1.024,1.157-4.4,1.157-2.456,0-3.884-1.129-3.884-3.5,0-4.739,5.8-3.361,7.256-4.9a1.589,1.589,0,0,0,.431-.965A1.985,1.985,0,0,0-1.408-.842c-1.672,0-.891,1.9-1.861,2.755A2.79,2.79,0,0,1-6.156,1.83C-6.829,1.252-6.7-.979-6.1-1.586c.675-.661,2.778-1.321,4.909-1.321,5.206,0,6.987,1.873,6.987,5.262M.7,5.247c0-.8-.244-1.1-1.108-.827-1.024.36-1.455.938-1.455,1.461A1.655,1.655,0,0,0-.411,7.589,1.341,1.341,0,0,0,.7,6.185Z" transform="translate(7.153 2.907)" fill="#222"/>
    </g>
    <g id="Group_14" data-name="Group 14" transform="translate(117.736 13.588)">
      <path id="Path_41" data-name="Path 41" d="M4.647,5.364c-.619,0-1.133,1.321-4.4,1.321-2.373,0-4.773-1.35-4.773-5.978V-1.111c0-2.453-1.215-.717-1.215-3.334,0-1.432,3.964-2.177,5.341-2.177,1.591,0,1.7.8,1.7,3.2v3.2c0,2.067.619,3.582,2.076,3.582C3.974,3.353,4.4,2.636,4.4.569V-.808c0-3.057-1.511-.992-1.511-3.636,0-1.571,4.208-2.121,5.45-2.121,1.806,0,1.806.717,1.806,5.318V.9c0,2.121,1.16,1.68,1.51,2.121a2.281,2.281,0,0,1,.351,1.35,1.373,1.373,0,0,1-.351,1.1A9.491,9.491,0,0,1,7.453,6.85c-2.806,0-1.727-1.486-2.806-1.486" transform="translate(5.737 6.622)" fill="#222"/>
    </g>
    <g id="Group_15" data-name="Group 15" transform="translate(136.48 13.589)">
      <path id="Path_42" data-name="Path 42" d="M2.752,6.029c-5.745,0-6.149-.442-6.149-2.065A3.239,3.239,0,0,1-2.885,1.9a4.356,4.356,0,0,1,3.37.11,1.119,1.119,0,0,1,.351.881c0,.8.594,1.075,1.835,1.075.673,0,1.267-.167,1.267-.994,0-2.534-7.066-.742-7.066-6.308,0-1.461,1.294-4.105,6.067-4.105,4.856,0,5.368.523,5.368,2.067A3.16,3.16,0,0,1,7.9-3.5,4.435,4.435,0,0,1,4.4-3.5c-.485-.442-.4-1.873-1.806-1.873-.784,0-1.133.3-1.133,1.046,0,2.617,7.848.854,7.848,6.116,0,2.148-1.215,4.243-6.554,4.243" transform="translate(3.397 7.443)" fill="#222"/>
    </g>
  </g>
</svg>
