<?xml version="1.0" encoding="utf-8"?>
<!-- Generator: Adobe Illustrator 23.0.4, SVG Export Plug-In . SVG Version: 6.00 Build 0)  -->
<svg version="1.1" id="Layer_1" xmlns="http://www.w3.org/2000/svg" xmlns:xlink="http://www.w3.org/1999/xlink" x="0px" y="0px"
	 viewBox="0 0 204 58.4" style="enable-background:new 0 0 204 58.4;" xml:space="preserve">
<style type="text/css">
	.st0{fill:#222222;}
</style>
<path class="st0" d="M161.3,31.8c-0.5-0.6-2.1,0-2.1-2.9v-3.1l0,0c0-4.6-2.4-7.2-9.6-7.2c-2.9,0-5.8,0.9-6.7,1.8
	c-0.8,0.8-1,3.9-0.1,4.7c1.2,0.8,2.7,0.8,3.9,0.1c1.3-1.2,0.3-3.8,2.5-3.8c1.5,0,2.6,1.2,2.7,2.7c0,0.5-0.2,1-0.6,1.3
	c-2,2.1-9.9,0.2-9.9,6.7c0,3.2,2,4.8,5.3,4.8c4.6,0,5.1-1.6,6-1.6c1.7,0,0.6,1.7,4,1.7c1.7-0.1,3.2-0.8,4.5-1.9
	c0.4-0.4,0.5-1,0.5-1.5C161.8,33,161.7,32.3,161.3,31.8z M152.3,31c0.1,0.9-0.6,1.8-1.5,1.9c-1.2-0.1-2-1.2-2-2.3c0-0.7,0.6-1.5,2-2
	c1.2-0.4,1.5,0,1.5,1.1V31z M184.8,31.8c-0.5-0.6-2.1,0-2.1-2.9v-2.9c0-6.3,0-7.3-2.5-7.3c-1.7,0-7.5,0.8-7.5,2.9
	c0,3.6,2.1,0.8,2.1,5v1.9c0,2.8-0.6,3.8-1.4,3.8c-2,0-2.8-2.1-2.8-4.9V23c0-3.3-0.1-4.4-2.3-4.4c-1.9,0-7.3,1-7.3,3
	c0,3.6,1.7,1.2,1.7,4.6v2.5c0,6.3,3.3,8.2,6.5,8.2c4.5,0,5.2-1.8,6-1.8h0c1.5,0,0,2,3.8,2c2-0.2,4-0.8,5.7-1.9
	c0.4-0.4,0.5-1,0.5-1.5C185.3,33,185.1,32.3,184.8,31.8z M12.8,22.9c-0.4,0-0.7,0.3-0.7,0.7s0.3,0.7,0.7,0.7c0.4,0,0.7-0.3,0.7-0.7
	c0,0,0,0,0,0C13.5,23.2,13.2,22.9,12.8,22.9z M193.3,22.8c0-1,0.5-1.4,1.5-1.4c1.9,0,1.8,2,2.5,2.6c0.7,0.7,4.1,0.6,4.8,0
	c0.5-0.5,0.6-1.8,0.6-2.6c0-2.1-0.7-2.8-7.3-2.8c-6.5,0-8.3,3.6-8.3,5.6c0,7.6,9.7,5.2,9.7,8.6c0,1.1-0.8,1.4-1.7,1.4
	c-1.7,0-2.5-0.4-2.5-1.5c0-0.5-0.1-0.9-0.5-1.2c-0.7-0.7-4-0.7-4.6-0.2c-0.5,0.8-0.8,1.8-0.7,2.8c0,2.2,0.6,2.8,8.4,2.8l0,0
	c7.3,0,9-2.9,9-5.8C204,24,193.3,26.4,193.3,22.8z M42.3,23.8l-3.8-11.6c-0.4-1.2-1.7-1.9-2.9-1.5c-0.5,0.2-1,0.5-1.3,1l-0.4-1.2
	l0,0c-0.4-1.2-1.7-1.9-2.9-1.5c-0.7,0.2-1.3,0.8-1.5,1.5c-0.4-0.3-0.9-0.5-1.4-0.5c-1.3,0-2.4,1.1-2.3,2.4v0c0,0.2,0,0.4,0.1,0.6
	l2.3,7c-3.2-1.4-6.8-0.7-9.3,1.7c-0.1-0.1-0.1-0.1-0.1-0.1c-0.2-0.3-0.8-0.1-1.2,0.1l-0.8-1.2c2.4-0.1,4.7-1.2,6.4-2.9
	c2.4-2.8,2-7.1,1.9-7.3l0-0.3l-0.3,0c-2.5,0.2-4.8,1.2-6.5,3c-1.9,2.2-2,5.3-2,6.6l-2.7-4.5c0.7-0.9,0.5-2.5-0.4-4.1
	c-0.2-0.3-0.4-0.6-0.6-0.8c0.3,0,0.5,0.1,0.8,0.1h0.1c2.1,0,3.7-1.1,3.7-2.3c0-1.3-1.6-2.2-3.7-2.2h-0.1c-0.3,0-0.6,0-0.8,0.1
	c0.2-0.3,0.4-0.6,0.6-0.9c1.1-1.8,1-3.8,0-4.4C12.7,0.1,12.4,0,12.2,0c-1.3,0.2-2.5,1.1-3,2.3C8.9,2.7,8.7,3.2,8.5,3.7
	C8.4,3.4,8.3,3.1,8.1,2.8c-0.6-1.2-1.7-2-3-2.2c-0.3,0-0.6,0.1-0.8,0.2c-1.1,0.7-1,2.6,0.1,4.4c0.2,0.3,0.3,0.5,0.5,0.7
	C4.6,5.9,4.3,5.9,4,5.9c-0.2,0-0.3,0-0.5,0C1.4,6.1-0.1,7.2,0,8.5c0.1,1.2,1.5,2,3.4,2c0.2,0,0.3,0,0.5,0c0.3,0,0.7-0.1,1-0.2
	c-0.2,0.2-0.3,0.5-0.5,0.8c-0.9,1.9-0.8,3.8,0.3,4.4c0.2,0.1,0.4,0.2,0.7,0.2c1,0,2.3-1,3-2.5c0.1-0.2,0.2-0.5,0.3-0.7
	c0.1,0.3,0.3,0.6,0.4,0.8c0.6,1.2,1.7,2,3,2.2c0.1,0,0.3,0,0.4,0l1.4,2.4c-1.7-1.1-3.7-1.8-5.8-1.9c-0.2,0-0.4,0-0.6,0
	c-3.5,0.3-6.3,3.4-6.4,3.5L1,19.7l0.3,0.2c0.1,0.1,3,2.7,6.4,2.7c0.2,0,0.4,0,0.5,0c3.5-0.3,6.2-3.9,6.4-4l1.7,2.9
	c-2.3-0.3-4.7,0.3-6.6,1.7c-3.5,2.5-5.5,6.9-5.5,12C4.3,42.4,8.3,49,14.6,52.5c2.8,1.6,5.9,2.4,9.1,2.4c3.9-0.1,7.7-1.2,11-3.3
	l4.2,6.8l0.8-0.5l-4.2-6.8C48.3,42.4,42.4,24,42.3,23.8z M22.6,16.9L22.6,16.9c-1.5,1.5-3.4,2.4-5.5,2.6l7.3-8.6
	C24.4,12.2,24.2,15,22.6,16.9z M18.6,13.2L18.6,13.2c1.4-1.4,3.2-2.3,5.1-2.6l-6.9,8.2C16.8,16.8,17.4,14.8,18.6,13.2z M13.2,6.1
	L13.2,6.1c1.7,0,3,0.7,3.1,1.5c0,0.9-1.4,1.6-3,1.6h-0.1c-0.7,0-1.4-0.1-2.1-0.5c0.3-0.7,0.3-1.5,0-2.2C11.7,6.3,12.5,6.1,13.2,6.1z
	 M9.7,2.7L9.7,2.7c0.5-1,1.4-1.7,2.5-2c0.1,0,0.3,0,0.4,0.1c0.7,0.4,0.6,2-0.2,3.5C12,5,11.4,5.6,10.7,6c-0.4-0.5-1-0.9-1.7-1
	C9,4.2,9.3,3.4,9.7,2.7z M4.6,1.3C4.7,1.3,4.9,1.2,5,1.2c1.1,0.2,2,0.9,2.5,1.9C7.8,3.7,8.1,4.3,8.2,5c-0.3,0-0.7,0.1-1,0.3
	c-0.4,0.2-0.8,0.6-1,1c-0.5-0.4-1-0.9-1.3-1.4C4,3.4,3.9,1.8,4.6,1.3z M3.8,9.7L3.8,9.7c-0.2,0-0.3,0-0.5,0c-1.5,0-2.6-0.6-2.7-1.4
	C0.6,7.6,1.9,6.7,3.6,6.6c0.2,0,0.3,0,0.5,0c0.6,0,1.3,0.1,1.8,0.4c0,0,0,0,0,0C5.7,7.6,5.7,8.4,6,9C5.4,9.4,4.6,9.7,3.8,9.7z
	 M7.8,12.8c-0.6,1.2-1.6,2.1-2.4,2.1c-0.1,0-0.3,0-0.4-0.1c-0.8-0.4-0.8-2,0-3.5c0.3-0.7,0.8-1.3,1.4-1.7c0.3,0.4,0.8,0.7,1.3,0.9
	c0.2,0.1,0.4,0.1,0.6,0.1c0,0.1,0,0.2,0,0.3C8.3,11.6,8.1,12.2,7.8,12.8L7.8,12.8z M8,9.6C7.5,9.5,7.1,9.1,6.9,8.7
	c-0.2-0.4-0.3-1-0.1-1.5c0.1-0.5,0.5-0.9,0.9-1.1c0.3-0.1,0.6-0.2,0.9-0.2c0.7,0,1.3,0.4,1.7,1c0.5,0.9,0.2,2.1-0.8,2.6
	C9,9.7,8.5,9.8,8,9.6z M12.7,14.6L12.7,14.6c-0.1,0.1-0.3,0.1-0.5,0.1c-1.1-0.2-2-0.9-2.5-1.9c-0.4-0.6-0.6-1.2-0.7-1.9
	c0-0.1,0-0.2,0-0.4c0.3,0,0.6-0.1,0.8-0.3c0.4-0.2,0.7-0.5,0.9-0.8c0.7,0.4,1.2,1,1.6,1.6C13.3,12.6,13.4,14.2,12.7,14.6z M7.7,16.6
	L7.7,16.6c0.2,0,0.4,0,0.6,0c1.8,0.1,3.5,0.6,5,1.5L2.4,19.2C3.9,17.8,5.7,16.9,7.7,16.6z M8.1,21.9c-0.2,0-0.3,0-0.5,0
	c-1.9-0.1-3.7-0.8-5.3-2l11.1-1.2C12.5,19.8,10.5,21.7,8.1,21.9z M26.7,28L26.7,28c1.2,2.3,0.7,5-1.2,6.7l-6.8-11.2
	C22,23.2,25.2,25,26.7,28z M17.5,23.6l0.2,0l7.1,11.7c-1.5,0.8-3.3,0.9-5,0.3c-1.6-0.5-2.9-1.8-3.4-3.4
	C15.3,29.4,16.6,25.5,17.5,23.6z M15,51.7L15,51.7C9,48.3,5.2,42,5.1,35.2c0-4.8,1.9-9,5.1-11.3c1.4-1.1,3.1-1.6,4.9-1.7
	c0.6,0,1.2,0.1,1.9,0.2l0,0.1c-0.8,1.6-2.8,6.4-1.5,10.1c0.7,1.9,2.1,3.3,4,3.9c1.9,0.7,4,0.5,5.7-0.4l9,14.7
	C27.9,54.7,21,55,15,51.7z M35,50.3l-9-14.7c2.3-2,2.9-5.3,1.5-8c-1.6-3.2-4.9-5.2-8.5-5c2.4-2.7,6.4-3.3,9.5-1.5l1.3,3.9l0.9-0.3
	l-4-12l0,0c0-0.1,0-0.2,0-0.4c0-0.8,0.6-1.5,1.4-1.5c0.7,0,1.3,0.4,1.4,1.1l3.9,11.7l0.9-0.3l-3.8-11.4l-0.1-0.2
	c0-0.1-0.1-0.3-0.1-0.4c0-0.8,0.6-1.5,1.4-1.5c0.6,0,1.2,0.4,1.4,1l4,12l0.9-0.3l-3-9c0-0.1-0.1-0.3-0.1-0.5c0-0.8,0.6-1.4,1.4-1.4
	c0.6,0,1.2,0.4,1.4,1l3.8,11.6C41.5,24.2,47.2,42,35,50.3z M138.7,27.7c0-6.6-3.4-9-6.6-9c-4.2,0-5.1,1.9-5.9,1.9
	c-1.2,0-0.5-2-5.1-2c-4.2,0-5,2-5.8,2c-1.2,0-0.1-1.8-3.3-1.8c-1.1,0-5.3,0.2-6.5,1.2c-0.4,0.4-0.5,0.9-0.5,1.5
	c0,0.6,0.1,1.2,0.5,1.8c0.5,0.6,2.1,0,2.1,2.8v3.3c0,4.7-2,1.9-2,5.2c0,1.9,0.7,2.2,7.2,2.2c3,0,3.9-0.3,3.9-1.5
	c0-3.8-1.5-1.1-1.5-5.8v-2.9c0-2.6,0.6-3.2,1.6-3.2c1.4,0,2.5,1.6,2.5,4.9v1.4c0,4.2-1.4,1.9-1.4,5c0,1.9,0.4,2.2,5.3,2.2
	c4.4,0,5-0.3,5-2.2c0-3-1.6-0.9-1.6-5.9l0-2.2c0-2.6,0.5-3.2,1.5-3.2c1.4,0,2.5,1.6,2.5,4.9v1.4c0,4.5-1.4,1.8-1.4,5.3
	c0,1.5,0.4,1.8,3.5,1.8c6.4,0,7.4-0.3,7.4-2.2c0-3-1.5-0.7-1.5-5.6V27.7z M67.6,31c-1.3,0.9-2.8,1.3-4.4,1.3c-3,0-4.7-1.5-4.7-2.9
	c0-0.4,0.2-0.6,0.8-0.6c0,0,2.8-0.2,6.7-0.2c2,0,2.8-0.8,2.8-2.6c0-3.7-2.3-7.5-8.2-7.5c-6.9,0-9.7,3.4-9.7,9c0,6,2.9,9.4,9.4,9.4
	c3.4,0,6.2-0.8,8.2-3.2C69.4,32.9,68.2,30.6,67.6,31z M58,24.6c0-1.7,0.4-2.8,1.4-2.8c1.2,0,2.1,1.1,2.1,2.8c0,0,0,0.1,0,0.1
	c-0.1,0.5-0.6,0.9-1.1,0.9h-1.4C58.4,25.6,58,25.4,58,24.6z M103.2,27.7c0-6.6-3.4-9-6.6-9c-4.2,0-5.1,1.9-5.9,1.9
	c-1.2,0-0.5-2-5.1-2c-4.2,0-5,2-5.8,2c-1.2,0-0.1-1.8-3.3-1.8c-1.1,0-5.3,0.2-6.5,1.2c-0.4,0.4-0.5,0.9-0.5,1.5
	c0,0.6,0.1,1.2,0.5,1.8c0.5,0.6,2.1,0,2.1,2.8v3.3c0,4.7-2,1.9-2,5.2c0,1.9,0.7,2.2,7.2,2.2c3,0,3.9-0.3,3.9-1.5
	c0-3.8-1.5-1.1-1.5-5.8v-2.9c0-2.6,0.6-3.2,1.6-3.2c1.4,0,2.5,1.6,2.5,4.9v1.4c0,4.2-1.4,1.9-1.4,5c0,1.9,0.4,2.2,5.3,2.2
	c4.4,0,5-0.3,5-2.2c0-3-1.6-0.9-1.6-5.9l0-2.2c0-2.6,0.5-3.2,1.5-3.2c1.4,0,2.5,1.6,2.5,4.9v1.4c0,4.5-1.4,1.8-1.4,5.3
	c0,1.5,0.4,1.8,3.5,1.8c6.4,0,7.4-0.3,7.4-2.2c0-3-1.5-0.7-1.5-5.6V27.7z"/>
</svg>
