<svg xmlns="http://www.w3.org/2000/svg" xmlns:xlink="http://www.w3.org/1999/xlink" width="147.17" height="115.025" class="header__logo" viewBox="0 0 147.17 115.025">
  <title>Mossley Heritage logo</title>
  <defs>
    <clipPath id="clip-path">
      <rect width="147.17" height="115.025" fill="none"/>
    </clipPath>
  </defs>
  <g id="MH_logo" data-name="MH logo" transform="translate(0 0)" clip-path="url(#clip-path)">
    <path id="Path_18" data-name="Path 18" d="M434.978,167.82l.308-.092.678-.308.216-.093a1.126,1.126,0,0,0,.246-.093l.524-.308.309-.215.431-.216a1.848,1.848,0,0,0,.4-.278l.154-.154.216-.216a2.051,2.051,0,0,0,.37-.523l.031-.031.493-.617.277-.246.37-.4c.062-.092.123-.185.185-.278l.093-.092.4-.709.216-.37.37-.709.308-.74.123-.431.185-.648.031-.431.093-.525a2.016,2.016,0,0,0,.031-.431v-.154l-.031-.678.062-.339v-.432l.092-.37V156.6a1.374,1.374,0,0,0,.031-.37v-.277a1.044,1.044,0,0,0-.031-.309l-.031-.184-.185-.71a1.58,1.58,0,0,0-.185-.616l-.154-.647-.092-.309-.124-.339a2.4,2.4,0,0,0-.154-.431l-.092-.124-.37-.524-.062-.092a1.7,1.7,0,0,0-.277-.524l-.278-.37-.061-.062a1.279,1.279,0,0,0-.309-.4l-.061-.092-.247-.37-.031-.062a1.588,1.588,0,0,0-.339-.431l-.339-.308-.123-.155a1.235,1.235,0,0,1-.154-.215l-.432-.463-.123-.123a1.746,1.746,0,0,0-.278-.216l-.493-.277-.277-.062-.617-.37-.092-.061a1.279,1.279,0,0,0-.463-.339l-.308-.155-.185-.092c-.061-.031-.185-.031-.246-.062l-.617-.154a2.034,2.034,0,0,0-.586-.277l-.431-.155-.37-.03-.8-.185-.4-.062-.678-.031-.309.124-.185-.031a1.8,1.8,0,0,0-.431.062h-.062l-.4.03h-.678l-.185-.03a1.3,1.3,0,0,0-.339.03l-.462.062-.308.061h-.155a1.18,1.18,0,0,0-.308.093l-.4.123c-.062.031-.155.031-.216.062l-.155.092-.616.339-.277.093-.679.246-.215.062a.98.98,0,0,0-.278.093l-.339.154a1.257,1.257,0,0,0-.339.216l-.092.092-.463.308a1.96,1.96,0,0,0-.37.34l-.03.061-.586.555-.216.216-.37.431-.277.309-.124.092-.154.154-.339.4-.154.154a1.121,1.121,0,0,0-.216.308l-.246.432-.062.216-.277.739-.154.216a1.8,1.8,0,0,0-.185.339l-.155.432-.092.4-.216.708-.061.339-.155.494a1.294,1.294,0,0,0-.03.339v.863l-.031.339.061.339-.061.339v.185c0,.062.031.185.031.247l.154.616-.031.278a.893.893,0,0,0,.062.277l.123.586.092.4.124.739v.155a.734.734,0,0,0,.061.277l.093.339a2.216,2.216,0,0,0,.246.463l.093.092.246.647.185.247.185.4a1.355,1.355,0,0,0,.432.493l.092.062.339.554.247.278.339.616.154.185a1.242,1.242,0,0,0,.247.185l.493.308v.031a2.317,2.317,0,0,0,.432.339l.431.247.278.154.77.4.093.093a3.036,3.036,0,0,0,.308.154l.647.246.864.247.339.154.647.185.092.062a1.465,1.465,0,0,0,.524.123l.4.061.216.062a1.49,1.49,0,0,0,.37.031h.493l.308-.093.123.031a1.331,1.331,0,0,0,.494.031l.216-.031.185.031h.246l.678-.062.339-.092.771-.092h.062a1.789,1.789,0,0,0,.4-.062l.493-.154.37-.093Zm-1.11-5.425-.678.277-.247.185-.74.308-.339.216-.8.062h-.339l-.37-.031-.339.062-.4-.031-.647-.092-.463-.155-.585-.184-.34-.247-.585-.4-.278-.154-.493-.432-.339-.215-.493-.586-.062-.216c-.031-.123-.061-.184-.092-.277l-.278-.493-.092-.37-.185-.8-.123-.215V157.9l-.031-.309-.031-.37-.092-.339v-.339l.154-.77.061-.371.247-.709.185-.339.308-.616.185-.432.493-.523.154-.216.586-.432.216-.185.616-.4.339-.216.648-.276.37-.093.647-.062.431-.031.432.031.278-.062.431.062.647.031.339.092.648.155.339.184.647.432.309.309.554.523.155.185.431.524.247.278.339.647.031.216a1.393,1.393,0,0,0,.092.339l.185.524.154.339.031.74.123.4a1.821,1.821,0,0,0,0,.709l.031.37-.216.678-.123.4-.247.648-.061.277-.247.648-.8.863-.216.277-.524.462Zm-18.444-12.33a1.078,1.078,0,0,0,.03-.308l.031-.678.031-.155v-.246l.031-.617v-.339l.031-.463a.865.865,0,0,0-.216-.678,3.587,3.587,0,0,0-.586-.493l-.432-.03h-.678l-.431-.062-.74-.031-1.171.031a1.134,1.134,0,0,0-.771.154,1.443,1.443,0,0,0-.462.4l-.093.123-.37.493-.154.4-.462.524-.124.093a1.337,1.337,0,0,0-.277.308l-.308.493-.062.093a2.743,2.743,0,0,0-.154.308l-.185.524-.154.246-.432.617-.185.185a1.744,1.744,0,0,0-.215.246l-.247.37-.216.432-.339.524-.154.216-.4.647-.185.216a.817.817,0,0,0-.154.185l-.308.431-.154.339-.4.524-.277.339-.493-.092-.155-.185-.493-.616-.062-.155c-.061-.092-.123-.215-.185-.308l-.308-.37-.123-.308-.277-.462a1.634,1.634,0,0,0-.37-.432l-.031-.061-.463-.555-.03-.062a1.176,1.176,0,0,0-.278-.463l-.308-.339-.216-.215-.339-.648-.154-.246-.339-.555-.309-.308-.4-.524-.031-.093a1.159,1.159,0,0,0-.154-.339l-.278-.462-.092-.216a1.3,1.3,0,0,0-.277-.432l-.309-.339a1.134,1.134,0,0,0-.832-.493h-.339l-.863-.092h-1.788l-.74-.031H392.8c-.061,0-.123.031-.184.031a1.165,1.165,0,0,0-.555.4v.462l.031.556.03.339v1.017l-.03.308-.031.647v.34l.031.708-.031.217a2.328,2.328,0,0,0,.031.462l.092.4-.031.463v.678l-.031.4-.03.8v.37l-.031.74.154.4-.031.77a2.48,2.48,0,0,0-.031.493l.031.463v.493l.062.647.031.37-.093.586-.062.215a2.1,2.1,0,0,0-.03.432v.524l.03.432.031.771v.153a1.156,1.156,0,0,0-.031.309l.031.586.031.339.031.678-.062.462-.031.74.062.37-.031.709-.031.154a1.456,1.456,0,0,0-.061.524l.031.339a.731.731,0,0,0,.061.37,4.034,4.034,0,0,0,.647.586l.185.031a1.261,1.261,0,0,0,.339.031l.555-.031.8.061.4-.061h1.14l.278-.031a1.207,1.207,0,0,0,.739-.278,4.515,4.515,0,0,0,.37-.524l-.031-.8.031-.093a1.349,1.349,0,0,0,.062-.493V165.6l-.062-.37.123-.586v-.4l.062-.71.031-.339.062-.709-.093-.308.062-.678a1.478,1.478,0,0,0,0-.37l-.124-.647-.061-.37v-1.048l.092-.648-.031-.4v-.832l.031-.309v-.709l.062-.493.277-.061.185.277.278.247.4.616.184.247.4.585.278.339.431.679.309.523c.03.062.123.124.154.186l.246.308.463.647.185.309.277.184.185.4.062.093a1.771,1.771,0,0,0,.308.369l.339.309a1.468,1.468,0,0,0,.37.585l.277.278a.729.729,0,0,0,.4.369l.216.031.154-.092a1.451,1.451,0,0,0,.308-.308l.4-.493.123-.278.4-.616.246-.37.216-.247a1.505,1.505,0,0,0,.309-.585v-.093l.369-.617.185-.277.463-.463a.659.659,0,0,0,.123-.153l.154-.216.4-.586.185-.216c.062-.092.123-.123.154-.216l.247-.431.123-.123c.062-.062.154-.093.216-.185l.4-.555.247-.277.278-.031.061.462.093.678v2.127l.061.339.031.74-.062.277-.061.709.061.309-.061.708-.031.093a1.154,1.154,0,0,0-.062.555l.062.616.154.8v.4l-.123.709.061.462-.092.77.031.679a1.251,1.251,0,0,0,.524,1.048.618.618,0,0,0,.339.093h.678l.37-.062.832.031,1.233-.062.771-.062a.84.84,0,0,0,.8-.4l.03-.124a1.487,1.487,0,0,0,.031-.369v-.586l.031-.432-.031-.709.062-.339.031-.74v-.339l-.062-.462v-.309l.031-.246a1.478,1.478,0,0,0,0-.37l-.031-.524v-.432l.031-.709v-.277l-.062-.709-.031-.4-.03-.74-.032-.4.062-.833.093-.616a1.5,1.5,0,0,0-.031-.524l-.031-.123-.093-.771.032-.278v-.277l-.062-.771.123-.832.062-.37.031-.524a1.324,1.324,0,0,0-.093-.524v-.03l-.031-.741-.062-.339v-.77Zm35.944,29.818c0-.092-.031-.153-.031-.216l-.061-.246-.216-.586-.031-.246c-.031-.062-.062-.185-.093-.247l-.246-.432v-.092a3.661,3.661,0,0,0-.247-.493l-.061-.062-.216-.37a1.335,1.335,0,0,0-.339-.37l-.031-.03-.493-.555a1.5,1.5,0,0,0-.4-.493l-.216-.154a.726.726,0,0,0-.277-.186l-.216-.092-.678-.277-.092-.062a1.2,1.2,0,0,0-.432-.154l-.432-.123-.4-.155-.833-.215-.123-.062-.277-.093-.617-.092-.4-.031-.647-.031-.185-.03a1.472,1.472,0,0,0-.37,0l-.246.03-.309.062h-.37l-.678-.092-.37.092-.77-.092-.339.092a1.118,1.118,0,0,0-.555-.092h-.524l-.8.092h-.37v-.031a.913.913,0,0,0-.493-.031l-.4.031-.369-.061-.4-.031a1.013,1.013,0,0,0-.432,0l-.123.031a.693.693,0,0,0-.463.246l-.215.216-.031.277a1.241,1.241,0,0,0,0,.339V176.4l-.031.432-.062.709.031.339v.986a1.75,1.75,0,0,0-.031.4l.031.586-.061.863.03.4-.061.678.061.308v.062a1.489,1.489,0,0,0,.031.369l.093.524-.031.186a.846.846,0,0,0-.031.277l-.031.555.031.4-.062.554a1.048,1.048,0,0,0,0,.432v.154l.093.894.031.8-.031.186c0,.061-.031.184-.031.246l-.031.586v.277l.062.4.062.586v.03a1.5,1.5,0,0,0-.031.648l.031.37v.061a2.117,2.117,0,0,0-.062.4l-.031.586-.031.185a1.37,1.37,0,0,0-.031.37v.616l.031.4.031.77a1.325,1.325,0,0,0-.062.586l.031.4a.111.111,0,0,0,.031.092c.062.339.8.8.8.8l.462.031a1.536,1.536,0,0,0,.524-.031l.123-.062h.648l.308.031.8.062.278.061h.8l.37-.092.093-.093a1.207,1.207,0,0,0,.277-.8l.031-.74.031-.4.031-.709v-.092l-.031-.247-.093-.277-.031-.709v-.494l.124-.647c0-.061.031-.092.031-.185V190.3l-.031-.8v-.4l.4-.493.309.031c.03,0,.123.031.154.031h.339l.308-.031h.463l.554.216.124.246a2.33,2.33,0,0,1,.092.247l.093.185.308.555.062.123a2.643,2.643,0,0,0,.092.277l.308.617.185.246.37.74.093.247.277.709.093.247a1.578,1.578,0,0,0,.184.4l.278.432.154.308.339.617.123.246c0,.031.062.093.062.123l.062.217.277.123a2.214,2.214,0,0,0,.647.092h.093l.709.093.432.031h.8l.339-.062.74.062a1.909,1.909,0,0,0,.585,0l.093-.031a.724.724,0,0,0,.555-.247,2.1,2.1,0,0,0,.37-.678l-.339-.648-.216-.369-.37-.617-.154-.247-.37-.8-.185-.247-.092-.308a2.2,2.2,0,0,0-.37-.555l-.031-.031-.37-.647-.185-.308-.123-.216-.124-.339a1.033,1.033,0,0,0-.339-.524l-.246-.647-.154-.339-.093-.309.154-.432.463-.246.585-.4c.062-.061.124-.092.154-.123l.155-.185.493-.462a1.241,1.241,0,0,0,.4-.4l.278-.431.216-.278.339-.555a2.926,2.926,0,0,0,.154-.308l.061-.246.093-.679.093-.37.092-.8.031-.37v-.37l.031-.4-.031-.339Zm-5.826,1.449a1.579,1.579,0,0,0-.031.555v.092l-.185.709-.123.247-.462.494-.339.215-.278.155-.678.215-.308.124-.678-.031-.34.061h-.4l-.678-.03h-.37l-.37-.093-.432-.4.093-.462.061-.771v-.339l.031-.432a2.018,2.018,0,0,0-.031-.431l-.061-.154-.093-.894-.031-.833.062-.4.462-.37h.309l.431-.031h.74l.308.062c.031,0,.093.03.124.03l.277.062.339-.062.432.062.308.031.616.154.309.185.524.555.308.277.123.709.031.339Zm63.624-35.182-.432-.092a1.01,1.01,0,0,0-.431,0l-.123.03-.741-.03-.4.061h-.8l-.277-.031-.8.031-.463-.031-.709.031-.185-.031a1.456,1.456,0,0,0-.493-.061l-.8.031-.8.03h-.185a1.538,1.538,0,0,0-.37-.03l-.431.061-1.048-.061-.37.092-.679-.062-.493-.03-.616-.093a1.021,1.021,0,0,0-.308,0l-.278.031-.123.185a1.631,1.631,0,0,0-.247.678v.031l.031.771.031.37.062.739-.062.185a.6.6,0,0,0-.031.216l-.061.74v1.078l.061.37-.092.71.061.37-.061.585a2.331,2.331,0,0,0,.031.463l.123.678.031.4-.031.709v.37l-.062.8-.031.4v.8l.031.247-.061.709.092.4-.062.647v.278l.031.216.093.771-.062.153a1.048,1.048,0,0,0-.031.309l-.031.277a1.812,1.812,0,0,0,.062.432l.031.154.062.709-.062.246a1.754,1.754,0,0,0-.031.4l.031.493-.031.37-.123.432a1.451,1.451,0,0,0-.031.524l.031.092-.031.74v.432l.154.832a.847.847,0,0,0,.555.678.324.324,0,0,0,.246.031l.648-.062.246.062a1.179,1.179,0,0,0,.308.093l.741.061h.308l.647-.061.339-.062.678.031h.278l.709-.093.215.031h.247l.586-.031.123.031a1.349,1.349,0,0,0,.493.062l.524-.031h.278l.678-.093h.062a1.431,1.431,0,0,0,.493.062l.431-.031.278.093a1.19,1.19,0,0,0,.462.062h.432l.339-.124h.647l.308-.092.74.061h.062a1.685,1.685,0,0,0,.678.062l.37-.062a.8.8,0,0,0,.555-.277l.184-.216.032-.185c0-.092.03-.185.03-.278v-1.695l-.03-.308V164.4a.808.808,0,0,0-.71-.74h-.092l-.8-.124-.432-.061-.8-.031-.339.031-.74.031-.494.03H505.4a1.608,1.608,0,0,0-.524.062l-.616.062-.339-.031-.771-.093-.37.093-.462-.432-.093-.431-.062-.648.062-.308a.72.72,0,0,0,.062-.246l.031-.463-.031-.4-.031-.648.092-.4.37-.369.34-.062.524.031a1.26,1.26,0,0,0,.339-.031l.154-.031.616-.062.4.032.771.123h.4l.555.092h.462l.679-.031.37-.03h.77a1.573,1.573,0,0,0,.493-.4l.155-.155.03-.123a2.108,2.108,0,0,0,.062-.4V157.4l-.031-.74-.092-.369-.031-.678.031-.247.123-.37-.092-.062a1.817,1.817,0,0,0-.679-.154l-.061-.031-.771.062-.277-.031h-.247l-.524.031-.277-.062h-1.048l-.4.062H505.4a.876.876,0,0,0-.4,0l-.246.031-.586-.031a1.973,1.973,0,0,0-.616-.093l-.493.031-.34-.092-.4-.339-.093-.309V152.9l-.031-.308.062-.648v-.77l.462-.247.371-.031.678-.123.339-.031h1.017l.74.031.184.061a1.549,1.549,0,0,0,.37.062l.586.031.277-.031h.71l.37-.092.739.061.432-.061h.74a1.109,1.109,0,0,0,.647-.463.847.847,0,0,0,.093-.4l.061-.523a1.884,1.884,0,0,0-.031-.4v-.154l-.061-.832.031-.278-.031-.74c0-.277-.648-.894-.648-.894l-.74-.061Zm-97.534,29.541-.062-.308v-.863a.846.846,0,0,0-.277-.709,1.069,1.069,0,0,0-.617-.031l-2.065-.062h-.956a1.742,1.742,0,0,0-.4.031l-.309.062c-.092.031-.185.031-.246.092a3.49,3.49,0,0,0-.648.74l-.061.648v.4l-.062.339a1.676,1.676,0,0,0,.031.555l.031.093v.8l-.031.863v.37l.062.771.061.37-.061.77-.031.833.031.339-.278.431-.4.031-.247.061h-.8l-.431.031h-.678l-.216-.031a1.054,1.054,0,0,0-.308,0l-.586.031-.308-.031-.771-.061-.247-.031a.885.885,0,0,0-.277-.061l-.647-.031-.4.092h-.8l-.308-.123-.37-.339-.092-.4-.062-.74-.123-.863.061-.339.031-.8v-.339l-.031-.832.093-.709V175.63l-.031-.4-.062-.37a1.106,1.106,0,0,0-.184-.617,2.315,2.315,0,0,0-.463-.431l-.216-.062a.669.669,0,0,0-.246-.031l-.524-.03-.308.03-.864-.03-.8-.062-.339.031-.771.031h-.031a1.611,1.611,0,0,0-.647.4l-.092.123-.062.339c0,.062-.031.155-.031.247v.555l.124.4-.031.617-.031.4-.062.709.031.493-.062.308a1.3,1.3,0,0,0,.093.678l.031.031-.062.648-.031.277c0,.093-.031.185-.031.309l.062.555-.031.369-.092.74.061.37-.03.77.03.339-.061.494v.247l.031.184.061.8.124.4-.031.647-.093.277-.031.278c0,.092-.03.185-.03.277l.03.462.031.339v.741l-.031.123a2.392,2.392,0,0,0-.03.462l.061.586v.031a2.209,2.209,0,0,0-.123.616l.031.339-.031.278v.74l.031.492.031.741v.339l.061.678.062.308-.062.586v.216a1.525,1.525,0,0,0,.339.709v.03l.247.062a.846.846,0,0,0,.277.031h.586l.462-.062h.678l.463-.031.74.062.277-.062.709.062c.062,0,.154.031.185,0,.278-.123.678-.74.709-.74l-.062-.8v-.432l.031-.678-.031-.308.062-.71-.093-.276.062-.71.031-.37-.093-.863.031-.061a1.523,1.523,0,0,0,0-.648l-.061-.369.061-.432.062-.709-.031-.37.524-.4h1.079l.308-.031.864.062.4-.031.494.031a1.434,1.434,0,0,0,.493-.062l.092-.03.647-.031.278.031c.061,0,.185.03.246.03l.555-.03.278.03.4-.061.678.123.431.031.432.431-.031.4-.062.771.031.37-.061.678v.277l.123.771-.031.339-.031.709-.061.339v.278l.03.493.062.339-.031.709.031.277-.062.432a1.1,1.1,0,0,0,.093.709,1.822,1.822,0,0,0,.431.4l.185.061a1.046,1.046,0,0,0,.432.062h.524l.432-.031.678.093.308-.062.4.093a1.8,1.8,0,0,0,.4.03l.216-.03.709-.093a.754.754,0,0,0,.555-.185l.185-.247.031-.061a1.636,1.636,0,0,0,.061-.555l-.031-.586a1.612,1.612,0,0,0,.124-.524l.031-.462-.062-.432.062-.493a1.318,1.318,0,0,0,0-.493v-.124l-.062-.709-.031-.369v-.709a1.569,1.569,0,0,0,.093-.648v-.462l-.062-.4-.093-.709v-1.14l.031-.339.062-.74v-.4l.062-.74-.031-.246v-1.264l-.031-.648v-.308l.031-.678v-.154a1.26,1.26,0,0,0,.031-.339l-.031-.555.031-.308.031-.8-.062-.37v-.863l.031-.37.092-.709v-.061a1.37,1.37,0,0,0-.031-.37Zm44.585-7.994.525-.246a1.151,1.151,0,0,0,.277-.154l.123-.093.185-.246.37-.247a1.813,1.813,0,0,0,.37-.309v-.03l.493-.555.123-.124c.062-.061.155-.123.185-.185l.216-.308a1.176,1.176,0,0,0,.185-.339l.093-.216.277-.678.062-.216c0-.061.03-.184.03-.246l.031-.617.031-.339v-.432l-.062-.431-.03-.431-.062-.339a1.242,1.242,0,0,0-.216-.648l-.154-.739a1.347,1.347,0,0,0-.216-.525l-.246-.339-.031-.092a2.071,2.071,0,0,0-.339-.432l-.308-.308-.278-.247-.709-.555-.277-.246-.494-.37a.617.617,0,0,0-.184-.123l-.216-.124-.432-.215a1.333,1.333,0,0,0-.462-.154l-.154-.031-.617-.216L454,155.3l-.339-.184h-.031l-.308-.155-.339-.092-.648-.37-.092-.031a1.6,1.6,0,0,0-.493-.185l-.031-.031-.308-.185-.339-.154-.524-.431-.216-.186-.339-.616.03-.277-.092-.37.031-.432.246-.462.34-.247.678-.154.277-.062.647-.061h.463a1.55,1.55,0,0,0,.647,0h.031l.339.03.678.062c.031,0,.031.031.062.031l.37.031.339-.062.4.093.4-.031.617.278.247.153c.061.031.154.062.215.093l.339.093a1.6,1.6,0,0,0,.37.061.718.718,0,0,0,.524-.216,3.335,3.335,0,0,0,.247-.37l-.031-.8.031-.278c0-.061.031-.185.031-.246v-1.356l.03-.709-.03-.154a1.142,1.142,0,0,0-.216-.432l-.216-.339a1.4,1.4,0,0,0-.585-.247l-.37-.062-.309-.061-.678-.154-.247-.093c-.092-.031-.184-.031-.277-.062l-.431-.061-.432-.062-.647-.03-.894-.062-.124-.031a1.159,1.159,0,0,0-.462,0l-.031.031h-.4l-.431-.031h-.462a1.048,1.048,0,0,0-.309.031l-.246.062-.648.153-.462.093-.647.185-.124.062a1.644,1.644,0,0,0-.4.215l-.124.093-.185.031a2.065,2.065,0,0,0-.462.216l-.093.092-.616.339-.277.154c-.062.031-.124.093-.185.124l-.463.339-.092.092c-.093.093-.216.185-.309.278l-.308.4-.123.185c-.031.062-.093.093-.123.185l-.278.586-.123.431-.216.617a1.365,1.365,0,0,0-.247.678l-.03.277.03.34-.03.369v.4l.092.37.031.586c0,.092.031.154.031.216l.092.339.155.647.03.216a.963.963,0,0,0,.093.277v.031a1.566,1.566,0,0,0,.524.678,1.493,1.493,0,0,0,.339.555l.216.216.061.092a1.5,1.5,0,0,0,.339.278l.432.308.123.123.278.185.493.308.339.247.678.339.339.154.4.216a1.173,1.173,0,0,0,.4.185l.185.031.123.092a1.027,1.027,0,0,0,.431.154l.062.032.4.153.616.247.278.093a2.307,2.307,0,0,0,.246.092l.617.123.277.247.494.339.308.246.216.555v.432l-.031.277-.062.339-.4.586-.308.123-.647.216-.432.031h-.277l-.4.062h-.339l-.709.061-.37-.03-.431-.124-.34-.03-.77-.093-.463-.062-.678-.123-.216-.093a1.3,1.3,0,0,0-.308-.123l-.4-.123-.4-.093-.339-.185a.558.558,0,0,0-.648-.03,3.613,3.613,0,0,0-.369.37l-.093.678.062.37-.031.678.062.277v.678l-.031.154v.864a1.575,1.575,0,0,0,.215.523l.185.309.124.093a1.492,1.492,0,0,0,.493.246l.431.154.37.093.8.216.37.061.493.092a1.007,1.007,0,0,0,.524.031h.154l.74.031.216.031.8.062h.308l.4.031.37-.031.154.031a1.185,1.185,0,0,0,.462.03l.37-.061a.675.675,0,0,0,.247-.031l.4-.124.678-.092h.246a.858.858,0,0,0,.309-.031,1.288,1.288,0,0,0,.8-.339ZM431.062,192.06a.806.806,0,0,0-.709-.74h-.092l-.8-.124-.431-.061-.8-.031-.339.031-.739.03-.494.031h-1.726a1.608,1.608,0,0,0-.524.062l-.616.062-.34-.031-.77-.093-.37.093-.463-.432-.092-.431-.062-.648.062-.308a.725.725,0,0,0,.062-.246l.03-.463-.03-.4-.031-.647.092-.4.37-.37.339-.061.524.031a1.253,1.253,0,0,0,.339-.031l.155-.031.616-.062.4.031.77.123h.4l.555.093h.462l.679-.031.369-.031h.771a1.557,1.557,0,0,0,.493-.4l.154-.155.031-.123a2.1,2.1,0,0,0,.062-.4v-.832l-.031-.74-.092-.37-.031-.678.031-.247.123-.369-.093-.062a1.808,1.808,0,0,0-.678-.154l-.061-.031-.771.062-.277-.031h-.247l-.524.031-.278-.062H425.39l-.4.062h-.062a.876.876,0,0,0-.4,0l-.246.031-.586-.031a1.979,1.979,0,0,0-.617-.093l-.493.031-.339-.093-.4-.339-.092-.308v-1.109l-.031-.309.062-.647v-.771l.462-.246.37-.031.678-.123.339-.031h1.018l.739.031.185.061a1.549,1.549,0,0,0,.37.062l.586.031.277-.031h.709l.37-.093.74.062.432-.062h.739a1.105,1.105,0,0,0,.648-.462.859.859,0,0,0,.092-.4l.062-.524a1.88,1.88,0,0,0-.031-.4v-.155l-.062-.832.031-.277-.031-.74c0-.277-.647-.894-.647-.894l-.74-.062-.431.093-.432-.093a1.043,1.043,0,0,0-.431,0l-.124.031-.74-.031-.4.062h-.8l-.277-.031-.8.031-.462-.031-.709.031-.185-.031a1.456,1.456,0,0,0-.493-.061l-1.6.061h-.185a1.494,1.494,0,0,0-.37-.031l-.431.062-1.048-.062-.371.093-.678-.062-.493-.031-.616-.092a1.026,1.026,0,0,0-.309,0l-.277.031-.123.185a1.613,1.613,0,0,0-.247.678v.03l.031.772.031.369.061.74-.061.185a.6.6,0,0,0-.031.216l-.062.739v1.079l.062.371-.093.709.062.369-.062.586a2.318,2.318,0,0,0,.031.462l.124.679.03.4-.03.709v.37l-.062.8-.031.4v.8l.031.246-.062.709.093.4-.062.647v.278l.031.216.092.77-.061.154a1.048,1.048,0,0,0-.031.309l-.031.277a1.8,1.8,0,0,0,.062.431l.031.155.061.709-.061.246a1.75,1.75,0,0,0-.031.4l.031.493-.031.37-.124.432a1.475,1.475,0,0,0-.03.524l.03.092-.03.74v.432l.154.832a.845.845,0,0,0,.555.678.324.324,0,0,0,.246.031l.648-.062.246.062a1.179,1.179,0,0,0,.308.093l.74.061h.309l.647-.061.339-.062.678.031h.277l.709-.093.216.031h.247l.585-.031.124.031a1.349,1.349,0,0,0,.493.062l.524-.031h.278l.678-.093h.061a1.437,1.437,0,0,0,.494.062l.431-.031.277.093a1.216,1.216,0,0,0,.463.061h.432l.339-.123h.647l.308-.093.74.062h.062a1.684,1.684,0,0,0,.678.062l.37-.062a.8.8,0,0,0,.554-.278l.185-.215.031-.185c0-.092.031-.185.031-.278v-1.7l-.031-.308Zm68.926,1.88-.215-.617-.093-.308-.277-.678-.247-.339-.247-.74-.123-.247-.216-.678-.215-.308-.216-.771-.308-.832-.185-.339-.247-.74-.092-.215-.278-.648-.185-.37-.185-.555-.185-.4-.215-.771-.124-.308-.339-.832-.37-.71v-.185a1.522,1.522,0,0,0-.092-.493l-.154-.4-.216-.432-.309-.771-.308-.709-.061-.216-.093-.277-.246-.493-.278-.339-.123-.648c-.031-.123-.062-.184-.093-.277l-.092-.216-.277-.616-.155-.339-.277-.586-.154-.432-.308-.708-.154-.34-.062-.03a1.351,1.351,0,0,0-.956-.339l-.709.123-.185-.062a2.317,2.317,0,0,0-.462-.031l-.555.031-.216-.061a2.065,2.065,0,0,0-.431-.062h-.648a1.1,1.1,0,0,0-.308.062l-.215.061-.124.062a1.371,1.371,0,0,0-.493.555l-.124.277-.37.679-.308.862-.154.37-.277.709-.062.308-.277.679-.093.185a.627.627,0,0,0-.123.246l-.216.555-.031.277-.339.617a1.417,1.417,0,0,0-.123.216l-.247.678-.123.493-.339.771-.339.709-.154.4-.185.37a2.917,2.917,0,0,0-.154.493l-.031.185-.185.678-.154.431-.185.679-.093.092a.818.818,0,0,0-.154.277l-.246.493-.155.37-.308.71-.246.832-.124.246-.339.709v.37l-.308.678-.185.216-.308.586a2,2,0,0,0-.123.308l-.031.185-.216.74-.092.4-.216.647-.216.339-.339.617a.947.947,0,0,0,.061.555.543.543,0,0,0,.463.184l.863.093.432.031.678-.031.4-.031.74-.031a1.654,1.654,0,0,0,.679.124h.493a1.01,1.01,0,0,0,.77-.339.774.774,0,0,0,.216-.371l.247-.709.092-.246.339-.709.093-.432.308-.709.092-.247.586-.338.431-.154h.8l.4-.031.832.061.832-.03h.37l.771.092.308-.092.524.092a1.032,1.032,0,0,0,.309,0h1.017l.462-.092.524.37.031.215a1.385,1.385,0,0,0,.092.463l.185.431v.124a2.146,2.146,0,0,0,.093.431l.154.431.185.37.246.617.154.37.062.031a1.411,1.411,0,0,0,.863.339l.709-.031.124.062a1.741,1.741,0,0,0,.4.031h.833l.123.031a1.537,1.537,0,0,0,.524,0l.431-.031.463-.124h.339a.671.671,0,0,0,.647-.308,3.961,3.961,0,0,0,.216-.555l-.185-.678Zm-8.661-6.751-.463.092-.524-.03a1.026,1.026,0,0,0-.308,0l-.185.03-.74.093-.308.092-.771-.154-.37-.092-.277-.37.092-.4.216-.8.062-.154c.031-.093.092-.155.123-.247l.216-.74.277-.77.154-.247a.862.862,0,0,0,.124-.339l.123-.555.062-.216.246-.678.154-.308.093-.339.277-.031.062.277c0,.031.031.124.031.155l.092.215.339.771.123.339.124.648.031.154a1.075,1.075,0,0,0,.03.308l.093.4c.031.093.062.186.092.278l.093.154.339.678v.031a1.708,1.708,0,0,0,.154.524l.247.493.092.4Zm28.884-.093-.123-.862c.061-.216-.093-.463-.34-.679l-.215-.03a1.312,1.312,0,0,0-.339-.062H518.7l-.4.031-.586-.031-.339.062-.648-.031-.277.031-.431-.062a1.033,1.033,0,0,0-.679.062.937.937,0,0,0-.4.246l-.123.093-.031.184a1.173,1.173,0,0,0-.031.463l.092.493.031.37.062.8-.123.832.061.4-.092.679-.031.462-.216.462h-.308l-.339.154-.678.031h-.4l-.37.062-.647.031-.8-.124-.339-.123-.647-.308-.339-.185-.771-.339-.339-.185-.617-.4-.154-.277-.462-.678-.093-.185c-.03-.093-.061-.185-.092-.277l-.308-.586-.216-.247-.277-.74.03-.431-.061-.709v-.155a1.121,1.121,0,0,0-.093-.462l-.031-.154v-.308l-.03-.4.03-.585.432-.925v-.37l.308-.648.185-.277.524-.678.185-.216.462-.4.37-.277.555-.4.309-.154.524-.247h.092a2.391,2.391,0,0,0,.462-.03l.494-.124.339-.062.8-.061.463-.093.77-.061.8.061.493.093.8.154.894.216h.4l.894.277.616.216a.655.655,0,0,0,.771.062c.185-.155.339-.309.339-.309v-.4l.062-.617v-.74l-.093-.339.031-.092a1.487,1.487,0,0,0,0-.524l-.031-.092v-.833l-.061-.185a1.018,1.018,0,0,0-.093-.185l-.061-.123a1.522,1.522,0,0,0-.617-.555l-.524-.308-.308-.062-.123-.062a1.341,1.341,0,0,0-.37-.123l-.185-.031-.34-.061-.709-.216-.339-.031-.616-.093-.185-.061a1.788,1.788,0,0,0-.4-.062h-.431l-.278.062-.709-.031-.462-.031-.37-.03-.37-.062H511.7a1.735,1.735,0,0,0-.4,0l-.524.123-.369.092-.555.062-.339.124-.648.123-.37.216-.8.184-.339.155-.278.061c-.061.031-.092.031-.154.062l-.308.092-.277.155-.617.308-.277.215-.37.247a1.5,1.5,0,0,0-.339.278l-.124.185-.431.277a1.188,1.188,0,0,0-.278.277l-.154.155-.339.493-.247.246a.861.861,0,0,0-.154.185l-.308.524-.247.339-.462.617-.185.277-.123.216a1.314,1.314,0,0,0-.247.678l-.185.4a1.7,1.7,0,0,0-.123.463v.092l-.185.678-.061.4-.217.647-.03.062a2.591,2.591,0,0,0-.155.524l-.03.524v1.048l.061.4.062.709.062.339.185.77v.216c0,.062.03.185.03.246l.062.4c.031.092.062.215.093.339l.092.215.339.771.124.277.339.586.154.37.37.586.185.247.4.554.124.185c.061.062.092.123.185.216l.493.493v.031a1.816,1.816,0,0,0,.462.524l.339.185.309.185.524.4.154.154a1.317,1.317,0,0,0,.246.185l.309.184a1.814,1.814,0,0,0,.369.155l.155.031.709.308.308.061a1.3,1.3,0,0,0,.617.309l.215.061.4.093.493.123a1.541,1.541,0,0,0,.37.062h.185l.74.092.4.062.709.093.771.03.278-.03.092.03a1.142,1.142,0,0,0,.555.062l.524-.062.462-.185.709-.092h.37l.647-.123.37-.124.709-.092.4-.123.8-.186a2,2,0,0,0,.246-.092l.647-.277a.848.848,0,0,0,.524-.4l.185-.308.031-.186a1.253,1.253,0,0,0,.031-.339l-.031-.739-.061-.309.03-.862.062-.339v-.8a1.6,1.6,0,0,0,.123-.648l-.03-.431v-1.017l.03-.278v-.339l-.061-.586Zm-59.542-9.247v-.339l-.031-.709v-.493l-.092-.586.031-.4.031-.556a.732.732,0,0,0-.093-.462,3.35,3.35,0,0,0-.555-.462l-1.079-.154-.37.03-.647-.061h-.246l-.74.031-.4.03-.74-.092a1.231,1.231,0,0,0-.678.4l-.123.092-.031.308v.247l.031.648v1.417l.061.74.062.37-.093.77v.37l-.03.678.03.432-.092.648a1.478,1.478,0,0,0,0,.37v.123l.062.739v.432l.061.616.031.278-.123.678c0,.062-.031.124-.031.216v1.356l.123.863.062.894-.062.154a.855.855,0,0,0-.031.278l-.03.709-.031.308v.278l.061.739v.771l.062.37-.031.709-.031.339a1.294,1.294,0,0,0-.03.339l.061.617-.031.308-.03.8v.309l.061.554a.956.956,0,0,0,.154.524,3.365,3.365,0,0,0,.555.463l.771.031.308.062.586.061h.277l.247-.031.77-.03.37-.093h.679l.123-.031a1.7,1.7,0,0,0,.524-.185c.123-.093.154-.185.154-.4l.062-.432v-1.572l-.093-.278.093-.863-.062-.339.062-.74-.062-.431-.031-.586.062-.185a1.041,1.041,0,0,0,.031-.308v-1.017l.031-.741-.031-.431-.062-.709v-1.048l.031-.185a1.735,1.735,0,0,0,0-.4l-.062-.647.031-.277v-.247l-.031-.616.062-.309.062-.647-.062-.431.062-.648.03-.031a1.982,1.982,0,0,0,.062-.585l-.031-.463.031-.339v-.678l-.092-.4Zm18.628.678.4.031a1.279,1.279,0,0,0,.493-.278.567.567,0,0,0,.154-.523v-.37l.032-.678.03-.093a1.479,1.479,0,0,0,0-.37l-.062-.524-.061-.4-.031-.617v-.155c-.123-.308-.863-.832-.863-.832h-.925l-.77-.03-.37.03-.74-.03-.4.03-.647.031-.432-.031-.37-.03a1.368,1.368,0,0,0-.616.061l-.185.062-.586.031-.4-.062-.679-.062-.431.093-2.035-.154h-.77l-.463.123-.616-.031-.216-.061a1.349,1.349,0,0,0-.493-.062h-.432l-.37.092h-.585l-.4-.03-.647.03-.278-.061a1.478,1.478,0,0,0-.37,0l-.493.031a.993.993,0,0,0-.771.369l-.092.34a.725.725,0,0,0-.062.277l-.031.339a1.2,1.2,0,0,0,0,.462l.031.216.031.648-.031.277c0,.123.031.185.031.277l.123.678-.092.339a1.109,1.109,0,0,0,.462.586l.154.031h.309l.647-.031.339-.092.74.061.339-.03.185.061a.894.894,0,0,0,.277.062h.185a1.519,1.519,0,0,0,.524-.062l.093-.031.709.031h.308l.277.031.308.339.032.4.031.771.061.37.031.8-.031.956v.4l-.061.648-.031.246c0,.062-.032.185-.032.247v.986l-.03.617a1.546,1.546,0,0,0,.03.37v.092l.124.709v.339l-.061.709-.031.154a1.218,1.218,0,0,0-.032.339l.032.525v1.51l.092.339-.031.37v.308l.062.74-.062.369.031.679-.061.277c0,.093-.031.185-.031.278l.031.586-.031.308.031.74v.061a1.228,1.228,0,0,0,.462.74l.123.031a1.015,1.015,0,0,0,.432,0l.493-.062h.462l.647.062.339.062.432.031a1.194,1.194,0,0,0,.586-.062l.709-.062c.216.031.616-.123.894-.648a1.381,1.381,0,0,1,.061-.153l-.092-.709.062-.247a1.345,1.345,0,0,0,.061-.339v-.617l-.092-.246v-.74a1.139,1.139,0,0,0,.092-.678l-.031-.247v-.37l.031-.709v-.37l.062-.4a1.527,1.527,0,0,0-.031-.648l-.031-.03.062-.709v-.432l-.031-.709.031-.308v-.247l-.031-.555.031-.215v-.278l-.031-.647-.154-.278v-1.109l.123-.709.031-.186v-.277l-.062-.555.031-.092a3.02,3.02,0,0,0,.062-.524l-.031-.524-.062-.277.093-.8-.031-.309.493-.431.493-.031h.709l.093.031a2.012,2.012,0,0,0,.432,0l.462-.031.339-.092.771.031.37.061Zm59.672,14.365v-.832a.8.8,0,0,0-.709-.74h-.092l-.8-.124-.431-.061-.8-.031-.339.031-.74.03-.493.031h-1.726a1.609,1.609,0,0,0-.524.062l-.617.062-.339-.031-.77-.093-.37.093-.462-.432-.093-.431-.062-.648.062-.308a.725.725,0,0,0,.062-.246l.031-.463-.031-.4-.031-.647.092-.4.37-.37.339-.061.524.031a1.253,1.253,0,0,0,.339-.031l.155-.031.616-.062.4.031.771.123h.4l.555.093h.462l.678-.031.37-.031h.771a1.557,1.557,0,0,0,.493-.4l.155-.155.03-.123a2.1,2.1,0,0,0,.062-.4v-.832l-.031-.74-.092-.37-.031-.678.031-.247.123-.369-.092-.062a1.817,1.817,0,0,0-.679-.154l-.062-.031-.77.062-.278-.031h-.246l-.524.031-.277-.062H533.3l-.4.062h-.062a.872.872,0,0,0-.4,0l-.247.031-.586-.031a1.979,1.979,0,0,0-.617-.093l-.493.031-.339-.093-.4-.339-.093-.308v-1.109l-.031-.309.062-.647v-.771l.462-.246.37-.031.678-.123.339-.031h1.017l.741.031.185.061a1.533,1.533,0,0,0,.369.062l.586.031.277-.031h.709l.37-.093.74.062.432-.062h.74a1.1,1.1,0,0,0,.647-.462.859.859,0,0,0,.092-.4l.062-.524a1.88,1.88,0,0,0-.031-.4v-.155l-.062-.832.031-.277-.031-.74c0-.277-.647-.894-.647-.894l-.74-.062-.431.093-.432-.093a1.043,1.043,0,0,0-.431,0l-.124.031-.739-.031-.4.062h-.8l-.277-.031-.8.031-.463-.031-.709.031-.185-.031a1.456,1.456,0,0,0-.493-.061l-.8.03-.8.031h-.185a1.49,1.49,0,0,0-.37-.031l-.432.062-1.047-.062-.37.093-.678-.062-.494-.031-.616-.092a1.027,1.027,0,0,0-.309,0l-.277.031-.123.185a1.613,1.613,0,0,0-.247.678v.03l.031.772.031.369.061.74-.061.185a.6.6,0,0,0-.031.216l-.062.739v1.079l.062.371-.093.709.062.369-.062.586a2.32,2.32,0,0,0,.031.462l.124.679.03.4-.03.709v.37l-.062.8-.031.4v.8l.031.246-.062.709.093.4-.062.647v.278l.031.216.092.77-.061.154a1.048,1.048,0,0,0-.031.309l-.031.277a1.8,1.8,0,0,0,.062.431l.031.155.061.709-.061.246a1.75,1.75,0,0,0-.031.4l.031.493-.031.37-.124.432a1.474,1.474,0,0,0-.03.524l.03.092-.03.74v.432l.154.832a.845.845,0,0,0,.554.678.328.328,0,0,0,.247.031l.648-.062.246.062a1.175,1.175,0,0,0,.309.093l.739.061h.309l.647-.061.339-.062.678.031h.278l.709-.093.215.031h.247l.586-.031.123.031a1.349,1.349,0,0,0,.493.062l.524-.031h.277l.679-.093h.061a1.439,1.439,0,0,0,.494.062l.431-.031.278.093a1.208,1.208,0,0,0,.462.061h.431l.339-.123h.648l.308-.093.74.062h.062a1.684,1.684,0,0,0,.678.062l.37-.062a.8.8,0,0,0,.555-.278l.185-.215.03-.185c0-.092.031-.185.031-.278v-1.7Zm-14.331-24.609a1.269,1.269,0,0,0,.586-.062,1.482,1.482,0,0,0,.493-.4l.031-.123a2.082,2.082,0,0,0,.062-.463l-.031-.523.031-.432.03-.709.062-.493a1.382,1.382,0,0,0,0-.617l-.031-.061-.031-.648v-.339l-.03-.678.03-.247c0-.061-.03-.184-.03-.246l-.062-.555.062-.339v-.832l.03-.4.247-.617.123-.308.4-.647.216-.463.431-.678.154-.123a.912.912,0,0,0,.124-.185l.216-.277a1.445,1.445,0,0,0,.216-.432l.277-.462a1.731,1.731,0,0,0,.216-.494v-.092l.37-.771.185-.246.493-.617.185-.339.493-.647.123-.247.339-.462c.062-.093.123-.216.185-.309l.123-.246.278-.617.123-.154a.9.9,0,0,0,.216-.339l.216-.493.185-.308.4-.74.123-.339.462-.647.185-.37.308-.555c0-.031.031,0,.031-.031l.185-.432-.062-.308h-.03a1.065,1.065,0,0,0-.586-.123l-.339-.031a1.172,1.172,0,0,0-.678.093l-.678-.031-.37.061L530.31,146a1.02,1.02,0,0,0-.308,0l-.647.031-.278.123-.678-.092a1.2,1.2,0,0,0-.74.215.828.828,0,0,0-.339.4l-.123.277-.37.648-.123.123a1.115,1.115,0,0,0-.247.37l-.216.462-.216.339-.277.709-.123.124a2.021,2.021,0,0,0-.216.339l-.216.462-.216.308-.246.34a1.484,1.484,0,0,0-.247.493l-.031.062-.431.77-.154.308-.432.709-.246.432-.432-.093-.123-.339-.216-.462c-.062-.093-.154-.216-.216-.308l-.154-.185-.031-.093a2.83,2.83,0,0,0-.154-.308l-.277-.431-.216-.247-.4-.586-.031-.247c-.031-.092-.092-.215-.123-.308l-.247-.524-.061-.277a2.518,2.518,0,0,0-.124-.278l-.246-.554-.216-.247-.339-.617-.216-.431-.4-.647a1.429,1.429,0,0,0-.709-.555,1.562,1.562,0,0,0-.647-.093l-.431.031-.339.031-.679-.031-.369-.031-.617-.092a1.257,1.257,0,0,0-.339-.031h-.463l-.431.062-.062-.031a1.326,1.326,0,0,0-.493-.031l-.4.062a.816.816,0,0,0-.462.339l-.092.184.03.062a1.245,1.245,0,0,0,.247.493l.308.37.093.247a.752.752,0,0,0,.123.278l.308.493.123.277a.68.68,0,0,0,.155.247l.369.462.154.308.34.493.154.309.247.524a1.42,1.42,0,0,0,.185.277l.092.093.247.4.4.555.031.093a1.13,1.13,0,0,0,.216.431l.246.37.124.339.185.432a1.069,1.069,0,0,0,.215.37l.124.123.431.555a1.178,1.178,0,0,0,.247.524l.277.4.154.339.371.555v.061a1.14,1.14,0,0,0,.215.432l.092.154.278.493.154.277.494.648.154.37.092.8.062.894.061.4.062.8v.8l-.062.308.031.863-.061.247a1.241,1.241,0,0,0,0,.339v.493l.092.339.062.648v.616a.814.814,0,0,0,.123.709,1.373,1.373,0,0,0,.647.493h.031l.771.093h.8l.247.062a1.792,1.792,0,0,0,.4,0l.863-.093Zm-62.24-41.5c.3.129.359-.012.657.117s.238.266.536.395.367-.029.665.1.293.141.592.27a1.72,1.72,0,0,1,.714,1.1c0,.314-.149.314-.149.628s.1.315.1.629-.049.315-.049.63.081.314.081.629-.015.315-.015.629-.011.315-.011.63-.013.315-.013.63.041.314.041.629-.1.315-.1.63.114.315.114.63-.007.314-.007.629-.081.315-.081.629-.046.316-.046.631-.026.315-.026.63.118.315.118.631.062.315.062.631-.039.316-.039.632c0,.2-.028.445.106.579s.376.1.579.1c.3,0,.3-.011.606-.011s.3.044.606.044.3-.047.607-.047.3-.007.607-.007.3.1.607.1.3-.054.609-.054.3.048.608.048a.773.773,0,0,0,.534-.22.763.763,0,0,0,.209-.534c0-.33.006-.33.006-.659s-.072-.329-.072-.659.038-.328.038-.658.08-.329.08-.658.026-.33.026-.659-.168-.33-.168-.659.048-.329.048-.659.046-.329.046-.659-.008-.33-.008-.659.086-.33.086-.66-.08-.329-.08-.659,0-.33,0-.66.03-.329.03-.658-.072-.33-.072-.659.11-.33.11-.66-.044-.33-.044-.66.034-.33.034-.66-.142-.331-.142-.662.157-.33.157-.661c0-.2-.005-.469,0-.736s-.04-.535-.032-.738c.013-.323.005-.324.018-.647s-.048-.326-.035-.649.005-.324.018-.647.15-.318.163-.641-.035-.325-.022-.648-.024-.324-.011-.647-.018-.324-.005-.647.068-.321.082-.644,0-.324.016-.647.029-.322.042-.646.014-.323.027-.647.021-.323.034-.647,0-.323.013-.647.053-.321.067-.644-.108-.328-.1-.651.151-.318.164-.641-.07-.327-.056-.65-.025-.325-.012-.649.081-.321.094-.644-.005-.324.008-.648-.076-.327-.063-.65.14-.318.153-.641.05-.322.063-.646-.084-.327-.071-.651-.018-.325-.005-.648l.026-.647c.013-.324-.017-.325,0-.648s.019-.323.032-.647.063-.322.077-.645.125-.319.138-.643-.091-.328-.077-.651.059-.322.072-.645-.1-.329-.085-.652.105-.32.118-.644.041-.322.054-.646.027-.323.04-.647-.051-.326-.038-.649,0-.323.012-.646.059-.322.072-.645-.084-.327-.07-.651.078-.321.091-.644-.054-.326-.041-.65.02-.323.033-.647.036-.323.049-.646.018-.324.032-.647.051-.323.064-.647.069-.321.083-.645,0-.324.013-.648-.027-.326-.013-.65-.054-.326-.041-.65.165-.318.178-.642-.039-.326-.025-.649-.1-.329-.084-.653.072-.322.086-.646.123-.32.136-.644.022-.324.036-.648-.05-.328-.037-.653-.071-.328-.058-.653a.816.816,0,0,1,.318-.5c.139-.133.306-.322.509-.322.309,0,.309.11.619.11s.31-.079.62-.079.311.138.621.138.311-.058.621-.058a.682.682,0,0,1,.474.251.712.712,0,0,1,.3.458c.017.321-.029.324-.011.645s.089.316.107.637.027.321.045.642-.043.324-.025.645.045.32.063.641-.051.325-.033.646.125.315.143.636.012.321.03.642.081.318.1.639-.061.326-.043.647-.084.327-.067.648.171.313.189.634-.126.329-.109.65.182.312.2.633-.051.325-.033.647.075.318.093.639-.01.323.008.644-.048.325-.03.646.036.32.054.642.105.316.123.637.005.322.023.644-.091.327-.073.648.139.315.157.635-.105.328-.087.648-.009.323.009.644.025.32.043.642-.009.323.009.644.051.319.069.64-.013.323.005.644l.036.643c.018.321.086.317.1.639s.045.32.062.641.092.318.11.639-.141.33-.123.652.061.319.079.641,0,.323.015.644.144.315.162.637-.031.324-.013.645.074.318.092.64-.124.329-.106.651-.005.324.013.646.157.314.175.636-.124.33-.106.653.157.315.175.637a1.1,1.1,0,0,0,.239.566c.13.187.211.459.4.539.3.128.328.052.623.18s.3.122.593.25.257.216.552.344.3.106.6.234.335.034.63.162.262.2.557.332.287.146.582.274.3.115.6.243.312.087.607.215.3.115.6.242.3.109.6.237.251.232.546.36.331.043.627.171.255.22.55.348.325.057.621.185.272.18.568.308.3.1.6.233.338.031.633.159.282.158.577.286.262.2.557.331.309.094.6.222.331.045.626.173.3.118.594.246.256.22.551.348.267.19.562.318.335.037.63.165.272.181.567.309.3.124.592.252.328.055.623.183.244.245.54.373.35,0,.646.13.311.091.606.219.286.151.581.279.249.235.545.363.316.079.611.207.262.205.557.333.364-.028.66.1.266.2.562.325.309.1.605.225.295.131.592.259.267.2.563.325a1.076,1.076,0,0,1,.465.411c.123.187.3.388.3.591,0,.314-.057.314-.057.628s.025.315.025.629-.011.315-.011.63-.1.314-.1.629.03.315.03.629-.033.315-.033.63.092.315.092.63-.108.314-.108.629.164.315.164.63-.08.315-.08.63.025.314.025.629.061.315.061.629-.132.316-.132.631-.047.315-.047.63.025.315.025.631.05.315.05.631-.029.316-.029.632c0,.2.166.345.3.479a.614.614,0,0,0,.479.18c.3,0,.3.051.6.051s.3-.047.607-.047.3.113.607.113.3-.009.607-.009.3.025.607.025.3-.106.608-.106.3.084.609.084a.762.762,0,0,0,.515-.254.712.712,0,0,0,.2-.516c0-.329-.013-.329-.013-.657s.073-.328.073-.656-.059-.328-.059-.656,0-.329,0-.657.025-.329.025-.657.011-.328.011-.656-.032-.329-.032-.657.023-.329.023-.658-.008-.328-.008-.657.064-.329.064-.657-.108-.329-.108-.658.007-.329.007-.657-.048-.329-.048-.658.118-.329.118-.658-.063-.329-.063-.658.006-.328.006-.657.079-.328.079-.657-.039-.329-.039-.658-.032-.33-.032-.659.093-.329.093-.658-.1-.33-.1-.66.1-.33.1-.66c0-.2-.188-.4-.31-.587a1.055,1.055,0,0,0-.47-.395c-.3-.129-.25-.237-.548-.366s-.293-.14-.59-.269-.347-.015-.645-.144-.31-.1-.607-.229-.281-.165-.579-.294-.306-.109-.6-.238-.288-.152-.585-.281-.31-.1-.607-.232-.306-.109-.6-.238-.262-.21-.559-.339-.3-.115-.6-.244-.324-.069-.622-.2-.274-.184-.571-.313-.259-.218-.557-.347-.341-.029-.639-.158-.285-.157-.583-.286-.286-.155-.584-.284-.315-.089-.613-.218-.324-.066-.622-.195-.269-.194-.566-.323-.273-.185-.57-.314-.3-.132-.593-.261-.335-.043-.632-.172-.282-.167-.579-.3-.265-.2-.563-.333-.295-.133-.593-.262-.345-.02-.643-.149-.268-.2-.566-.325-.326-.064-.624-.194-.322-.072-.62-.2-.244-.253-.542-.382-.32-.08-.617-.209-.26-.219-.558-.348-.356,0-.654-.124-.277-.177-.574-.306-.265-.205-.563-.334-.343-.027-.641-.156-.278-.176-.576-.305-.289-.152-.588-.281a5.794,5.794,0,0,0-.629-.176,5.769,5.769,0,0,1-.611-.238c-.186-.081-.3-.322-.435-.509a1.154,1.154,0,0,1-.227-.589c-.018-.321.037-.324.019-.644s-.087-.317-.1-.637-.013-.321-.031-.641,0-.321-.021-.641.031-.323.013-.644-.108-.315-.126-.636,0-.321-.018-.642-.079-.317-.1-.638.123-.328.1-.649-.119-.315-.137-.635-.053-.319-.071-.639,0-.322-.018-.642.022-.323,0-.644-.076-.317-.094-.638-.033-.32-.051-.64.106-.328.088-.648-.1-.316-.119-.637.072-.326.054-.647-.137-.314-.155-.635-.04-.319-.058-.64.15-.33.132-.65-.059-.319-.076-.64-.149-.313-.167-.634.1-.327.085-.648-.136-.314-.154-.635.141-.33.123-.65-.039-.319-.057-.639-.094-.316-.111-.636.06-.325.042-.646,0-.322-.021-.642-.047-.319-.065-.64-.129-.314-.147-.635-.021-.321-.039-.642-.039-.319-.057-.64.157-.331.139-.652-.1-.316-.12-.637.016-.323,0-.644,0-.322-.015-.643-.09-.317-.108-.639.069-.326.051-.647-.027-.32-.045-.641-.044-.319-.062-.64-.077-.318-.1-.64.008-.323-.01-.644-.047-.32-.064-.641-.057-.32-.075-.642.078-.328.06-.65c-.012-.2-.181-.337-.322-.47s-.285-.319-.488-.319c-.318,0-.318.109-.636.109s-.318-.1-.636-.1-.319.122-.638.122-.318-.126-.637-.126-.318.013-.636.013-.319.1-.637.1-.319-.132-.638-.132-.319,0-.637,0-.319.124-.638.124-.319-.136-.637-.136-.32.074-.639.074-.318.091-.637.091-.319-.065-.638-.065-.319.06-.638.06-.319-.074-.637-.074-.319-.091-.638-.091-.319.022-.638.022-.32.06-.639.06-.319-.06-.639-.06-.32,0-.639,0-.32.1-.64.1a.708.708,0,0,0-.507.209.789.789,0,0,0-.3.495c-.013.324-.016.324-.029.647s.052.327.039.651-.114.32-.127.644.015.326,0,.65.038.326.025.65-.085.321-.1.644-.034.323-.047.647.106.329.093.652.019.325.006.649.017.325,0,.649-.182.317-.2.64.016.326,0,.65.114.329.1.654-.087.321-.1.645.027.326.014.65-.1.32-.111.644-.059.322-.072.646.143.33.13.654-.022.324-.035.648-.07.322-.083.646.07.328.057.652-.039.323-.052.647-.053.323-.066.647-.131.319-.144.643.016.325,0,.649-.024.324-.037.649.053.327.04.651-.017.324-.03.648.047.327.034.651-.04.323-.053.647-.045.324-.058.648-.057.323-.07.647-.015.324-.028.648.047.327.034.651-.035.324-.048.648.087.329.074.653-.066.322-.08.647,0,.325-.013.649-.091.321-.1.645-.06.322-.073.645.146.331.133.655-.022.324-.035.648-.083.321-.1.646-.065.322-.078.646.033.326.02.65.071.328.058.653-.164.318-.177.642-.014.325-.027.65.124.33.111.654-.015.325-.029.65-.028.324-.041.648-.065.323-.079.648-.018.324-.032.649.044.327.031.651-.152.319-.165.643.106.33.092.655-.043.324-.056.649-.109.321-.122.646.1.331.088.656.017.327,0,.653a.579.579,0,0,1-.262.452.533.533,0,0,1-.489-.034c-.293-.127-.277-.163-.57-.29s-.335-.029-.628-.155-.286-.141-.579-.268-.261-.2-.554-.328-.351.006-.643-.121-.232-.269-.524-.4-.286-.144-.579-.271-.332-.036-.625-.163-.271-.176-.565-.3-.31-.086-.6-.212-.309-.09-.6-.217-.3-.114-.591-.241-.288-.138-.581-.265-.28-.158-.572-.285-.287-.141-.58-.268-.268-.184-.561-.311-.354.013-.646-.114-.287-.14-.579-.266-.276-.165-.569-.292-.278-.162-.57-.289-.276-.166-.569-.293-.315-.076-.607-.2-.324-.057-.617-.184-.228-.277-.521-.4-.316-.074-.609-.2-.333-.033-.627-.16-.24-.248-.533-.375-.3-.119-.591-.246-.324-.054-.617-.181-.248-.232-.542-.359-.318-.068-.612-.195-.319-.065-.612-.192-.27-.18-.563-.307-.3-.124-.589-.251-.327-.049-.621-.177-.29-.135-.584-.262-.236-.262-.53-.39-.331-.042-.625-.17a1.032,1.032,0,0,0-.61-.021c-.217.041-.485.032-.628.175-.229.229-.187.271-.416.5s-.237.22-.465.449-.24.217-.468.446-.228.23-.457.459-.257.2-.486.429-.191.266-.42.5-.168.29-.4.519-.279.179-.508.408-.176.282-.4.511-.235.224-.464.453-.3.162-.525.391-.186.272-.415.5-.231.228-.46.457-.279.178-.507.407-.223.236-.452.465-.259.2-.488.428-.172.286-.4.516-.285.174-.514.4-.214.243-.443.473-.19.27-.419.5-.232.228-.462.458-.209.252-.439.482a1.133,1.133,0,0,1-.6.217,1.105,1.105,0,0,1-.629.007c-.3-.128-.312-.091-.609-.219s-.253-.229-.549-.357-.312-.092-.608-.221-.278-.17-.574-.3-.3-.118-.6-.247-.329-.052-.625-.181-.275-.178-.571-.306-.3-.119-.6-.247-.319-.076-.616-.2-.3-.127-.592-.256-.26-.212-.556-.34-.341-.027-.638-.156-.282-.16-.579-.288-.249-.237-.545-.365-.338-.033-.634-.161-.3-.11-.6-.239-.3-.122-.595-.25-.306-.107-.6-.235-.252-.232-.548-.36-.3-.119-.6-.247-.29-.141-.586-.269-.314-.086-.61-.214-.3-.127-.594-.255-.306-.105-.6-.234-.3-.131-.591-.259-.265-.2-.561-.329-.284-.159-.58-.287-.318-.079-.615-.207-.323-.067-.62-.195-.255-.225-.551-.354-.31-.1-.607-.227-.343-.021-.64-.15-.293-.137-.589-.266-.257-.22-.554-.349-.343-.021-.639-.15-.268-.195-.564-.323-.308-.105-.605-.233-.315-.087-.612-.216-.267-.2-.564-.327-.288-.153-.585-.282-.331-.052-.629-.181a.968.968,0,0,0-.589-.05,1.147,1.147,0,0,0-.607.187c-.226.227-.216.238-.442.465s-.157.3-.384.524-.275.179-.5.406-.26.195-.487.422-.191.264-.419.492-.263.191-.491.418-.25.2-.477.432-.24.214-.467.441-.125.331-.353.559-.25.205-.478.432-.21.244-.438.472-.319.136-.546.364-.166.289-.394.517-.208.247-.435.475-.256.2-.484.428-.257.2-.485.425-.172.284-.4.512-.289.166-.517.394-.168.286-.4.513-.283.173-.511.4-.154.3-.381.529-.318.138-.546.366-.2.259-.425.487-.221.235-.449.463-.161.3-.389.524-.342.116-.571.345-.159.3-.387.527a1.794,1.794,0,0,0-.407.562,1.856,1.856,0,0,0-.13.684c0,.327.077.327.077.654s-.031.327-.031.654-.006.328-.006.656.011.327.011.655-.121.327-.121.655.014.327.014.655.081.328.081.655-.063.328-.063.656.062.328.062.655-.035.328-.035.656.052.328.052.656-.05.328-.05.656-.038.328-.038.656.105.328.105.656-.037.328-.037.655-.111.328-.111.656.007.328.007.657.152.328.152.656-.147.329-.147.657.092.329.092.658.055.329.055.658a.622.622,0,0,0,.67.665c.3,0,.3.026.606.026s.3.072.606.072.3-.041.607-.041.3.059.607.059.3.023.608.023.3-.106.608-.106.3.127.608.127a.905.905,0,0,0,.58-.245c.134-.134.112-.377.112-.58,0-.316.051-.316.051-.633s.034-.316.034-.632-.058-.316-.058-.632.089-.317.089-.634-.092-.316-.092-.632-.006-.317-.006-.633.015-.317.015-.633-.026-.317-.026-.634.069-.316.069-.633-.043-.316-.043-.633.057-.317.057-.634-.082-.316-.082-.632.035-.317.035-.633-.05-.317-.05-.634.136-.317.136-.634-.165-.317-.165-.634.071-.318.071-.636.059-.317.059-.635a1.753,1.753,0,0,1,.109-.672,1.729,1.729,0,0,1,.41-.542c.231-.23.182-.279.413-.51s.258-.2.489-.435.221-.241.452-.472.152-.31.383-.541.356-.106.588-.338.2-.259.433-.49.152-.312.383-.543.3-.158.536-.389.245-.216.476-.446.238-.225.469-.456.22-.243.451-.474.135-.327.367-.559.26-.2.491-.434.281-.182.512-.413.163-.3.395-.533.257-.206.49-.439.214-.25.446-.482c.143-.143.409-.118.627-.159a1.043,1.043,0,0,1,.61-.011c.3.129.3.127.6.255s.313.093.61.222.269.193.565.322.307.106.6.235.289.147.585.276.278.174.575.3.319.08.616.208.321.074.617.2.323.069.62.2.277.175.574.3.275.179.572.308.287.152.584.281.334.044.631.172.248.242.544.37.338.034.634.163.261.212.557.341.317.084.614.212.272.186.569.314.33.052.627.181.282.163.579.292.322.071.62.2.25.237.547.366.312.094.61.222.335.04.633.169.282.164.579.293.288.151.585.28.32.078.617.207.263.208.56.337.345.019.642.147.244.251.542.379.353,0,.65.131.281.167.579.3.292.143.59.272.269.2.567.326.287.155.585.284a1.1,1.1,0,0,1,.527.345,1.085,1.085,0,0,1,.088.62c0,.314.056.314.056.628s.014.315.014.629.091.315.091.63-.093.314-.093.629.015.315.015.629-.066.315-.066.63-.011.315-.011.63.165.314.165.629-.069.315-.069.63-.005.315-.005.63.073.314.073.629-.06.315-.06.629-.107.316-.107.631.091.315.091.63.014.315.014.631.019.315.019.631.032.316.032.632c0,.2-.04.441.094.575s.372.1.575.1c.3,0,.3.036.606.036s.3-.026.606-.026.3.133.607.133.3-.024.607-.024.3-.028.608-.028.3.033.608.033.3-.016.608-.016a.836.836,0,0,0,.781-.779c0-.316-.03-.316-.03-.633s-.036-.316-.036-.632.071-.316.071-.632-.115-.317-.115-.634-.023-.316-.023-.632.105-.317.105-.633-.028-.317-.028-.633.1-.317.1-.634-.05-.316-.05-.633-.112-.316-.112-.633.143-.317.143-.634-.025-.316-.025-.632-.109-.317-.109-.633.149-.317.149-.634-.111-.317-.111-.634-.01-.317-.01-.634-.019-.318-.019-.635.127-.318.127-.636a1.713,1.713,0,0,1,.121-.658,2.155,2.155,0,0,1,.282-.65c.231-.231.313-.148.544-.379s.17-.292.4-.523.211-.252.442-.483.219-.243.45-.474.28-.183.511-.414.185-.277.416-.508l.463-.462c.232-.231.257-.206.488-.438s.295-.166.525-.4.222-.241.454-.472.215-.247.446-.478.189-.273.421-.5.211-.252.443-.483.322-.141.553-.372.222-.241.454-.473.143-.322.375-.554.274-.19.506-.422a1.132,1.132,0,0,1,.6-.21,1.173,1.173,0,0,1,.642-.043c.3.129.277.174.574.3s.281.166.578.3.3.115.6.244.32.074.617.2.29.144.587.273.255.226.552.355.352,0,.649.131.286.154.583.282.3.131.593.26.254.227.551.356.314.091.611.22.342.023.639.152.3.114.6.242.287.151.584.28.285.153.582.281.286.152.583.281.321.074.618.2.241.257.538.386.348.011.644.14.275.181.571.309.331.052.629.181.3.129.593.258.293.14.59.269.26.214.557.343l.6.258c.3.129.274.183.571.311s.312.1.609.226.328.058.625.187.3.125.6.254.321.074.618.2S462.1,126.656,462.4,126.785Zm1.209,41.251.37.093.8.216.37.061.493.092a1.007,1.007,0,0,0,.524.031h.154l.74.031.215.031.8.062h.308l.4.031.37-.031.154.031a1.185,1.185,0,0,0,.462.03l.37-.061a.677.677,0,0,0,.247-.031l.4-.124.678-.092h.246a.849.849,0,0,0,.308-.031,1.291,1.291,0,0,0,.8-.339l1.017-.339.524-.246a1.14,1.14,0,0,0,.278-.154l.123-.093.185-.246.37-.247a1.842,1.842,0,0,0,.37-.309v-.03l.493-.555.123-.124a1.05,1.05,0,0,0,.186-.185l.215-.308a1.176,1.176,0,0,0,.185-.339l.093-.216.277-.678.062-.216c0-.061.03-.184.03-.246l.031-.617.031-.339v-.432l-.062-.431-.03-.431-.062-.339a1.233,1.233,0,0,0-.216-.648l-.154-.739a1.347,1.347,0,0,0-.216-.525l-.247-.339-.03-.092a2.071,2.071,0,0,0-.339-.432l-.309-.308-.277-.247-.709-.555-.277-.246-.494-.37a.617.617,0,0,0-.184-.123l-.216-.124-.432-.215a1.332,1.332,0,0,0-.462-.154l-.154-.031-.617-.216-.308-.247-.339-.184h-.031l-.308-.155-.339-.092-.648-.37-.092-.031a1.6,1.6,0,0,0-.493-.185l-.031-.031-.308-.185-.339-.154-.525-.431-.215-.186-.34-.616.031-.277-.092-.37.031-.432.246-.462.339-.247.679-.154.277-.062.647-.061h.463a1.55,1.55,0,0,0,.647,0h.031l.339.03.678.062c.031,0,.031.031.062.031l.37.031.339-.062.4.093.4-.031.617.278.246.153c.062.031.155.062.216.093l.339.093a1.589,1.589,0,0,0,.37.061.718.718,0,0,0,.524-.216,3.5,3.5,0,0,0,.247-.37l-.031-.8.031-.278c0-.061.03-.185.03-.246v-1.356l.031-.709-.031-.154a1.126,1.126,0,0,0-.215-.432l-.216-.339a1.4,1.4,0,0,0-.586-.247l-.37-.062-.308-.061-.678-.154-.246-.093c-.093-.031-.185-.031-.278-.062l-.431-.061-.432-.062-.648-.03-.893-.062-.124-.031a1.159,1.159,0,0,0-.462,0l-.031.031h-.4l-.431-.031h-.462a1.045,1.045,0,0,0-.309.031l-.247.062-.647.153-.462.093-.648.185-.123.062a1.644,1.644,0,0,0-.4.215l-.124.093-.185.031a2.065,2.065,0,0,0-.462.216l-.093.092-.616.339-.277.154c-.062.031-.124.093-.186.124l-.462.339-.093.092c-.092.093-.215.185-.308.278l-.308.4-.123.185c-.031.062-.093.093-.123.185l-.278.586-.123.431-.216.617a1.364,1.364,0,0,0-.247.678l-.03.277.03.34-.03.369v.4l.092.37.031.586c0,.092.031.154.031.216l.092.339.154.647.031.216a.964.964,0,0,0,.093.277v.031a1.566,1.566,0,0,0,.524.678,1.493,1.493,0,0,0,.339.555l.215.216.062.092a1.477,1.477,0,0,0,.339.278l.432.308.123.123.278.185.493.308.339.247.678.339.339.154.4.216a1.178,1.178,0,0,0,.4.185l.185.031.124.092a1.026,1.026,0,0,0,.432.154l.061.032.4.153.616.247.278.093a2.3,2.3,0,0,0,.246.092l.617.123.277.247.493.339.309.246.215.555v.432l-.03.277-.062.339-.4.586-.308.123-.647.216-.432.031h-.277l-.4.062h-.339l-.709.061-.37-.03-.432-.124-.339-.03-.77-.093-.463-.062-.678-.123-.215-.093a1.327,1.327,0,0,0-.309-.123l-.4-.123-.4-.093-.339-.185a.557.557,0,0,0-.647-.03,3.678,3.678,0,0,0-.37.37l-.092.678.061.37-.03.678.061.277v.678l-.031.154v.864a1.578,1.578,0,0,0,.216.523l.185.309.124.093a1.491,1.491,0,0,0,.493.246Zm16.967-.894a1.434,1.434,0,0,0,.062.524.836.836,0,0,0,.524.493,1.985,1.985,0,0,0,.617.124l.709.031.77-.093h.339l.679-.031a1.563,1.563,0,0,0,.647.031h2.035l.863-.031h.339l.739-.031.339.031.709.031.339-.062h.74l.432.093.555.093a.873.873,0,0,0,.277.03l.278-.03.8-.093a.9.9,0,0,0,.647-.216l.185-.246.031-.278c0-.092.031-.185.031-.246v-1.11l-.093-.586-.061-.493.061-.8a1.064,1.064,0,0,0-.369-.709,1.016,1.016,0,0,0-.586-.093l-.709-.031h-.247l-.678.062h-.462l-.679.03-.123-.03a1.741,1.741,0,0,0-.4-.031l-.524.031-1.172.03-.37.093-.8-.061-.462.061-.371-.432-.061-.37-.031-.339.031-.77v-.771l-.031-.4-.031-.678.031-.063a1.385,1.385,0,0,0,.092-.492v-.525a2.007,2.007,0,0,0,.031-.616l-.092-.463v-.431l.031-.709-.062-.247v-.03a1.5,1.5,0,0,0,.092-.648v-.092l.031-.216c0-.093.031-.154.031-.278l-.031-.554.031-.432V153.3l-.062-.339V151.73l-.092-.463v-1.11l.031-.154a2.394,2.394,0,0,0,.092-.4v-.862l-.031-.648-.03-.4v-.71a.456.456,0,0,0-.031-.185.984.984,0,0,0-.524-.647.682.682,0,0,0-.4-.123l-.832.061-.74.062-.37-.062-.832.031-.339-.031-.586-.03a.944.944,0,0,0-.493.092.786.786,0,0,0-.4.709c0,.031.031.092.031.123l-.062.894-.061.894-.031.4.061.863v.832l-.03.493v.864l-.031.8.031.308.03.309-.061.708-.031.124a1.734,1.734,0,0,0,0,.4l.062.4-.031.278a1.041,1.041,0,0,0-.031.308v.432l.062.339-.062.863.062.4-.031.739v.4l.061.77v.063a1.941,1.941,0,0,0-.03.431l.061.493a1.307,1.307,0,0,0-.061.771l.061.215-.061.463v.74l-.031.37.031.678-.031.308v.247l.061.554.031.34-.031.739Z" transform="translate(-391.83 -81.393)" fill="#222"/>
  </g>
</svg>
