<svg xmlns="http://www.w3.org/2000/svg" width="350.5" height="372" viewBox="0 0 350.5 372">
  <g transform="translate(-505 -3051.5)" fill="none" stroke-miterlimit="10">
    <path d="M835.5,3423.5H525l-20-20v-332l20-20H835.5l20,20v332Z" stroke="none"/>
    <path d="M 834.6715698242188 3421.5 L 853.5 3402.671630859375 L 853.5 3072.328369140625 L 834.6715698242188 3053.5 L 525.8284301757812 3053.5 L 507 3072.328369140625 L 507 3402.671630859375 L 525.8284301757812 3421.5 L 834.6715698242188 3421.5 M 835.5 3423.5 L 525 3423.5 L 505 3403.5 L 505 3071.5 L 525 3051.5 L 835.5 3051.5 L 855.5 3071.5 L 855.5 3403.5 L 835.5 3423.5 Z" stroke="none" fill="#fff"/>
  </g>
  <g transform="translate(-505 -3051.5)" fill="none" stroke-miterlimit="10">
    <path d="M831,3413H529l-14-14V3075l14-14H831l14,14v324Z" stroke="none"/>
    <path d="M 830.1715698242188 3411 L 843 3398.171630859375 L 843 3075.828369140625 L 830.1715698242188 3063 L 707.879638671875 3063 L 529.8284301757812 3063 L 517 3075.828369140625 L 517 3398.171630859375 L 529.8284301757812 3411 L 830.1715698242188 3411 M 831 3413 L 529 3413 L 515 3399 L 515 3075 L 529 3061 L 707.879638671875 3061 L 831 3061 L 845 3075 L 845 3399 L 831 3413 Z" stroke="none" fill="#fff"/>
  </g>
</svg>
