<svg xmlns="http://www.w3.org/2000/svg" width="169.349" height="64.847" viewBox="0 0 169.349 64.847">
  <title>National Lottery Heritage Fund logo</title>
  <g id="Group_111" data-name="Group 111" transform="translate(-20.322 -19.579)">
    <g id="Group_107" data-name="Group 107" transform="translate(20.322 19.579)">
      <path id="Path_546" data-name="Path 546" d="M67.387,48.823a4.314,4.314,0,0,0-2.575,1.028c.259-3-.854-5.229-2.912-6a5.409,5.409,0,0,0-3.86.171l-1.673-4.031c1.542-3.775,4.242-8.369,4.242-12.142,0-2.913-1.472-5.059-4.3-5.059-1.715,0-3.605,1.4-5.04,3.22-1.97-4.372-4.029-6.43-6.256-6.43-3.515,0-4.973,3.519-4.973,6.517,0,2.487.684,6.6,3.346,12.437a106.36,106.36,0,0,0-4.8,12.518,14.174,14.174,0,0,0-10.115-4.459,10.35,10.35,0,0,0-5.83,1.633,4.843,4.843,0,0,0-2.314,3.858c0,2.141,1.457,3.6,3.685,4.2,3.857,1.025,5.573,4.113,7.029,10.2C33.695,77.465,40.553,84.067,51.1,84.067A20.27,20.27,0,0,0,71.328,63.828a23.755,23.755,0,0,0-.426-4.372,17.554,17.554,0,0,0,.77-2.571c.942-4.718-.858-8.062-4.286-8.062" transform="translate(-20.322 -19.579)" fill="#222"/>
    </g>
    <path id="Path_547" data-name="Path 547" d="M49.2,36.622c1.789.829,1.929,4.555.127,9.012-1.457,4.29-3.556,6.911-5.509,6.925-1.542.009-2.827-1.091-2.827-4.007,0-5.488,4.507-13.637,8.208-11.93" transform="translate(11.825 9.62)" fill="#fff"/>
    <path id="Path_548" data-name="Path 548" d="M34.443,25.159c0-1.8.772-3.943,2.489-3.943q1.8,0,4.371,5.658a45.813,45.813,0,0,0-4.542,7.463c-1.545-4.031-2.317-7.032-2.317-9.178" transform="translate(8.08 0.937)" fill="#fff"/>
    <path id="Path_549" data-name="Path 549" d="M50.162,79.392c-9,0-15.175-6.259-17.575-15.609-1.627-6.432-3.687-10.716-8.914-12.09-.6-.171-1.715-.6-1.715-1.714,0-1.206,1.973-2.92,5.573-2.92,4.27,0,7.8,2.621,10.2,6.106l1.832-.684c.272-3.512,2.063-8.317,5.2-15.025,3.941-8.488,7.949-14.275,10.609-14.2a2.339,2.339,0,0,1,1.86,2.487c0,3.517-3.1,8.782-5.809,14.519-.275.575-1.509,3.292-1.509,3.292l1.773.767c.582-.975,1.783-3.324,1.945-3.717l1.328,2.94c-2.828,2.4-5.312,8.059-5.312,12.521,0,3.258,1.456,5.294,3.6,5.977a4.822,4.822,0,0,0,5.316-1.692,4.241,4.241,0,0,0,4.372,3.841c2.352,0,3.893-1.349,5.061-3.666A18.183,18.183,0,0,1,50.162,79.392" transform="translate(0.936 2.104)" fill="#fff"/>
    <path id="Path_550" data-name="Path 550" d="M54.3,45.053c-.6,3.6-2.789,7.609-5.485,7.609-2.572,0-2.42-3.405-1.822-5.465.943-3.687,3.453-7.545,5.338-7.545,1.715,0,2.486,2.316,1.97,5.4" transform="translate(15.053 11.486)" fill="#fff"/>
    <g id="Group_109" data-name="Group 109" transform="translate(42.836 24.159)">
      <g id="Group_108" data-name="Group 108" transform="translate(0 31.939)">
        <path id="Path_551" data-name="Path 551" d="M52.055,57.266c-7.634,4.334-14.733,1.567-17.413-6.339l2.221-1.041c2.182,6.441,8.471,8.205,14.29,5.176Z" transform="translate(-34.642 -38.757)" fill="#222"/>
        <path id="Path_552" data-name="Path 552" d="M45.844,44.8a1.991,1.991,0,1,1-1.99-1.989,1.989,1.989,0,0,1,1.99,1.989" transform="translate(-30.511 -42.807)" fill="#222"/>
        <path id="Path_553" data-name="Path 553" d="M51.034,46.258a1.791,1.791,0,1,1-1.792-1.792,1.791,1.791,0,0,1,1.792,1.792" transform="translate(-27.313 -41.858)" fill="#222"/>
      </g>
      <path id="Path_554" data-name="Path 554" d="M48.248,26.143A1.8,1.8,0,0,1,47.535,26a1.742,1.742,0,0,1-.575-.39,1.879,1.879,0,0,1-.385-.58,1.89,1.89,0,0,1,0-1.428,1.8,1.8,0,0,1,.961-.968,1.809,1.809,0,0,1,.718-.143,1.79,1.79,0,0,1,.712.143,1.8,1.8,0,0,1,.956.968,1.871,1.871,0,0,1,0,1.428,1.875,1.875,0,0,1-.384.58,1.758,1.758,0,0,1-.575.39A1.8,1.8,0,0,1,48.248,26.143Zm0-.351a1.428,1.428,0,0,0,.571-.113,1.371,1.371,0,0,0,.451-.311,1.44,1.44,0,0,0,.3-.467,1.615,1.615,0,0,0,0-1.156,1.41,1.41,0,0,0-.75-.783,1.461,1.461,0,0,0-1.135,0,1.45,1.45,0,0,0-.456.314,1.385,1.385,0,0,0-.3.469,1.615,1.615,0,0,0,0,1.156,1.436,1.436,0,0,0,.3.467,1.362,1.362,0,0,0,.453.311A1.422,1.422,0,0,0,48.248,25.792Zm-.634-2.405h.712a.778.778,0,0,1,.294.049.631.631,0,0,1,.2.129.453.453,0,0,1,.118.175.524.524,0,0,1,.036.192.593.593,0,0,1-.088.321.544.544,0,0,1-.272.217l.45.764h-.4l-.412-.717h-.294v.717h-.351Zm.7.852a.31.31,0,0,0,.234-.079.288.288,0,0,0,.074-.209.257.257,0,0,0-.079-.2.376.376,0,0,0-.252-.068h-.324v.56Z" transform="translate(-27.895 -22.492)" fill="#222"/>
    </g>
    <path id="Union_2" data-name="Union 2" d="M14.714,35.532A5.274,5.274,0,0,1,12.8,34.209a5.4,5.4,0,0,1-1.129-1.981,7.952,7.952,0,0,1-.368-2.451V20.266h2.21v8.981a9.179,9.179,0,0,0,.184,1.9,3.886,3.886,0,0,0,.634,1.486,2.9,2.9,0,0,0,1.2.957,4.681,4.681,0,0,0,1.9.333,4.626,4.626,0,0,0,1.876-.333,2.909,2.909,0,0,0,1.2-.957,3.906,3.906,0,0,0,.632-1.486,8.985,8.985,0,0,0,.185-1.9V20.266h2.21v9.511a7.91,7.91,0,0,1-.368,2.451,5.459,5.459,0,0,1-1.118,1.981,5.165,5.165,0,0,1-1.9,1.323,6.976,6.976,0,0,1-2.717.482A6.972,6.972,0,0,1,14.714,35.532Zm26.177.093V20.266h5.136a11.835,11.835,0,0,1,3.349.45,6.963,6.963,0,0,1,2.637,1.4,6.529,6.529,0,0,1,1.726,2.408,8.745,8.745,0,0,1,.621,3.453,8.477,8.477,0,0,1-.621,3.373,6.546,6.546,0,0,1-1.726,2.394,7.079,7.079,0,0,1-2.649,1.416A11.711,11.711,0,0,1,46,35.626ZM43.1,33.645h2.855a6.528,6.528,0,0,0,4.478-1.416,5.315,5.315,0,0,0,1.6-4.2,5.7,5.7,0,0,0-1.542-4.3,6.408,6.408,0,0,0-4.606-1.484H43.1ZM36.43,35.626l-8.4-12.02v12.02H25.861V20.268h2.233l8.381,12v-12H38.64V35.626ZM0,35.626V20.268H9.65v1.98H2.213v4.7H7.877V28.9H2.213v6.724ZM86.1,16.283A7.292,7.292,0,0,1,83.461,14.6a7.186,7.186,0,0,1-1.65-2.659,10.281,10.281,0,0,1-.566-3.516,9.164,9.164,0,0,1,.613-3.382A7.73,7.73,0,0,1,86.216.625,8.856,8.856,0,0,1,89.6,0a10.457,10.457,0,0,1,3.744.662,6.578,6.578,0,0,1,2.926,2.2L93.5,5.657a7.447,7.447,0,0,0-1.6-1.228,3.968,3.968,0,0,0-1.984-.481,4.391,4.391,0,0,0-1.831.361,3.951,3.951,0,0,0-1.336.973,4.294,4.294,0,0,0-.831,1.446A5.378,5.378,0,0,0,85.626,8.5a5.24,5.24,0,0,0,.313,1.865,4.226,4.226,0,0,0,.867,1.421,3.772,3.772,0,0,0,1.347.914,4.647,4.647,0,0,0,1.781.325,5.829,5.829,0,0,0,1.515-.192,4.255,4.255,0,0,0,1.4-.675V10.615H90.055v-3.3h6.6v7.246a8.861,8.861,0,0,1-3.31,1.769,13.372,13.372,0,0,1-3.744.542A9.8,9.8,0,0,1,86.1,16.283Zm13.178.205V.433h11.555V4.116h-7.294V6.6h5.994v3.467h-5.994v2.744h7.8v3.683Zm-41.569,0V4.164H52.769V.433H66.9V4.164H62.013V16.489Zm-11.122,0V.433h4.262V16.489Zm-29.389,0V.433H28.748V4.116H21.455V6.6h5.994v3.467H21.455v2.744h7.8v3.683Zm-7.013,0V10.206H4.26v6.282H0V.433H4.26V6.306h5.922V.433h4.26V16.489Zm66.514,0-1.036-3.319H70.294l-1.06,3.319h-4.4L70.727.433h4.886L81.3,16.487ZM71.16,10.06h3.635l-1.781-5.9ZM40.134,16.487l-2.721-5.463H35.632v5.463H31.467V.433h6.645a7.639,7.639,0,0,1,2.347.338,4.935,4.935,0,0,1,1.791,1,4.414,4.414,0,0,1,1.156,1.65A5.923,5.923,0,0,1,43.816,5.7a5.264,5.264,0,0,1-.7,2.756,5.349,5.349,0,0,1-1.851,1.866l3.441,6.161Zm-4.5-8.808H37.7a1.873,1.873,0,0,0,1.371-.519A1.84,1.84,0,0,0,39.6,5.776,2,2,0,0,0,39.1,4.333,1.862,1.862,0,0,0,37.678,3.8H35.632Z" transform="translate(78.338 48.411)" fill="#222"/>
  </g>
</svg>
