<svg xmlns="http://www.w3.org/2000/svg" width="444.83" height="103.627" viewBox="0 0 444.83 103.627">
  <title>Extrodinary local folk</title>
  <g id="Group_61" data-name="Group 61" transform="translate(-737.585 -2505.263)">
    <path id="Path_301" data-name="Path 301" d="M1083.991,2574.146v2.018h85.356v-2.018Zm0,7.074h85.356V2579.2h-85.356Zm0,5h85.356V2584.2h-85.356Zm-332.884-10.057h85.356v-2.018H751.107Zm0,5.056h85.356V2579.2H751.107Zm0,5h85.356V2584.2H751.107Z" fill="#c1a7e2"/>
    <path id="Path_302" data-name="Path 302" d="M899.641,2552.27H906.8l1.208,5.072h9.578l-8.654-26.562H897.669l-8.61,26.562H898.4Zm2.5-10.181,1.046-4.507h.121l2.132,8.855H901.05Zm25.739,14.044a15.217,15.217,0,0,0,7.223,1.61q6.357,0,9.92-3.6t3.56-10.079q0-6.48-3.56-10.082t-9.92-3.6a15.228,15.228,0,0,0-7.223,1.61,11,11,0,0,0-4.669,4.689,17.541,17.541,0,0,0,0,14.768A11,11,0,0,0,927.876,2556.133Zm4.224-17.123a3.233,3.233,0,0,1,3-1.588,3.183,3.183,0,0,1,2.977,1.588,14.251,14.251,0,0,1,0,10.1,3.184,3.184,0,0,1-2.977,1.591,3.234,3.234,0,0,1-3-1.591,13.983,13.983,0,0,1,0-10.1Zm148.289-8.23-8.613,26.562h9.336l1.247-5.072h7.165l1.2,5.072h9.579l-8.652-26.562Zm3.378,15.657,1.087-4.348,1.046-4.507h.121l2.133,8.855Zm52.141-15.657,9.3,17.346v9.216h9.375v-9.216l9.3-17.346h-9.215l-2.818,6.078-1.891,4.829-1.893-4.829-2.817-6.078Zm-187.539,37.507v21.248h16.2v-4.282H953.908v-16.966Zm62.851-14.388q3.2-3.438,3.2-9.837t-3.2-9.84q-3.2-3.442-9.4-3.442H988.786v26.562h13.038Q1008.019,2557.342,1011.22,2553.9Zm-13.059-3.238v-13.2h2.334a3.67,3.67,0,0,1,3.423,1.53,14.373,14.373,0,0,1,0,10.14,3.672,3.672,0,0,1-3.423,1.53Zm22.526,18.608a12.516,12.516,0,0,0-11.125,0,8.736,8.736,0,0,0-3.6,3.767,14.379,14.379,0,0,0,0,11.75,8.741,8.741,0,0,0,3.6,3.767,12.516,12.516,0,0,0,11.125,0,8.763,8.763,0,0,0,3.588-3.767,14.348,14.348,0,0,0,0-11.75A8.758,8.758,0,0,0,1020.687,2569.269Zm-2.028,14.567a4.073,4.073,0,0,1-3.527,1.676,4.116,4.116,0,0,1-3.542-1.676,10.545,10.545,0,0,1,0-9.851,4.124,4.124,0,0,1,3.542-1.673,4.081,4.081,0,0,1,3.527,1.673,10.669,10.669,0,0,1,0,9.851Zm3.265-26.5h9.378V2530.78h-9.378Zm43.889,0V2530.78h-8.128v9.862l.159,5.473h-.079l-1.451-3.22-6.356-12.115h-10.142v26.562h8.128v-9.86l-.16-5.473h.08l1.45,3.258,6.356,12.075Zm-27.975,10.945H1032.3v21.248h16.193v-4.282h-10.657Zm-55.16-10.945-6.28-9.821q4.788-2.01,4.791-7.845,0-4.428-2.719-6.662t-8.026-2.234H956.036v26.562h9.174v-8.814h2.576l4.711,8.814Zm-11.612-15.514a4.389,4.389,0,0,1-2.515.542H965.21v-4.909h3.341a4.258,4.258,0,0,1,2.515.564,2.8,2.8,0,0,1,0,3.8Zm17.738,30.74h10.979v-4.281H983.268v21.248H988.8v-8.178h8.758v-4.282H988.8Zm142.619-32.892q0-4.428-2.716-6.662t-8.029-2.234H1106.27v26.562h9.177v-8.814h2.576l4.708,8.814h10.181l-6.277-9.821Q1131.423,2545.511,1131.423,2539.676Zm-10.12,2.152a4.393,4.393,0,0,1-2.515.542h-3.341v-4.909h3.341a4.262,4.262,0,0,1,2.515.564,2.8,2.8,0,0,1,0,3.8Zm-54.754,35.088,7.212-8.629h-6.15l-7.6,9.432v-9.432h-5.537v21.248h5.537v-5.988l2.575-3.123,5.281,9.111h6.276Zm-200.562,8.337H855.33v-16.966h-5.536v21.248h16.193Zm-14.915-54.473H825.077v6.882h8.33v19.68h9.377v-19.68h8.288Zm-78.245,16.54h10.222v-6.356H772.827v-3.3H785.5v-6.882H763.449v26.562h22.536v-6.882H772.827Zm111.43,10.022-6.277-9.821q4.788-2.01,4.788-7.845,0-4.428-2.716-6.662t-8.029-2.234H857.616v26.562h9.176v-8.814h2.576l4.708,8.814Zm-11.609-15.514a4.393,4.393,0,0,1-2.515.542h-3.341v-4.909h3.341a4.262,4.262,0,0,1,2.515.564,2.8,2.8,0,0,1,0,3.8ZM820.1,2557.342l-9.215-13.481,8.45-13.081H809.112l-3.139,6.642-3.1-6.642H791.807L800.3,2544.1l-8.814,13.241h10.586l3.219-6.882,3.5,6.882Zm108.578,10.945-7.471,21.248h5.569l1.484-4.8H935.6l1.45,4.8h5.7l-7.438-21.248Zm.74,12.685,1.61-5.118.869-3.316h.064l.932,3.346,1.547,5.088Zm-37.667-2.061a12.794,12.794,0,0,0-1.255-5.875,8.753,8.753,0,0,0-3.591-3.767,12.51,12.51,0,0,0-11.122,0,8.743,8.743,0,0,0-3.607,3.767,14.379,14.379,0,0,0,0,11.75,8.747,8.747,0,0,0,3.607,3.767,12.51,12.51,0,0,0,11.122,0,8.757,8.757,0,0,0,3.591-3.767A12.787,12.787,0,0,0,891.751,2578.911Zm-6.874,4.925a4.065,4.065,0,0,1-3.525,1.676,4.109,4.109,0,0,1-3.541-1.676,10.522,10.522,0,0,1,0-9.851,4.117,4.117,0,0,1,3.541-1.673,4.073,4.073,0,0,1,3.525,1.673,10.645,10.645,0,0,1,0,9.851Zm27.423-1.8a4.469,4.469,0,0,1-1.417,2.639,4.314,4.314,0,0,1-2.8.839,4.172,4.172,0,0,1-3.588-1.692,8.2,8.2,0,0,1-1.241-4.909A7.991,7.991,0,0,1,904.54,2574a4.305,4.305,0,0,1,3.638-1.69,4.036,4.036,0,0,1,2.642.771,4.863,4.863,0,0,1,1.384,2.705l4.862-1.962a7.012,7.012,0,0,0-3.189-4.4,12.5,12.5,0,0,0-11.428-.16,8.724,8.724,0,0,0-3.607,3.784,14.339,14.339,0,0,0,0,11.733,8.748,8.748,0,0,0,3.607,3.767,11.3,11.3,0,0,0,5.569,1.3,10.675,10.675,0,0,0,5.955-1.593,8.084,8.084,0,0,0,3.349-4.813Z" fill="#222"/>
    <path id="Path_303" data-name="Path 303" d="M855.658,2509.8a2.254,2.254,0,0,0,2.284-2.255,2.27,2.27,0,1,0-4.54,0A2.248,2.248,0,0,0,855.658,2509.8Zm-18.078,0a2.248,2.248,0,0,0,2.256-2.255,2.27,2.27,0,1,0-2.256,2.255Zm-54.318,0a2.254,2.254,0,0,0,2.284-2.255,2.27,2.27,0,1,0-4.54,0A2.248,2.248,0,0,0,783.262,2509.8Zm81.449,0a2.255,2.255,0,0,0,2.284-2.255,2.27,2.27,0,1,0-4.54,0A2.248,2.248,0,0,0,864.711,2509.8Zm-36.184,0a2.248,2.248,0,0,0,2.256-2.255,2.27,2.27,0,1,0-2.256,2.255Zm-18.106,0a2.231,2.231,0,0,0,2.256-2.255,2.255,2.255,0,0,0-2.256-2.284,2.278,2.278,0,0,0-2.284,2.284A2.254,2.254,0,0,0,810.421,2509.8Zm-9.053,0a2.231,2.231,0,0,0,2.256-2.255,2.255,2.255,0,0,0-2.256-2.284,2.278,2.278,0,0,0-2.284,2.284A2.254,2.254,0,0,0,801.368,2509.8Zm18.106,0a2.248,2.248,0,0,0,2.256-2.255,2.27,2.27,0,1,0-2.256,2.255Zm27.159,0a2.248,2.248,0,0,0,2.256-2.255,2.27,2.27,0,1,0-2.256,2.255Zm63.343,0a2.248,2.248,0,0,0,2.256-2.255,2.27,2.27,0,1,0-2.256,2.255Zm-18.106,0a2.255,2.255,0,0,0,2.284-2.255,2.279,2.279,0,0,0-2.284-2.284,2.255,2.255,0,0,0-2.257,2.284A2.231,2.231,0,0,0,891.87,2509.8Zm9.053,0a2.248,2.248,0,0,0,2.256-2.255,2.27,2.27,0,1,0-2.256,2.255Zm18.105,0a2.248,2.248,0,0,0,2.257-2.255,2.27,2.27,0,1,0-2.257,2.255Zm-45.264,0a2.255,2.255,0,0,0,2.284-2.255,2.271,2.271,0,1,0-4.541,0A2.249,2.249,0,0,0,873.764,2509.8Zm9.053,0a2.255,2.255,0,0,0,2.284-2.255,2.271,2.271,0,1,0-4.541,0A2.249,2.249,0,0,0,882.817,2509.8Zm297.315,40.091a2.271,2.271,0,1,0,2.283,2.284A2.279,2.279,0,0,0,1180.132,2549.893ZM748.95,2602.258a2.261,2.261,0,1,0-2.367,3.852,2.038,2.038,0,0,0,1.183.33,2.257,2.257,0,0,0,1.184-4.182Zm-8.31-6.659a2.3,2.3,0,0,0-.964,3.081,2.234,2.234,0,0,0,2.009,1.212,2.329,2.329,0,0,0,1.046-.249,2.267,2.267,0,0,0,.963-3.054A2.293,2.293,0,0,0,740.64,2595.6Zm430.768,6.412a2.26,2.26,0,0,0-.632,3.136,2.3,2.3,0,0,0,1.9,1.046,2.345,2.345,0,0,0,1.238-.385,2.269,2.269,0,0,0,.66-3.138A2.3,2.3,0,0,0,1171.408,2602.011Zm-406,2.338a2.249,2.249,0,0,0-2.256,2.257,2.27,2.27,0,1,0,2.256-2.257Zm-25.535-22.261a2.27,2.27,0,1,0-2.284-2.256A2.289,2.289,0,0,0,739.869,2582.088Zm34.34-72.286a2.255,2.255,0,0,0,2.285-2.255,2.271,2.271,0,1,0-4.541,0A2.248,2.248,0,0,0,774.209,2509.8Zm-9.053,0a2.255,2.255,0,0,0,2.285-2.255,2.271,2.271,0,1,0-4.541,0A2.248,2.248,0,0,0,765.156,2509.8Zm-8.777,94.52v.027a2.238,2.238,0,0,0-2.284,2.257,2.273,2.273,0,0,0,2.284,2.256v.028a2.284,2.284,0,0,0,0-4.568Zm-.276-94.52h.056a2.285,2.285,0,1,0-.056,0Zm-16.234,27.049a2.27,2.27,0,1,0-2.284-2.284A2.3,2.3,0,0,0,739.869,2536.851Zm0-9.053a2.27,2.27,0,1,0-2.284-2.284A2.3,2.3,0,0,0,739.869,2527.8Zm0,45.237a2.27,2.27,0,1,0-2.284-2.256A2.289,2.289,0,0,0,739.869,2573.035Zm.688-54.261a2.336,2.336,0,0,0,1.018.247,2.276,2.276,0,0,0,2.036-1.266,2.277,2.277,0,1,0-3.054,1.019Zm-.688,45.236a2.284,2.284,0,1,0-2.284-2.284A2.314,2.314,0,0,0,739.869,2564.01Zm0-18.106a2.27,2.27,0,1,0-2.284-2.284A2.3,2.3,0,0,0,739.869,2545.9Zm0,9.053a2.3,2.3,0,0,0,2.283-2.284,2.284,2.284,0,0,0-4.567,0A2.3,2.3,0,0,0,739.869,2554.957Zm2.283,33.928a2.284,2.284,0,1,0-2.283,2.256A2.3,2.3,0,0,0,742.152,2588.885Zm348.826-79.083a2.248,2.248,0,0,0,2.257-2.255,2.27,2.27,0,1,0-2.257,2.255Zm-9.052,0a2.248,2.248,0,0,0,2.256-2.255,2.27,2.27,0,1,0-2.256,2.255Zm18.1,0a2.249,2.249,0,0,0,2.257-2.255,2.27,2.27,0,1,0-2.257,2.255Zm80.1,31.04a2.27,2.27,0,1,0,2.283,2.282A2.277,2.277,0,0,0,1180.132,2540.842Zm-107.259-31.04a2.231,2.231,0,0,0,2.256-2.255,2.255,2.255,0,0,0-2.256-2.284,2.278,2.278,0,0,0-2.284,2.284A2.254,2.254,0,0,0,1072.873,2509.8Zm-18.106,0a2.255,2.255,0,0,0,2.284-2.255,2.271,2.271,0,1,0-4.541,0A2.249,2.249,0,0,0,1054.767,2509.8Zm54.317,0a2.249,2.249,0,0,0,2.257-2.255,2.271,2.271,0,1,0-2.257,2.255Zm45.237,0a2.254,2.254,0,0,0,2.284-2.255,2.278,2.278,0,0,0-2.284-2.284,2.255,2.255,0,0,0-2.256,2.284A2.231,2.231,0,0,0,1154.321,2509.8Zm-108.607,0a2.255,2.255,0,0,0,2.284-2.255,2.271,2.271,0,1,0-4.541,0A2.249,2.249,0,0,0,1045.714,2509.8Zm117.66,0a2.231,2.231,0,0,0,2.256-2.255,2.257,2.257,0,1,0-4.513,0A2.231,2.231,0,0,0,1163.374,2509.8Zm-45.237,0a2.249,2.249,0,0,0,2.257-2.255,2.271,2.271,0,1,0-2.257,2.255Zm59.738,15.218a2.25,2.25,0,0,0,2.257,2.256,2.27,2.27,0,1,0-2.257-2.256Zm-50.712-15.218a2.254,2.254,0,0,0,2.283-2.255,2.27,2.27,0,1,0-4.54,0A2.248,2.248,0,0,0,1127.163,2509.8Zm18.1,0a2.254,2.254,0,0,0,2.284-2.255,2.27,2.27,0,1,0-4.54,0A2.248,2.248,0,0,0,1145.268,2509.8Zm-81.448,0a2.255,2.255,0,0,0,2.284-2.255,2.271,2.271,0,1,0-4.541,0A2.249,2.249,0,0,0,1063.82,2509.8Zm-99.554,0a2.254,2.254,0,0,0,2.283-2.255,2.27,2.27,0,1,0-4.54,0A2.248,2.248,0,0,0,964.266,2509.8Zm18.1,0a2.254,2.254,0,0,0,2.284-2.255,2.284,2.284,0,1,0-4.568,0A2.254,2.254,0,0,0,982.371,2509.8Zm54.29,0a2.254,2.254,0,0,0,2.284-2.255,2.27,2.27,0,1,0-4.54,0A2.248,2.248,0,0,0,1036.661,2509.8Zm-63.343,0a2.254,2.254,0,0,0,2.284-2.255,2.27,2.27,0,1,0-4.54,0A2.248,2.248,0,0,0,973.318,2509.8Zm-18.1,0a2.254,2.254,0,0,0,2.283-2.255,2.27,2.27,0,1,0-4.54,0A2.248,2.248,0,0,0,955.213,2509.8Zm-27.132,0a2.249,2.249,0,0,0,2.257-2.255,2.27,2.27,0,1,0-2.257,2.255Zm9.053,0a2.249,2.249,0,0,0,2.257-2.255,2.271,2.271,0,1,0-2.257,2.255Zm9.025,0a2.255,2.255,0,0,0,2.285-2.255,2.271,2.271,0,1,0-4.541,0A2.248,2.248,0,0,0,946.159,2509.8Zm72.424,0a2.248,2.248,0,0,0,2.256-2.255,2.27,2.27,0,1,0-2.256,2.255Zm9.025,0a2.254,2.254,0,0,0,2.284-2.255,2.27,2.27,0,1,0-4.54,0A2.248,2.248,0,0,0,1027.608,2509.8Zm-18.078,0a2.248,2.248,0,0,0,2.256-2.255,2.27,2.27,0,1,0-2.256,2.255Zm-9.053,0a2.248,2.248,0,0,0,2.256-2.255,2.27,2.27,0,1,0-2.256,2.255Zm179.655,21.987a2.27,2.27,0,1,0,2.283,2.282A2.277,2.277,0,0,0,1180.132,2531.789ZM991.424,2509.8a2.248,2.248,0,0,0,2.256-2.255,2.27,2.27,0,1,0-2.256,2.255Zm-243.878,2.56a2.138,2.138,0,0,0,1.211-.359,2.242,2.242,0,0,0,.715-3.109,2.263,2.263,0,1,0-3.825,2.421A2.2,2.2,0,0,0,747.546,2512.362Zm289.363,91.987a2.249,2.249,0,0,0-2.257,2.257,2.271,2.271,0,1,0,2.257-2.257Zm-9.026,0a2.255,2.255,0,0,0-2.284,2.257,2.271,2.271,0,1,0,4.541,0A2.25,2.25,0,0,0,1027.883,2604.349Zm18.079,0a2.249,2.249,0,0,0-2.257,2.257,2.271,2.271,0,1,0,2.257-2.257Zm9.053,0a2.249,2.249,0,0,0-2.257,2.257,2.27,2.27,0,1,0,2.257-2.257Zm-36.185,0a2.254,2.254,0,0,0-2.283,2.257,2.27,2.27,0,1,0,4.54,0A2.25,2.25,0,0,0,1018.83,2604.349Zm-36.211,0a2.232,2.232,0,0,0-2.257,2.257,2.256,2.256,0,0,0,2.257,2.284,2.279,2.279,0,0,0,2.284-2.284A2.256,2.256,0,0,0,982.619,2604.349Zm-9.053,0a2.232,2.232,0,0,0-2.257,2.257,2.256,2.256,0,0,0,2.257,2.284,2.279,2.279,0,0,0,2.284-2.284A2.256,2.256,0,0,0,973.566,2604.349Zm27.159,0a2.255,2.255,0,0,0-2.284,2.257,2.27,2.27,0,1,0,4.54,0A2.249,2.249,0,0,0,1000.725,2604.349Zm178.8-9.217a2.27,2.27,0,1,0-1.953,4.1,2.353,2.353,0,0,0,.962.22,2.27,2.27,0,0,0,.991-4.319Zm-115.458,9.217a2.249,2.249,0,0,0-2.257,2.257,2.27,2.27,0,1,0,2.257-2.257Zm-54.291,0a2.254,2.254,0,0,0-2.283,2.257,2.27,2.27,0,1,0,4.54,0A2.249,2.249,0,0,0,1009.777,2604.349Zm-18.1,0a2.255,2.255,0,0,0-2.284,2.257,2.27,2.27,0,1,0,4.54,0A2.249,2.249,0,0,0,991.672,2604.349Zm144.791,0a2.249,2.249,0,0,0-2.256,2.257,2.27,2.27,0,1,0,2.256-2.257Zm41.743-85.8a2.058,2.058,0,0,0,1.045-.275,2.218,2.218,0,0,0,.936-3.054,2.242,2.242,0,0,0-3.055-.937,2.219,2.219,0,0,0-.935,3.056A2.263,2.263,0,0,0,1178.206,2518.553Zm-41.99-8.751a2.254,2.254,0,0,0,2.283-2.255,2.27,2.27,0,1,0-4.54,0A2.248,2.248,0,0,0,1136.216,2509.8Zm9.3,94.547a2.25,2.25,0,0,0-2.257,2.257,2.271,2.271,0,1,0,2.257-2.257Zm26.5-92.236a2.29,2.29,0,1,0-1.156-.329A2.248,2.248,0,0,0,1172.014,2512.113Zm-17.445,92.236a2.25,2.25,0,0,0-2.257,2.257,2.271,2.271,0,1,0,2.257-2.257Zm9.493-.027c-.055,0-.138.027-.221.027h-.219a2.255,2.255,0,0,0-2.284,2.257,2.279,2.279,0,0,0,2.284,2.284c.11,0,.219-.028.3-.028h.276a2.24,2.24,0,0,0,2.2-2.34A2.274,2.274,0,0,0,1164.062,2604.322Zm-81.889.027a2.254,2.254,0,0,0-2.283,2.257,2.27,2.27,0,1,0,4.539,0A2.249,2.249,0,0,0,1082.173,2604.349Zm9.053,0a2.255,2.255,0,0,0-2.284,2.257,2.27,2.27,0,1,0,4.54,0A2.249,2.249,0,0,0,1091.226,2604.349Zm-18.106,0a2.232,2.232,0,0,0-2.256,2.257,2.255,2.255,0,0,0,2.256,2.284,2.279,2.279,0,0,0,2.284-2.284A2.255,2.255,0,0,0,1073.12,2604.349Zm54.29,0a2.249,2.249,0,0,0-2.256,2.257,2.27,2.27,0,1,0,2.256-2.257Zm-9.053,0a2.249,2.249,0,0,0-2.256,2.257,2.27,2.27,0,1,0,2.256-2.257Zm-9.025,0a2.255,2.255,0,0,0-2.284,2.257,2.27,2.27,0,1,0,4.54,0A2.249,2.249,0,0,0,1109.332,2604.349Zm-9.053,0a2.255,2.255,0,0,0-2.284,2.257,2.27,2.27,0,1,0,4.54,0A2.249,2.249,0,0,0,1100.279,2604.349Zm-307.716,0a2.25,2.25,0,0,0-2.257,2.257,2.271,2.271,0,1,0,2.257-2.257Zm54.29,0a2.248,2.248,0,0,0-2.256,2.257,2.27,2.27,0,1,0,2.256-2.257Zm-9.026,0a2.254,2.254,0,0,0-2.283,2.257,2.27,2.27,0,1,0,4.54,0A2.249,2.249,0,0,0,837.827,2604.349Zm27.132,0a2.249,2.249,0,0,0-2.257,2.257,2.271,2.271,0,1,0,2.257-2.257Zm315.173-45.4a2.271,2.271,0,0,0,0,4.542,2.271,2.271,0,1,0,0-4.542Zm-351.357,45.4a2.255,2.255,0,0,0-2.284,2.257,2.27,2.27,0,1,0,4.54,0A2.249,2.249,0,0,0,828.775,2604.349Zm27.131,0a2.249,2.249,0,0,0-2.257,2.257,2.271,2.271,0,1,0,2.257-2.257Zm-81.449,0a2.249,2.249,0,0,0-2.256,2.257,2.27,2.27,0,1,0,2.256-2.257Zm17.858-94.547a2.254,2.254,0,0,0,2.284-2.255,2.278,2.278,0,0,0-2.284-2.284,2.255,2.255,0,0,0-2.256,2.284A2.231,2.231,0,0,0,792.315,2509.8Zm-8.8,94.547a2.249,2.249,0,0,0-2.256,2.257,2.27,2.27,0,1,0,2.256-2.257Zm36.212,0a2.255,2.255,0,0,0-2.284,2.257,2.27,2.27,0,1,0,4.54,0A2.249,2.249,0,0,0,819.722,2604.349Zm-9.053,0a2.255,2.255,0,0,0-2.284,2.257,2.27,2.27,0,1,0,4.54,0A2.249,2.249,0,0,0,810.669,2604.349Zm-9.053,0a2.255,2.255,0,0,0-2.284,2.257,2.284,2.284,0,1,0,2.284-2.257Zm378.516-18.244a2.27,2.27,0,0,0,0,4.54,2.27,2.27,0,1,0,0-4.54Zm-242.778,18.244a2.249,2.249,0,0,0-2.256,2.257,2.27,2.27,0,1,0,2.256-2.257Zm-18.078,0a2.255,2.255,0,0,0-2.284,2.257,2.27,2.27,0,1,0,4.54,0A2.249,2.249,0,0,0,919.276,2604.349Zm9.053,0a2.255,2.255,0,0,0-2.284,2.257,2.27,2.27,0,1,0,4.54,0A2.249,2.249,0,0,0,928.329,2604.349Zm251.8-27.3a2.27,2.27,0,0,0,0,4.54,2.27,2.27,0,1,0,0-4.54Zm-215.619,27.3a2.249,2.249,0,0,0-2.256,2.257,2.27,2.27,0,1,0,2.256-2.257Zm-18.106,0a2.249,2.249,0,0,0-2.256,2.257,2.27,2.27,0,1,0,2.256-2.257Zm9.053,0a2.249,2.249,0,0,0-2.256,2.257,2.27,2.27,0,1,0,2.256-2.257Zm-72.4,0a2.232,2.232,0,0,0-2.257,2.257,2.255,2.255,0,0,0,2.257,2.284,2.278,2.278,0,0,0,2.283-2.284A2.255,2.255,0,0,0,883.065,2604.349ZM1180.132,2568a2.27,2.27,0,0,0,0,4.54,2.27,2.27,0,1,0,0-4.54Zm-306.12,36.35a2.249,2.249,0,0,0-2.257,2.257,2.27,2.27,0,1,0,2.257-2.257Zm18.1,0a2.255,2.255,0,0,0-2.284,2.257,2.279,2.279,0,0,0,2.284,2.284,2.255,2.255,0,0,0,2.256-2.284A2.232,2.232,0,0,0,892.117,2604.349Zm18.106,0a2.255,2.255,0,0,0-2.284,2.257,2.27,2.27,0,1,0,4.54,0A2.249,2.249,0,0,0,910.223,2604.349Zm-9.053,0a2.255,2.255,0,0,0-2.284,2.257,2.27,2.27,0,1,0,4.54,0A2.248,2.248,0,0,0,901.17,2604.349Z" fill="#c1a7e2"/>
  </g>
</svg>
