<svg xmlns="http://www.w3.org/2000/svg" width="276" height="113.265" viewBox="0 0 276 113.265">
  <title>Mills, Pubs &amp; Murderers</title>
  <g id="Group_56" data-name="Group 56" transform="translate(-822 -2037.636)">
    <path id="Path_292" data-name="Path 292" d="M857.289,2077.848l-1.233,4.513h-.065l-1.2-4.546-3.377-10.909h-7.955v21.43h4.968V2078.5l-.162-6.591h.065l5.292,16.43h4.514l5.292-16.43h.065l-.162,6.591v9.839h4.935v-21.43h-7.63Zm24.429-10.942h-5.584v21.43h5.584Zm7.063,41.685-1.2,5.083H887.5l-1.2-5.083-3.141-12.109H869.689v27.275h8.43v-9.464l-.124-9.174h.166l5.206,18.638h7.687l5.29-18.638h.124l-.124,9.174v9.464h8.388v-27.275h-12.81ZM990.527,2080.9h4.253a9.283,9.283,0,0,0,6.137-1.8,6.272,6.272,0,0,0,2.143-5.083,6.559,6.559,0,0,0-2.143-5.274,9.163,9.163,0,0,0-6.137-1.836h-9.838v21.43h5.585Zm0-9.773H993.9a4.214,4.214,0,0,1,2.677.7,2.577,2.577,0,0,1,.862,2.126,2.614,2.614,0,0,1-.862,2.157,4.206,4.206,0,0,1-2.677.7h-3.377Zm-95.352-4.221h-5.584v21.43h16.332v-4.319H895.175Zm63.337,24.839,2.435,1.721a7.419,7.419,0,0,0,3.362-2.663,6.791,6.791,0,0,0,1.151-3.864,4.85,4.85,0,0,0-.891-3.019,3.088,3.088,0,0,0-2.615-1.169,3.391,3.391,0,0,0-2.353.8,2.856,2.856,0,0,0-.894,2.255,2.542,2.542,0,0,0,.811,2.013,2.768,2.768,0,0,0,1.884.714,1.357,1.357,0,0,0,1.006-.357l.13.1a4.522,4.522,0,0,1-1.443,2.014A9.149,9.149,0,0,1,958.512,2091.745Zm-113.618,25.482a11.583,11.583,0,0,0,2.48-7.066H841.34a12.432,12.432,0,0,1-.537,3.76l-2.314-2.231-1.2-1.157a9.341,9.341,0,0,0,4.443-2.955,7.039,7.039,0,0,0,1.549-4.484,6.581,6.581,0,0,0-.929-3.368,6.887,6.887,0,0,0-3.038-2.624,12.231,12.231,0,0,0-5.372-1.033,11.981,11.981,0,0,0-5.352,1.074,7.417,7.417,0,0,0-3.2,2.811,7.08,7.08,0,0,0-1.033,3.677,8.865,8.865,0,0,0,.475,3.038,11.341,11.341,0,0,0,1.921,3.079,6.718,6.718,0,0,0-3.657,2.83A7.531,7.531,0,0,0,822,2116.4a6.652,6.652,0,0,0,2.769,5.827,12.715,12.715,0,0,0,7.438,1.942,12.336,12.336,0,0,0,7.645-2.19,11.622,11.622,0,0,0,3.7,1.756,19.2,19.2,0,0,0,4.484.434l.5-6.571a10.028,10.028,0,0,1-1.405.166A5.5,5.5,0,0,1,844.894,2117.227Zm-11.447,1.034a4.394,4.394,0,0,1-2.562-.641,2.039,2.039,0,0,1-.909-1.756,4.539,4.539,0,0,1,.124-1.137,2.456,2.456,0,0,1,.5-.93q.867.868,3.678,3.513l.867.827A10.947,10.947,0,0,1,833.447,2118.261Zm2.128-12.79a5.882,5.882,0,0,1-1.508,1.756,11.064,11.064,0,0,1-1.405-1.839,2.793,2.793,0,0,1-.372-1.343,2.254,2.254,0,0,1,.516-1.591,1.982,1.982,0,0,1,2.666-.083,1.714,1.714,0,0,1,.5,1.3A4.037,4.037,0,0,1,835.575,2105.471Zm156.17-8.989H978.356v27.275h13.389q6.363,0,9.649-3.533t3.286-10.105q0-6.57-3.286-10.1T991.745,2096.482Zm2.149,18.845q-.953,1.571-3.513,1.57h-2.4v-13.555h2.4q2.559,0,3.513,1.571a14.744,14.744,0,0,1,0,10.414Zm27.047-1.86h10.5v-6.53h-10.5v-3.388h13.017v-7.067h-22.646v27.275h23.142v-7.067h-13.513Zm31.744-26.625a5.045,5.045,0,0,0,1.981-4.286,4.745,4.745,0,0,0-1.249-3.359,5.863,5.863,0,0,0-3.654-1.674v-.032a5.077,5.077,0,0,0,3.247-1.624,4.75,4.75,0,0,0,1.1-3.182q0-5.747-7.728-5.779h-10.423v21.43h10.91A9.559,9.559,0,0,0,1052.685,2086.842ZM1041.353,2071h4.027q3.019,0,3.019,2.338t-3.019,2.337h-4.027Zm0,13.41v-4.741h4.579a3.605,3.605,0,0,1,2.258.6,2.076,2.076,0,0,1,.761,1.736,2.167,2.167,0,0,1-.761,1.786,3.548,3.548,0,0,1-2.258.617Zm25.588,21.208q0-4.547-2.789-6.839t-8.244-2.294h-14.795v27.275h9.423v-9.05h2.644l4.835,9.05h10.456l-6.447-10.083Q1066.942,2111.605,1066.941,2105.615Zm-10.393,2.211a4.509,4.509,0,0,1-2.583.558h-3.429v-5.042h3.429a4.372,4.372,0,0,1,2.583.579,2.874,2.874,0,0,1,0,3.905Zm-128.171-23.809H917.63v-17.111h-5.585v21.43h16.332Zm157.887,22.011q-2.064-.372-2.893-.619c-.549-.166-.826-.4-.826-.7a1.292,1.292,0,0,1,.867-1.136,5.21,5.21,0,0,1,2.315-.434,11.472,11.472,0,0,1,4.277.764,12.269,12.269,0,0,1,3.781,2.5l4.215-5.992a16.864,16.864,0,0,0-5.661-3.388,21.931,21.931,0,0,0-6.9-.951,18.241,18.241,0,0,0-6.922,1.178,9.636,9.636,0,0,0-4.359,3.285,8.305,8.305,0,0,0-1.488,4.918,6.824,6.824,0,0,0,1.674,4.876,9.4,9.4,0,0,0,3.884,2.521,39.56,39.56,0,0,0,5.352,1.322,21.513,21.513,0,0,1,3.1.7q.953.331.951.992,0,1.239-3.017,1.239a13.04,13.04,0,0,1-4.753-.8,11.33,11.33,0,0,1-3.8-2.5l-4.133,6.53a19.545,19.545,0,0,0,5.662,2.934,26.612,26.612,0,0,0,7.727.909,17.917,17.917,0,0,0,6.2-1.012,9.845,9.845,0,0,0,4.38-3,7.358,7.358,0,0,0,1.612-4.794,7.468,7.468,0,0,0-2.624-6.1Q1092.26,2107.1,1086.264,2106.028Zm-8.483-20.42a5.564,5.564,0,0,0,1.169-3.539,5.357,5.357,0,0,0-1.9-4.384q-1.9-1.559-6.346-2.37a12.564,12.564,0,0,1-3.265-.924,1.5,1.5,0,0,1-.956-1.316,1.782,1.782,0,0,1,.909-1.559,4.815,4.815,0,0,1,2.6-.584,7.319,7.319,0,0,1,3.456.761,6.925,6.925,0,0,1,2.518,2.388l3.15-3.636a11.394,11.394,0,0,0-4.012-2.955,13.415,13.415,0,0,0-5.21-.909,12.548,12.548,0,0,0-4.953.894,7.1,7.1,0,0,0-3.182,2.483,6.244,6.244,0,0,0-1.086,3.6,5.311,5.311,0,0,0,.989,3.312,6.73,6.73,0,0,0,2.792,2.063,24.1,24.1,0,0,0,4.563,1.314,13.427,13.427,0,0,1,3.2.894c.641.313.96.717.96,1.216a1.574,1.574,0,0,1-.9,1.443,5.569,5.569,0,0,1-2.677.505,9.322,9.322,0,0,1-3.831-.714,7.234,7.234,0,0,1-2.858-2.468l-2.857,3.9a10.245,10.245,0,0,0,3.929,2.745,16.456,16.456,0,0,0,5.909.891,13.1,13.1,0,0,0,4.658-.779A7.235,7.235,0,0,0,1077.781,2085.608Zm-126.294,0a5.57,5.57,0,0,0,1.168-3.539,5.357,5.357,0,0,0-1.9-4.384q-1.9-1.559-6.347-2.37a12.526,12.526,0,0,1-3.265-.924,1.5,1.5,0,0,1-.956-1.316,1.775,1.775,0,0,1,.909-1.559,4.807,4.807,0,0,1,2.6-.584,7.328,7.328,0,0,1,3.456.761,6.942,6.942,0,0,1,2.518,2.388l3.15-3.636a11.4,11.4,0,0,0-4.012-2.955,13.424,13.424,0,0,0-5.209-.909,12.556,12.556,0,0,0-4.954.894,7.1,7.1,0,0,0-3.182,2.483,6.223,6.223,0,0,0-1.086,3.6,5.3,5.3,0,0,0,.989,3.312,6.732,6.732,0,0,0,2.792,2.063,24.051,24.051,0,0,0,4.564,1.314,13.429,13.429,0,0,1,3.2.894c.638.313.96.717.96,1.216a1.572,1.572,0,0,1-.895,1.443,5.575,5.575,0,0,1-2.677.505,9.325,9.325,0,0,1-3.831-.714,7.22,7.22,0,0,1-2.858-2.468l-2.857,3.9a10.222,10.222,0,0,0,3.929,2.745,16.447,16.447,0,0,0,5.91.891,13.12,13.12,0,0,0,4.657-.779A7.244,7.244,0,0,0,951.487,2085.608Zm-22.692,27.156a4.662,4.662,0,0,1-.909,3.12,3.3,3.3,0,0,1-2.645,1.054,3.236,3.236,0,0,1-2.624-1.054,4.728,4.728,0,0,1-.888-3.12v-16.282h-9.67v15.539q0,12.149,13.182,12.149t13.183-12.149v-15.539h-9.629Zm89.948-24.1q4.773,0,7.176-2.273t2.4-6.786v-12.7h-5.552V2079.7q0,4.578-4.026,4.578a3.715,3.715,0,0,1-2.987-1.137,5.177,5.177,0,0,1-.975-3.441v-12.793h-5.617v12.7q0,4.512,2.418,6.786T1018.743,2088.66Zm-47.165,16.955q0-4.547-2.789-6.839t-8.244-2.294H945.75v27.275h9.422v-9.05h2.645l4.835,9.05h10.455l-6.446-10.083Q971.575,2111.605,971.578,2105.615Zm-10.393,2.211a4.511,4.511,0,0,1-2.583.558h-3.43v-5.042h3.43a4.374,4.374,0,0,1,2.583.579,2.874,2.874,0,0,1,0,3.905Z" fill="#222"/>
    <path id="Path_293" data-name="Path 293" d="M893.7,2037.636v3.931h133.875v-3.931Zm0,113.265h133.875v-3.932H893.7Zm0-7.875h133.875v-3.932H893.7Zm0-93.583h133.875v-3.932H893.7Z" fill="#c1a7e2"/>
  </g>
</svg>
