<svg xmlns="http://www.w3.org/2000/svg" width="451" height="101.819" viewBox="0 0 451 101.819">
  <title>Hidden underground railway tunnels</title>
  <g id="Group_60" data-name="Group 60" transform="translate(-298 -2043.359)">
    <g id="Group_59" data-name="Group 59">
      <path id="Path_298" data-name="Path 298" d="M730.752,2047.359c1.576,8.634,8.221,12.875,14.248,14.16v65.411c-8.635,1.575-12.875,8.221-14.161,14.248H316.248c-1.576-8.634-8.221-12.875-14.248-14.16v-65.411a16.653,16.653,0,0,0,12.35-9.161,21.63,21.63,0,0,0,1.764-5.087H730.752m3.652-4H312.6s0,14.6-14.6,14.6v72.627s14.6,0,14.6,14.6H734.4s0-14.6,14.6-14.6v-72.627s-14.6,0-14.6-14.6Z" fill="#c1a7e2"/>
      <path id="Path_299" data-name="Path 299" d="M723.839,2100.63a5.665,5.665,0,0,1-5.259-3.566H328.421a5.673,5.673,0,1,1,0-4.213H718.579a5.67,5.67,0,1,1,5.26,7.779Z" fill="#c1a7e2"/>
    </g>
    <path id="Path_300" data-name="Path 300" d="M360.08,2118.276l-2.249-.607a10.584,10.584,0,0,0,3.754-2.3,4.4,4.4,0,0,0,1.5-3.185,4.512,4.512,0,0,0-.885-2.729,5.864,5.864,0,0,0-2.49-1.91,9.168,9.168,0,0,0-3.677-.695c-.473,0-1.213.035-2.224.1q-2.075.155-4.2.152H344.66l-1.011,2.023,2.882.758v13.2l-2.376,2.072v1.8h9.706l1.012-2.022-2.907-.758v-14.1a3.225,3.225,0,0,1,1.846-.583,3.079,3.079,0,0,1,2.488,1,3.938,3.938,0,0,1,.848,2.642,3.6,3.6,0,0,1-.658,2.313,2.173,2.173,0,0,1-1.793.821H353.66l-.758,1.517,1.06.606,4.45,8.595h5.966l1.011-2.022-2.4-1.086Zm41.2-56.29h-8.258v19.464h8.258q4.572,0,7.005-2.52t2.432-7.212q0-4.69-2.432-7.211T401.281,2061.986Zm3.1,14.156a4.28,4.28,0,0,1-3.6,1.475H398.1v-11.8h2.682a4.28,4.28,0,0,1,3.6,1.474,9.078,9.078,0,0,1,0,8.848Zm-21.268,30.48-5.412,1.289-6.067,15.067-2.956,2.2v1.795h8.443l1.011-2.022L374.59,2123l1.037-2.577h7.38l1.29,3.186-3.008,1.566v1.795h10.465l1.011-2.022-2.629-1.19Zm-6.549,11.4,2.706-6.776,2.754,6.776Zm28.312-7,2.4-2.1v-1.8h-9.706l-1.011,2.022,2.881.759v13.2l-2.376,2.072v1.795h9.707l1.011-2.022-2.907-.759Zm35.663-39.391-.12-3.656h.031l1.474,2.949,6.046,10.528H453.6v-19.464h-4.485v9.821l.12,3.656H449.2l-1.474-2.949-6.046-10.528h-5.634v19.464h4.485Zm123.343,2.713h3.038l4.16,7.108h5.6l-4.955-7.637a5.706,5.706,0,0,0,2.832-2.095,6.1,6.1,0,0,0,.972-3.539,5.659,5.659,0,0,0-1.9-4.6,8.267,8.267,0,0,0-5.442-1.592H558.9v19.464h4.983Zm0-8.522h3.453a3.776,3.776,0,0,1,2.359.59,2.236,2.236,0,0,1,.737,1.858,2.271,2.271,0,0,1-.737,1.887,3.781,3.781,0,0,1-2.359.59h-3.453Zm-85.772,15.925q4.336,0,6.516-2.064t2.184-6.163v-11.532h-5.044V2073.6q0,4.159-3.656,4.159a3.38,3.38,0,0,1-2.713-1.032,4.712,4.712,0,0,1-.884-3.127v-11.619h-5.1v11.532q0,4.1,2.2,6.163T478.107,2081.745Zm-129.6-.3h5.072v-19.464h-5.072v7.7h-7.431v-7.7H336v19.464h5.072V2073.6h7.431Zm82.734-3.922h-10.47v-3.982H428.8v-3.686h-8.024v-3.951h10.088v-3.923H415.7v19.464h15.542Zm177.25-3.186h3.039l4.159,7.108h5.6l-4.955-7.637a5.7,5.7,0,0,0,2.832-2.095,6.1,6.1,0,0,0,.972-3.539,5.668,5.668,0,0,0-1.9-4.6,8.265,8.265,0,0,0-5.442-1.592h-9.29v19.464h4.983Zm0-8.522h3.451a3.787,3.787,0,0,1,2.361.59,2.244,2.244,0,0,1,.735,1.858,2.279,2.279,0,0,1-.735,1.887,3.792,3.792,0,0,1-2.361.59h-3.451Zm-243.99-3.834h-5.073v19.464H364.5Zm21.11,16.944q2.433-2.521,2.431-7.212t-2.431-7.211q-2.433-2.522-7.006-2.521h-8.258v19.464h8.258Q383.177,2081.45,385.611,2078.93Zm-10.189-1.313v-11.8H378.1a4.278,4.278,0,0,1,3.6,1.474,9.078,9.078,0,0,1,0,8.848,4.279,4.279,0,0,1-3.6,1.475Zm121.508-5.988-.117-3.656h.031l1.474,2.949,6.046,10.528H510v-19.464h-4.483v9.821l.117,3.656H505.6l-1.474-2.949-6.046-10.528h-5.634v19.464h4.482Zm151.728,52.94h-5.309v-6.546h2.376l1.7,3.185,2.022-1.011v-7.181h-1.8l-1.845,2.6h-2.453V2109.5h5.536l3.186,4.728,1.769-.758v-6.826l-2.1.454h-15.7l-1.011,2.023,2.881.784v13.4l-2.375,1.871v1.795H652l2.1.454v-7.331l-1.77-.758ZM642.21,2077.1a13.172,13.172,0,0,0,0-10.765,8.039,8.039,0,0,0-3.288-3.452,11.465,11.465,0,0,0-10.189,0,8.014,8.014,0,0,0-3.3,3.452,13.182,13.182,0,0,0,0,10.765,8.013,8.013,0,0,0,3.3,3.45,11.473,11.473,0,0,0,10.189,0A8.039,8.039,0,0,0,642.21,2077.1Zm-5.147-.871a3.73,3.73,0,0,1-3.23,1.533,3.774,3.774,0,0,1-3.244-1.533,9.66,9.66,0,0,1,0-9.026,3.781,3.781,0,0,1,3.244-1.533,3.737,3.737,0,0,1,3.23,1.533,9.744,9.744,0,0,1,0,9.026Zm-42.172,32.893,4.146,1.341v8.8l-11.451-12.16h-4.828l-1.011,2.023,2.881,1.643V2123.1l-2.376,2.072v1.795h8.19l1.011-2.022-4.171-1.365v-9.152l11.755,12.513h2.654V2110.97l2.4-2.1v-1.77H595.9Zm26.644,0,4.145,1.341v8.8l-11.45-12.16H609.4l-1.011,2.023,2.881,1.643V2123.1l-2.376,2.072v1.795h8.19l1.011-2.022-4.171-1.365v-9.152l11.755,12.513h2.654V2110.97l2.4-2.1v-1.77h-8.19Zm43.918-35.606v-11.532h-5.044V2073.6q0,4.159-3.656,4.159a3.379,3.379,0,0,1-2.713-1.032,4.707,4.707,0,0,1-.885-3.127v-11.619h-5.1v11.532q0,4.1,2.2,6.163t6.5,2.064q4.335,0,6.516-2.064T665.453,2073.518Zm7.472,51.051h-5.207v-13.8l2.4-1.87v-1.8h-9.707l-1.011,2.023,2.882.683v13.524l-2.376,1.87v1.8h16.71l2.1.454v-7.862l-1.77-.759ZM697,2117.227q-1.126-.773-2.944-1.809-1.545-.885-2.441-1.477a6.731,6.731,0,0,1-1.491-1.316,2.367,2.367,0,0,1-.6-1.528,1.788,1.788,0,0,1,.431-1.241,1.519,1.519,0,0,1,1.189-.48,3.492,3.492,0,0,1,2.439,1.152,10.635,10.635,0,0,1,2.111,3.172h3.235v-5.915a18.543,18.543,0,0,0-3.5-.81,27.043,27.043,0,0,0-4.182-.379,6.7,6.7,0,0,0-3.261,1,10.793,10.793,0,0,0-3,2.451,4.351,4.351,0,0,0-1.227,2.717,3.79,3.79,0,0,0,.81,2.353,8.732,8.732,0,0,0,1.945,1.858c.759.529,1.761,1.159,3.008,1.882q1.517.885,2.378,1.468a7.111,7.111,0,0,1,1.44,1.263,2.165,2.165,0,0,1,.583,1.414,1.6,1.6,0,0,1-.546,1.215,2.047,2.047,0,0,1-1.453.506,4.183,4.183,0,0,1-2.7-1.138,9.784,9.784,0,0,1-2.352-3.186h-3.235v5.915a19.553,19.553,0,0,0,3.717.81,31.143,31.143,0,0,0,4.447.379,7.347,7.347,0,0,0,3.413-1,11.449,11.449,0,0,0,3.174-2.451,4.244,4.244,0,0,0,1.3-2.717,3.727,3.727,0,0,0-.784-2.3A8.12,8.12,0,0,0,697,2117.227Zm12.772-52.72q-2.433-2.522-7-2.521h-8.258v19.464h8.258q4.57,0,7-2.52t2.434-7.212Q712.209,2067.028,709.775,2064.507Zm-3.907,11.635a4.279,4.279,0,0,1-3.6,1.475h-2.685v-11.8h2.685a4.279,4.279,0,0,1,3.6,1.474,9.085,9.085,0,0,1,0,8.848Zm-17.227-14.156h-4.482v9.821l.117,3.656h-.028l-1.475-2.949-6.046-10.528h-5.633v19.464h4.482v-9.821l-.117-3.656h.03l1.475,2.949,6.046,10.528h5.631Zm-185.333,47.138,3.513,1.846-4.12,5.637-4.222-6.421,1.643-1.264v-1.8h-9.2l-.505,2.022,1.8.81,6.951,10.718v2.68l-2.375,1.87v1.795h9.453l1.012-2.022-2.907-.709v-5.384l5.535-7.735,2.881-2.275v-1.8h-8.442Zm-22.777-2.5-5.409,1.289-6.067,15.067-2.956,2.2v1.795h8.443l1.011-2.022L472.014,2123l1.037-2.577h7.38l1.289,3.186-3.008,1.566v1.795h10.465l1.012-2.022-2.629-1.19Zm-6.547,11.4,2.706-6.776,2.755,6.776Zm-48.13,6.546h-5.208v-13.8l2.4-1.87v-1.8h-9.707l-1.011,2.023,2.881.683v13.524l-2.375,1.87v1.8h16.709l2.1.454v-7.862l-1.77-.759Zm107.709-52.851q0-4.69-2.434-7.211t-7-2.521h-8.258v19.464h8.258q4.572,0,7-2.52T533.563,2071.718Zm-6.34,4.424a4.281,4.281,0,0,1-3.6,1.475h-2.684v-11.8h2.684a4.281,4.281,0,0,1,3.6,1.474,9.092,9.092,0,0,1,0,8.848ZM466.352,2107.1h-8.445l-1.011,2.023,3.716,2.022-3.993,11.553-4.3-12.311L455,2108.9v-1.8h-9.707l-1.011,2.023,2.275,1.112,1.442,3.969-2.528,8.417-4.854-12.487,1.743-1.264v-1.8h-8.948L432.4,2109.1l2.605,1.189,6.8,17.138,5.409-1.287,2.275-7.813,3.312,9.1,5.409-1.287,5.334-15.193,2.807-2.074Zm102.907,2.023,3.134,1.062v9.126a4.926,4.926,0,0,1-.643,2.552,4.554,4.554,0,0,1-1.62,1.657,3.848,3.848,0,0,1-1.959.569,5.072,5.072,0,0,1-3.841-1.328,5.151,5.151,0,0,1-1.264-3.7v-8.293l2.4-1.87v-1.8h-9.707l-1.011,2.023,2.881.683v9.959a7.183,7.183,0,0,0,1.124,3.956,7.674,7.674,0,0,0,3.136,2.755,10.1,10.1,0,0,0,4.562,1,9.054,9.054,0,0,0,3.892-.947,8.6,8.6,0,0,0,3.35-2.844,7.635,7.635,0,0,0,1.353-4.55v-8.368l2.4-1.87v-1.8h-7.178Zm-36.476-2.023-2.1-.454v7.331l1.769.758,3.666-5.233h1.821v13.8l-2.376,1.871v1.795h9.706l1.011-2.022-2.907-.684V2109.5h1.9l3.666,5.233,1.769-.758v-7.331l-2.1.454ZM584,2080.58a9.35,9.35,0,0,0,4.7,1.165q3.894,0,5.573-2.6l.148,2.3h3.539v-10.528h-9.143v3.42h4.838v.295a2.8,2.8,0,0,1-1.107,2.39,4.736,4.736,0,0,1-2.905.826q-4.777,0-4.777-6.135a7.251,7.251,0,0,1,1.194-4.513,4.106,4.106,0,0,1,3.436-1.533,4.011,4.011,0,0,1,2.418.707,3.593,3.593,0,0,1,1.327,2.154l4.691-1.859a8,8,0,0,0-3.216-3.8,10.638,10.638,0,0,0-5.367-1.18,10.476,10.476,0,0,0-5.162,1.21,8.243,8.243,0,0,0-3.361,3.464,11.487,11.487,0,0,0-1.179,5.384,11.8,11.8,0,0,0,1.149,5.411A8,8,0,0,0,584,2080.58Zm-40.386-7.034h8.022v-3.686h-8.022v-3.951H553.7v-3.923H538.544v19.464h15.542v-3.922h-10.47Z" fill="#222"/>
  </g>
</svg>
