<svg xmlns="http://www.w3.org/2000/svg" width="423" height="84.949" viewBox="0 0 423 84.949">
  <title>Mossley's Tram Crash</title>
  <g id="Group_58" data-name="Group 58" transform="translate(-1188 -2051.794)">
    <path id="Path_296" data-name="Path 296" d="M1206.113,2057.65l-12.257,12.257v48.721l12.257,12.259h386.772l12.259-12.259v-48.721l-12.259-12.257Zm396.687,60.008-10.886,10.885H1207.083l-10.883-10.885v-46.781l10.883-10.883h384.831l10.886,10.883Zm-7.489-65.864H1203.686L1188,2067.481v53.573l15.686,15.689h391.625L1611,2121.054v-53.573Zm13.345,68.29-14.317,14.316H1204.658l-14.314-14.316v-51.633l14.314-14.314h389.681l14.317,14.314Z" fill="#c1a7e2"/>
    <path id="Path_297" data-name="Path 297" d="M1249.9,2080.173a6.858,6.858,0,1,0-6.6,6.644,6.106,6.106,0,0,0,6.6-6.644Zm-4.059,3.1a3.562,3.562,0,0,1-5.1,0,5.8,5.8,0,0,1,0-6.206,3.563,3.563,0,0,1,5.1,0,5.8,5.8,0,0,1,0,6.206Zm12.1,1.05a6.021,6.021,0,0,1-2.573-.485,4.55,4.55,0,0,1-1.788-1.591l-1.615,2.282a6.469,6.469,0,0,0,2.48,1.709,9.614,9.614,0,0,0,3.517.576,7.2,7.2,0,0,0,4.176-1.085,3.386,3.386,0,0,0,1.568-2.929,3.114,3.114,0,0,0-.783-2.262,4.367,4.367,0,0,0-1.846-1.141,20.721,20.721,0,0,0-2.7-.612,10.7,10.7,0,0,1-2.17-.506.931.931,0,0,1-.691-.876,1.125,1.125,0,0,1,.647-1.015,3.754,3.754,0,0,1,1.844-.371,5.146,5.146,0,0,1,2.318.45,4.3,4.3,0,0,1,1.6,1.535l1.731-2.191a6.446,6.446,0,0,0-2.387-1.743,8.8,8.8,0,0,0-3.312-.542,7.952,7.952,0,0,0-3.009.521,4.423,4.423,0,0,0-1.973,1.464,3.539,3.539,0,0,0-.692,2.145,3.2,3.2,0,0,0,.774,2.294,4.153,4.153,0,0,0,1.821,1.144,19.609,19.609,0,0,0,2.711.576,12.974,12.974,0,0,1,2.2.473.893.893,0,0,1,.68.886Q1260.472,2084.327,1257.936,2084.326Zm8.627,20.085a7.953,7.953,0,0,0,1.267-4.614,7.372,7.372,0,0,0-2.479-6q-2.478-2.078-7.094-2.077h-12.109V2117.1h6.5v-9.264h3.96l5.421,9.264h7.3l-6.458-9.955A7.4,7.4,0,0,0,1266.563,2104.411Zm-6.344-2.039a4.923,4.923,0,0,1-3.075.769h-4.5v-6.419h4.5a4.916,4.916,0,0,1,3.075.769,2.916,2.916,0,0,1,.961,2.42A2.963,2.963,0,0,1,1260.219,2102.372Zm60.877-23.628,1.453,1.106a4.921,4.921,0,0,0,2.2-1.8,4.642,4.642,0,0,0,.75-2.582,3.067,3.067,0,0,0-.577-1.939,1.957,1.957,0,0,0-1.638-.738,2.042,2.042,0,0,0-1.441.52,1.8,1.8,0,0,0-.567,1.4,1.662,1.662,0,0,0,1.685,1.776.94.94,0,0,0,.691-.23l.094.068a3.08,3.08,0,0,1-.936,1.418A5.151,5.151,0,0,1,1321.1,2078.744Zm-30.377,5.42h-7.129v-10.45h-3.159v12.918h10.288Zm-69.5-3.344-.162-4.268h.024l3.623,10.08h2.491l3.621-10.08h.046l-.208,4.268v5.812h2.906v-12.918h-4.382l-2.4,6.944-.762,2.559h-.093l-.76-2.559-2.423-6.944h-4.4v12.918h2.882Zm56.232,1.983a3.115,3.115,0,0,0-.785-2.262,4.355,4.355,0,0,0-1.844-1.141,20.757,20.757,0,0,0-2.7-.612,10.647,10.647,0,0,1-2.167-.506.928.928,0,0,1-.692-.876,1.123,1.123,0,0,1,.645-1.015,3.764,3.764,0,0,1,1.846-.371,5.158,5.158,0,0,1,2.318.45,4.323,4.323,0,0,1,1.6,1.535l1.729-2.191a6.423,6.423,0,0,0-2.388-1.743,8.791,8.791,0,0,0-3.309-.542,7.971,7.971,0,0,0-3.011.521,4.422,4.422,0,0,0-1.971,1.464,3.538,3.538,0,0,0-.691,2.145,3.2,3.2,0,0,0,.771,2.294,4.149,4.149,0,0,0,1.823,1.144,19.508,19.508,0,0,0,2.709.576,12.858,12.858,0,0,1,2.2.473.891.891,0,0,1,.682.886q0,1.295-2.538,1.294a6,6,0,0,1-2.571-.485,4.536,4.536,0,0,1-1.788-1.591l-1.615,2.282a6.44,6.44,0,0,0,2.48,1.709,9.607,9.607,0,0,0,3.517.576,7.219,7.219,0,0,0,4.177-1.085A3.385,3.385,0,0,0,1277.45,2082.8Zm-61.866,14.034h8.3V2117.1h6.614v-20.259h8.265v-5.114h-23.182Zm224.664-8.769q0-7.2-4.485-10.942t-13.049-3.738h-22.971v44.855h13.592V2102.68h5.641l8.7,15.563h15.156l-10.942-17.058Q1440.249,2097.855,1440.248,2088.068Zm-15.359,4.043q-1.428,1.12-4.826,1.122h-6.728v-9.718h6.728q3.33,0,4.793,1.155a4.484,4.484,0,0,1,1.46,3.738A4.429,4.429,0,0,1,1424.889,2092.111Zm-45.317,14.611a7.574,7.574,0,0,1-5.2,1.6q-8.427,0-8.428-12.505,0-6.253,2.208-9.379a7.311,7.311,0,0,1,6.355-3.126,7.189,7.189,0,0,1,4.962,1.528q1.7,1.528,2.446,5.676l12.029-4.825a14.662,14.662,0,0,0-6.864-9.752,27.549,27.549,0,0,0-24.942-.478,18.732,18.732,0,0,0-7.747,7.954,29.723,29.723,0,0,0,0,24.839,18.436,18.436,0,0,0,7.78,7.951,25.021,25.021,0,0,0,12,2.719,23.647,23.647,0,0,0,13.081-3.4q5.27-3.4,7.1-10.6l-12.369-3.33A8.579,8.579,0,0,1,1379.572,2106.722Zm-95.466-15-8.919,25.373h6.651l1.767-5.727h8.767l1.729,5.727h6.806l-8.882-25.373Zm.884,15.149,1.921-6.115,1.038-3.96h.078l1.115,4,1.845,6.075Zm175.138-33.484-15.087,44.855h13.864l2.582-9.31h13.66l2.515,9.31h14.272l-15.155-44.855Zm3.806,26.574,2.514-8.971,1.835-7.272h.136l1.9,7.34,2.447,8.9Zm105.406-26.574v17.059H1554.8v-17.059h-13.864v44.855H1554.8v-17.4h14.544v17.4h13.932v-44.855Zm-58.351,10.738a9.078,9.078,0,0,1,4.553-.951,15.745,15.745,0,0,1,12.913,5.913l6.8-8.767a25.992,25.992,0,0,0-8.936-5.88,31.876,31.876,0,0,0-11.112-1.732,28.13,28.13,0,0,0-10.874,1.9,15.453,15.453,0,0,0-6.932,5.3,13.282,13.282,0,0,0-2.379,7.815,11.055,11.055,0,0,0,2.447,7.509,15.231,15.231,0,0,0,6.151,4.249,52.856,52.856,0,0,0,9.14,2.446,31.752,31.752,0,0,1,5.812,1.5q1.8.749,1.8,2.038,0,2.992-6.185,2.991a20.56,20.56,0,0,1-7.916-1.4,16.078,16.078,0,0,1-6.084-4.586l-6.456,9.515a26.486,26.486,0,0,0,8.835,5.265,38.679,38.679,0,0,0,12.505,1.667,28.717,28.717,0,0,0,9.99-1.631,15.789,15.789,0,0,0,7-4.825,11.827,11.827,0,0,0,2.583-7.68,13,13,0,0,0-1.8-7.068,13.289,13.289,0,0,0-5.709-4.725,41.575,41.575,0,0,0-10.433-3.023,33.955,33.955,0,0,1-5.641-1.427q-1.7-.678-1.7-1.9A2.846,2.846,0,0,1,1510.989,2084.126Zm-199.893,2.506h3.159v-4.821l4.823-8.1h-3.229l-2.1,3.83-1.038,1.982-1.015-1.982-2.1-3.83h-3.321l4.821,8.1Zm25.685-7.232a20.759,20.759,0,0,0-2.7-.612,10.678,10.678,0,0,1-2.168-.506.929.929,0,0,1-.691-.876,1.128,1.128,0,0,1,.645-1.015,3.769,3.769,0,0,1,1.846-.371,5.152,5.152,0,0,1,2.318.45,4.3,4.3,0,0,1,1.6,1.535l1.729-2.191a6.439,6.439,0,0,0-2.385-1.743,8.818,8.818,0,0,0-3.312-.542,7.952,7.952,0,0,0-3.009.521,4.417,4.417,0,0,0-1.973,1.464,3.539,3.539,0,0,0-.691,2.145,3.211,3.211,0,0,0,.771,2.294,4.148,4.148,0,0,0,1.823,1.144,19.573,19.573,0,0,0,2.711.576,12.952,12.952,0,0,1,2.2.473.892.892,0,0,1,.68.886q0,1.295-2.538,1.294a6.017,6.017,0,0,1-2.571-.485,4.536,4.536,0,0,1-1.788-1.591l-1.615,2.282a6.455,6.455,0,0,0,2.48,1.709,9.613,9.613,0,0,0,3.517.576,7.208,7.208,0,0,0,4.176-1.085,3.384,3.384,0,0,0,1.568-2.929,3.115,3.115,0,0,0-.785-2.262A4.361,4.361,0,0,0,1336.781,2079.4Zm-39.854,1.835h5.7V2079h-5.7v-2.953h7.314v-2.33h-10.473v12.918h10.68v-2.33h-7.521Zm27.358,23.445-1.462,5.344h-.077l-1.423-5.383-4-12.918h-9.418V2117.1h5.882v-11.647l-.192-7.806h.077l6.267,19.453h5.343l6.266-19.453h.078l-.192,7.806V2117.1h5.844v-25.373h-9.036Z" fill="#222"/>
  </g>
</svg>
