<svg xmlns="http://www.w3.org/2000/svg" width="262.562" height="117.467" viewBox="0 0 262.562 117.467">
  <title>Mossley's day at Wembley</title>
  <g id="Group_57" data-name="Group 57" transform="translate(-363.438 -2498.343)">
    <path id="Path_294" data-name="Path 294" d="M386.863,2528.431l-.281,7.3v15.323h3.931v-26.473h-6.257l-5.3,15.322-1.885,6.3H377l-1.845-6.3-5.335-15.322h-6.378v26.473h3.971v-15.323l-.321-7.3h.041l8.062,22.623h3.57l8.062-22.623Zm26.077,56.7a3.109,3.109,0,0,1-2.146-.7,2.741,2.741,0,0,1-.782-2.146v-10.67h7.019v-3.369h-7.019v-5.9l-4.292,1.2v4.693h-3.81v3.369h3.81V2583a5.4,5.4,0,0,0,1.7,4.312,6.712,6.712,0,0,0,4.432,1.383,9.41,9.41,0,0,0,2.988-.461,7.146,7.146,0,0,0,2.347-1.263l-1-3.129A4.673,4.673,0,0,1,412.94,2585.131Zm186.217-4.653-1.364,4.131-1.163-3.77-4.412-12.6H587.4l6.258,15.2,2.085,4.973-.882,2.167a5.173,5.173,0,0,1-1.464,2.266,3.262,3.262,0,0,1-2.026.622,4.052,4.052,0,0,1-3.289-1.445l-1.243,3.29a5.36,5.36,0,0,0,2.025,1.223,8.561,8.561,0,0,0,2.708.381,6.662,6.662,0,0,0,4.412-1.4,11.736,11.736,0,0,0,3.008-4.853l8.785-22.422h-4.453Zm-200.788,4.653a1.6,1.6,0,0,1-.341-1.124v-9.065a6.337,6.337,0,0,0-2.287-5.294,9.7,9.7,0,0,0-6.177-1.8,10.059,10.059,0,0,0-5.475,1.4,6.66,6.66,0,0,0-2.948,3.81l3.329,1.765a4.946,4.946,0,0,1,5.174-3.61,4.114,4.114,0,0,1,3.009,1.063,3.889,3.889,0,0,1,1.083,2.908v1.083l-5.094.882a12.566,12.566,0,0,0-5.856,2.307,4.991,4.991,0,0,0-1.966,3.991,4.583,4.583,0,0,0,1.8,3.89,7.65,7.65,0,0,0,4.733,1.364,10.073,10.073,0,0,0,4.051-.782,6,6,0,0,0,2.728-2.186,3.4,3.4,0,0,0,1.344,2.286,4.874,4.874,0,0,0,2.747.682,6.063,6.063,0,0,0,2.487-.481l.281-2.888a5.907,5.907,0,0,1-1.484.16A1.52,1.52,0,0,1,398.369,2585.131Zm-4.633-3.49a3.157,3.157,0,0,1-1.645,2.767,6.947,6.947,0,0,1-3.81,1.043,3.681,3.681,0,0,1-2.226-.581,1.992,1.992,0,0,1-.783-1.705,2.261,2.261,0,0,1,1-1.925,7.946,7.946,0,0,1,3.089-1.123l4.372-.883Zm107.54-26.035a3.249,3.249,0,0,1-2.026.622,4.058,4.058,0,0,1-3.289-1.444l-1.243,3.289a5.357,5.357,0,0,0,2.025,1.223,8.56,8.56,0,0,0,2.708.381,6.657,6.657,0,0,0,4.412-1.4,11.724,11.724,0,0,0,3.008-4.853L515.656,2531H511.2l-4.171,12.234-1.364,4.131-1.163-3.77L500.093,2531h-4.814l6.258,15.2,2.085,4.974-.882,2.166A5.141,5.141,0,0,1,501.276,2555.606ZM437.021,2545.4a4.746,4.746,0,0,0-1.764-3.931q-1.767-1.406-6.017-2.166a12.723,12.723,0,0,1-3.871-1.163,1.942,1.942,0,0,1-1.063-1.725,2.073,2.073,0,0,1,1.184-1.705,5.524,5.524,0,0,1,2.988-.742,6.112,6.112,0,0,1,3.309.823,5.306,5.306,0,0,1,2.026,2.587l3.048-2.246a7.281,7.281,0,0,0-3.088-3.43,11.076,11.076,0,0,0-5.335-1.1,10.865,10.865,0,0,0-4.513.862,6.953,6.953,0,0,0-2.908,2.287,5.209,5.209,0,0,0-1,3.068,4.738,4.738,0,0,0,1.8,3.971q1.8,1.406,6.257,2.246a13.786,13.786,0,0,1,3.61,1.1,1.743,1.743,0,0,1,1.043,1.545,1.982,1.982,0,0,1-1.123,1.745,6.293,6.293,0,0,1-3.169.661,8.506,8.506,0,0,1-3.851-.8,4.963,4.963,0,0,1-2.366-2.527l-2.888,2.487a7.409,7.409,0,0,0,3.549,3.169,13.153,13.153,0,0,0,5.4,1.043,10.766,10.766,0,0,0,6.418-1.685A5.174,5.174,0,0,0,437.021,2545.4Zm132.555,6.057a7.69,7.69,0,0,0,4.071-1.083,6.846,6.846,0,0,0,2.667-2.888l.241,3.57h3.77v-29.081h-4.291v12.274a6.568,6.568,0,0,0-2.568-2.667,7.57,7.57,0,0,0-3.89-.983,8.126,8.126,0,0,0-6.518,2.788q-2.385,2.788-2.387,7.681t2.387,7.641A8.188,8.188,0,0,0,569.576,2551.455Zm-3.109-15.543a5.426,5.426,0,0,1,8.082-.04,7.457,7.457,0,0,1,1.485,4.913v.481a7.544,7.544,0,0,1-1.485,4.934,5.387,5.387,0,0,1-8.082-.04,8.055,8.055,0,0,1-1.464-5.134A7.971,7.971,0,0,1,566.467,2535.912Zm-113.751,11.512a6.293,6.293,0,0,1-3.169.661,8.5,8.5,0,0,1-3.85-.8,4.961,4.961,0,0,1-2.367-2.527l-2.888,2.487a7.416,7.416,0,0,0,3.55,3.169,13.15,13.15,0,0,0,5.395,1.043,10.768,10.768,0,0,0,6.418-1.685,5.173,5.173,0,0,0,2.326-4.372,4.744,4.744,0,0,0-1.765-3.931q-1.766-1.406-6.016-2.166a12.723,12.723,0,0,1-3.871-1.163,1.94,1.94,0,0,1-1.063-1.725,2.073,2.073,0,0,1,1.183-1.705,5.528,5.528,0,0,1,2.989-.742,6.112,6.112,0,0,1,3.309.823,5.3,5.3,0,0,1,2.025,2.587l3.049-2.246a7.283,7.283,0,0,0-3.089-3.43,11.073,11.073,0,0,0-5.335-1.1,10.86,10.86,0,0,0-4.512.862,6.953,6.953,0,0,0-2.908,2.287,5.21,5.21,0,0,0-1,3.068,4.741,4.741,0,0,0,1.8,3.971q1.806,1.406,6.257,2.246a13.773,13.773,0,0,1,3.61,1.1,1.741,1.741,0,0,1,1.043,1.545A1.98,1.98,0,0,1,452.716,2547.424Zm-46.626,4.031a9.678,9.678,0,0,0,7.341-2.768,12.41,12.41,0,0,0,0-15.322,11.117,11.117,0,0,0-14.681,0,12.41,12.41,0,0,0,0,15.322A9.677,9.677,0,0,0,406.09,2551.455Zm-4.191-15.663a5.727,5.727,0,0,1,8.4.019,9.9,9.9,0,0,1,0,10.429,5.728,5.728,0,0,1-8.4.02,10.088,10.088,0,0,1,0-10.468ZM621.548,2531l-4.172,12.234-1.364,4.131-1.163-3.77L610.437,2531h-4.813l6.257,15.2,2.086,4.974-.883,2.166a5.149,5.149,0,0,1-1.464,2.266,3.255,3.255,0,0,1-2.025.622,4.051,4.051,0,0,1-3.289-1.444l-1.244,3.289a5.361,5.361,0,0,0,2.026,1.223,8.554,8.554,0,0,0,2.707.381,6.665,6.665,0,0,0,4.413-1.4,11.734,11.734,0,0,0,3.008-4.853L626,2531ZM456.821,2584.93l-5.856-23.1h-4.412l-5.816,23.064-5.776-23.064h-4.653l7.781,26.473h5.1l4.171-15.884,1.324-6.1h.04l1.323,6.1,4.212,15.884h5.054l7.741-26.473h-4.412Zm79.663-33.475a10.76,10.76,0,0,0,6.418-1.685,5.174,5.174,0,0,0,2.327-4.372,4.738,4.738,0,0,0-1.765-3.931q-1.767-1.406-6.017-2.166a12.733,12.733,0,0,1-3.87-1.163,1.947,1.947,0,0,1-1.064-1.725,2.079,2.079,0,0,1,1.184-1.705,5.526,5.526,0,0,1,2.988-.742,6.1,6.1,0,0,1,3.309.823,5.306,5.306,0,0,1,2.026,2.587l3.048-2.246a7.265,7.265,0,0,0-3.088-3.43,11.067,11.067,0,0,0-5.335-1.1,10.868,10.868,0,0,0-4.513.862,6.972,6.972,0,0,0-2.908,2.287,5.23,5.23,0,0,0-1,3.068,4.738,4.738,0,0,0,1.8,3.971q1.8,1.406,6.257,2.246a13.785,13.785,0,0,1,3.61,1.1,1.738,1.738,0,0,1,1.043,1.545,1.982,1.982,0,0,1-1.123,1.745,6.286,6.286,0,0,1-3.169.661,8.515,8.515,0,0,1-3.851-.8,4.976,4.976,0,0,1-2.366-2.527l-2.888,2.487a7.407,7.407,0,0,0,3.55,3.169A13.155,13.155,0,0,0,536.484,2551.455Zm-15.787,17.21a8.319,8.319,0,0,0-3.69-.822,8.475,8.475,0,0,0-4.071,1.023,6.369,6.369,0,0,0-2.828,2.988,6.29,6.29,0,0,0-2.707-2.988,8.192,8.192,0,0,0-4.071-1.023,7.749,7.749,0,0,0-3.771.942,6.753,6.753,0,0,0-2.727,2.788l-.2-3.329h-3.81V2588.3h4.291V2577.63a7.329,7.329,0,0,1,.762-3.53,4.983,4.983,0,0,1,1.966-2.066,5.1,5.1,0,0,1,2.487-.661,4.072,4.072,0,0,1,3.008,1.123,4.757,4.757,0,0,1,1.123,3.489V2588.3h4.292v-10.91a6.194,6.194,0,0,1,1.5-4.412,4.883,4.883,0,0,1,3.71-1.6,4.076,4.076,0,0,1,3.009,1.123,4.761,4.761,0,0,1,1.123,3.489V2588.3h4.292v-13a7.962,7.962,0,0,0-1-4.131A6.3,6.3,0,0,0,520.7,2568.665Zm1.316-45.569a2.973,2.973,0,0,0-2.166.863,2.883,2.883,0,0,0-.882,2.146,2.641,2.641,0,0,0,.782,2.045,2.555,2.555,0,0,0,1.785.722,1.818,1.818,0,0,0,1.163-.321l.16.121a5.388,5.388,0,0,1-1.484,2.427,7.591,7.591,0,0,1-2.767,1.7l2.085,1.725a7.9,7.9,0,0,0,3.55-2.988,7.8,7.8,0,0,0,1.184-4.192,4.914,4.914,0,0,0-.9-3.068A2.979,2.979,0,0,0,522.013,2523.1ZM561.3,2585.09a1.965,1.965,0,0,1-1.645-.581,3.552,3.552,0,0,1-.441-2.066v-23.224h-4.292v23.826a6.16,6.16,0,0,0,1.264,4.291,5.148,5.148,0,0,0,3.951,1.364,7.368,7.368,0,0,0,3.329-.682l.481-3.449a7.285,7.285,0,0,1-1.344.421A7.369,7.369,0,0,1,561.3,2585.09Zm14.778-17.247a9.4,9.4,0,0,0-7.22,2.747q-2.571,2.746-2.567,7.681a10.578,10.578,0,0,0,2.667,7.662,9.789,9.789,0,0,0,7.4,2.767q6.378,0,8.624-4.653l-3.57-1.484a3.67,3.67,0,0,1-1.785,2.026,6.859,6.859,0,0,1-3.269.7,5.615,5.615,0,0,1-3.93-1.384,6.388,6.388,0,0,1-1.885-4.031h14.68a14.633,14.633,0,0,0,.16-2.206,10.2,10.2,0,0,0-2.446-7.14A8.817,8.817,0,0,0,576.082,2567.843Zm-5.535,8.744a6.533,6.533,0,0,1,1.784-3.971,5.2,5.2,0,0,1,3.751-1.364,4.819,4.819,0,0,1,3.59,1.4,6.614,6.614,0,0,1,1.7,3.931Zm-29.447-8.744a7.742,7.742,0,0,0-3.871.962,6.666,6.666,0,0,0-2.627,2.648v-12.234H530.31v29.08h3.77l.2-3.73a6.976,6.976,0,0,0,2.667,3.008,7.632,7.632,0,0,0,4.152,1.123,8.13,8.13,0,0,0,6.5-2.747q2.369-2.746,2.367-7.641t-2.367-7.682A8.069,8.069,0,0,0,541.1,2567.843Zm3.108,15.563a4.909,4.909,0,0,1-4.071,1.845,4.979,4.979,0,0,1-3.911-1.645,7.256,7.256,0,0,1-1.624-4.572v-1.525a7.2,7.2,0,0,1,1.624-4.532,4.978,4.978,0,0,1,3.911-1.645,4.927,4.927,0,0,1,4.071,1.825,7.976,7.976,0,0,1,1.464,5.114A8.058,8.058,0,0,1,544.208,2583.406Zm-72.379-36.083a7.192,7.192,0,0,1-1.344.421,7.336,7.336,0,0,1-1.3.1,1.958,1.958,0,0,1-1.645-.582,3.549,3.549,0,0,1-.441-2.066v-23.224H462.8V2545.8a6.168,6.168,0,0,0,1.263,4.292,5.151,5.151,0,0,0,3.951,1.364,7.391,7.391,0,0,0,3.33-.682Zm119.851,4.132a10.081,10.081,0,0,0,4.051-.783,5.992,5.992,0,0,0,2.727-2.186,3.4,3.4,0,0,0,1.344,2.287,4.888,4.888,0,0,0,2.748.682,6.055,6.055,0,0,0,2.486-.482l.281-2.888a5.885,5.885,0,0,1-1.484.161,1.525,1.525,0,0,1-1.143-.361,1.6,1.6,0,0,1-.341-1.123V2537.7a6.34,6.34,0,0,0-2.286-5.295,9.7,9.7,0,0,0-6.177-1.805,10.058,10.058,0,0,0-5.475,1.4,6.665,6.665,0,0,0-2.949,3.81l3.33,1.765a4.947,4.947,0,0,1,5.174-3.61,4.116,4.116,0,0,1,3.008,1.063,3.889,3.889,0,0,1,1.083,2.908v1.083l-5.094.883a12.567,12.567,0,0,0-5.856,2.306,4.994,4.994,0,0,0-1.965,3.991,4.583,4.583,0,0,0,1.8,3.891A7.658,7.658,0,0,0,591.68,2551.455Zm-1.083-7.461a7.972,7.972,0,0,1,3.088-1.123l4.372-.882v2.406a3.158,3.158,0,0,1-1.644,2.768,6.956,6.956,0,0,1-3.811,1.043,3.683,3.683,0,0,1-2.226-.582,1.993,1.993,0,0,1-.782-1.705A2.259,2.259,0,0,1,590.6,2543.994Zm-101.306,1.324a3.672,3.672,0,0,1-1.785,2.025,6.848,6.848,0,0,1-3.269.7,5.62,5.62,0,0,1-3.93-1.384,6.394,6.394,0,0,1-1.886-4.031H493.1a14.621,14.621,0,0,0,.16-2.206,10.2,10.2,0,0,0-2.446-7.139,8.807,8.807,0,0,0-6.859-2.688,9.4,9.4,0,0,0-7.22,2.748q-2.566,2.745-2.567,7.681a10.576,10.576,0,0,0,2.667,7.661,9.8,9.8,0,0,0,7.4,2.768q6.378,0,8.624-4.653Zm-9.085-9.948a5.2,5.2,0,0,1,3.751-1.364,4.823,4.823,0,0,1,3.59,1.4,6.617,6.617,0,0,1,1.7,3.931h-10.83A6.559,6.559,0,0,1,480.206,2535.37Zm-1.633,32.473a9.4,9.4,0,0,0-7.22,2.747q-2.571,2.746-2.567,7.681a10.578,10.578,0,0,0,2.667,7.662,9.789,9.789,0,0,0,7.4,2.767q6.378,0,8.624-4.653l-3.57-1.484a3.67,3.67,0,0,1-1.785,2.026,6.86,6.86,0,0,1-3.269.7,5.615,5.615,0,0,1-3.93-1.384,6.4,6.4,0,0,1-1.886-4.031h14.681a14.633,14.633,0,0,0,.16-2.206,10.2,10.2,0,0,0-2.446-7.14A8.817,8.817,0,0,0,478.573,2567.843Zm-5.536,8.744a6.539,6.539,0,0,1,1.785-3.971,5.2,5.2,0,0,1,3.751-1.364,4.819,4.819,0,0,1,3.59,1.4,6.614,6.614,0,0,1,1.7,3.931Z" fill="#222"/>
    <path id="Path_295" data-name="Path 295" d="M436.762,2498.343a5.73,5.73,0,1,0,5.73,5.73A5.729,5.729,0,0,0,436.762,2498.343Zm44.379,106.006a5.73,5.73,0,1,0,5.73,5.731A5.73,5.73,0,0,0,481.141,2604.349Zm-44.379,0a5.73,5.73,0,1,0,5.73,5.731A5.73,5.73,0,0,0,436.762,2604.349Zm22.2-106.006a5.73,5.73,0,1,0,5.7,5.73A5.71,5.71,0,0,0,458.966,2498.343Zm0,106.006a5.731,5.731,0,1,0,5.7,5.731A5.71,5.71,0,0,0,458.966,2604.349Zm-66.584,0a5.73,5.73,0,1,0,5.73,5.731A5.729,5.729,0,0,0,392.382,2604.349Zm0-106.006a5.73,5.73,0,1,0,5.73,5.73A5.728,5.728,0,0,0,392.382,2498.343Zm22.2,106.006a5.731,5.731,0,1,0,5.7,5.731A5.736,5.736,0,0,0,414.586,2604.349Zm0-106.006a5.73,5.73,0,1,0,5.7,5.73A5.735,5.735,0,0,0,414.586,2498.343ZM592.1,2509.8a5.73,5.73,0,1,0-5.758-5.73A5.746,5.746,0,0,0,592.1,2509.8Zm-110.963-11.46a5.73,5.73,0,1,0,5.73,5.73A5.729,5.729,0,0,0,481.141,2498.343ZM569.9,2604.349a5.73,5.73,0,1,0,5.73,5.731A5.73,5.73,0,0,0,569.9,2604.349Zm-22.2-106.006a5.73,5.73,0,1,0,5.759,5.73A5.729,5.729,0,0,0,547.7,2498.343ZM592.1,2604.349a5.73,5.73,0,1,0,5.73,5.731A5.735,5.735,0,0,0,592.1,2604.349Zm-22.2-106.006a5.73,5.73,0,1,0,5.73,5.73A5.729,5.729,0,0,0,569.9,2498.343Zm-22.2,106.006a5.731,5.731,0,1,0,5.759,5.731A5.73,5.73,0,0,0,547.7,2604.349Zm-44.379,0a5.731,5.731,0,1,0,5.758,5.731A5.705,5.705,0,0,0,503.317,2604.349Zm0-106.006a5.73,5.73,0,1,0,5.758,5.73A5.7,5.7,0,0,0,503.317,2498.343Zm22.2,106.006a5.73,5.73,0,1,0,5.73,5.731A5.71,5.71,0,0,0,525.521,2604.349Zm0-106.006a5.73,5.73,0,1,0,5.73,5.73A5.71,5.71,0,0,0,525.521,2498.343Z" fill="#c1a7e2"/>
  </g>
</svg>
