<svg xmlns="http://www.w3.org/2000/svg" width="289.852" height="99.77" viewBox="0 0 289.852 99.77">
  <title>Mossley people and the World Wars</title>
  <g id="Group_55" data-name="Group 55" transform="translate(-1263.148 -2507.191)">
    <path id="Path_290" data-name="Path 290" d="M1405.553,2567.153h4.457v-6.735h6.04v-4.027h-6.04v-6.7h-4.457v6.7h-6.075v4.027h6.075Zm-142.405-59.962v99.77H1553v-99.77Zm285.58,95.5H1267.42v-91.227h281.308Z" fill="#c1a7e2"/>
    <path id="Path_291" data-name="Path 291" d="M1315.686,2579.886h-6.237v-6.462h-4.261v16.338h4.261v-6.584h6.237v6.584h4.26v-16.338h-4.26Zm14.782-39.163a11.059,11.059,0,0,0,0-9.036,6.748,6.748,0,0,0-2.76-2.9,9.623,9.623,0,0,0-8.555,0,6.739,6.739,0,0,0-2.774,2.9,11.058,11.058,0,0,0,0,9.036,6.715,6.715,0,0,0,2.774,2.9,9.632,9.632,0,0,0,8.555,0A6.724,6.724,0,0,0,1330.468,2540.723Zm-4.321-.729a3.132,3.132,0,0,1-2.711,1.288,3.165,3.165,0,0,1-2.723-1.288,8.085,8.085,0,0,1,0-7.575,3.16,3.16,0,0,1,2.723-1.287,3.127,3.127,0,0,1,2.711,1.287,8.185,8.185,0,0,1,0,7.575Zm22.239-.4a4.082,4.082,0,0,0-1.449-3.343,10.857,10.857,0,0,0-4.839-1.8,9.611,9.611,0,0,1-2.489-.707,1.135,1.135,0,0,1-.729-1,1.363,1.363,0,0,1,.692-1.191,3.675,3.675,0,0,1,1.982-.444,5.575,5.575,0,0,1,2.635.581,5.262,5.262,0,0,1,1.919,1.82l2.4-2.771a8.7,8.7,0,0,0-3.056-2.256,10.257,10.257,0,0,0-3.973-.692,9.6,9.6,0,0,0-3.776.681,5.417,5.417,0,0,0-2.426,1.894,4.755,4.755,0,0,0-.829,2.748,4.043,4.043,0,0,0,.755,2.526,5.1,5.1,0,0,0,2.127,1.572,18.437,18.437,0,0,0,3.48,1,10.351,10.351,0,0,1,2.438.68c.487.239.732.55.732.929a1.209,1.209,0,0,1-.681,1.1,4.285,4.285,0,0,1-2.045.384,7.047,7.047,0,0,1-2.919-.547,5.491,5.491,0,0,1-2.178-1.879l-2.179,2.97a7.788,7.788,0,0,0,2.993,2.091,12.489,12.489,0,0,0,4.508.68,10,10,0,0,0,3.552-.592,5.507,5.507,0,0,0,2.463-1.735A4.234,4.234,0,0,0,1348.386,2539.6Zm-19.54,43.532h6.735v-3.1h-6.735v-3.318h8.469v-3.292h-12.727v16.338h13.049v-3.292h-8.791Zm133.94-39.51a9.631,9.631,0,0,0,8.555,0,6.723,6.723,0,0,0,2.76-2.9,11.058,11.058,0,0,0,0-9.036,6.747,6.747,0,0,0-2.76-2.9,9.623,9.623,0,0,0-8.555,0,6.721,6.721,0,0,0-2.771,2.9,11.059,11.059,0,0,0,0,9.036A6.7,6.7,0,0,0,1462.786,2543.62Zm1.561-11.2a3.158,3.158,0,0,1,2.722-1.287,3.123,3.123,0,0,1,2.711,1.287,8.186,8.186,0,0,1,0,7.575,3.128,3.128,0,0,1-2.711,1.288,3.163,3.163,0,0,1-2.722-1.288,8.1,8.1,0,0,1,0-7.575Zm-66.684,8.663h-8.791v-3.34h6.735v-3.1h-6.735v-3.318h8.47v-3.292h-12.728v16.338h13.049Zm85.449-2.375h3.243a7.066,7.066,0,0,0,4.679-1.376,4.774,4.774,0,0,0,1.635-3.873,5.006,5.006,0,0,0-1.635-4.024,7,7,0,0,0-4.679-1.4h-7.5v16.338h4.258Zm0-7.453h2.577a3.215,3.215,0,0,1,2.042.533,1.969,1.969,0,0,1,.655,1.62,2.008,2.008,0,0,1-.655,1.649,3.236,3.236,0,0,1-2.042.53h-2.577Zm-101.684,9.828h-8.2v-13.046h-4.257v16.338h12.454Zm-73.43-9.233-.123,5.024v7.5h3.762v-16.338h-5.818l-2.549,8.344-.943,3.441h-.048l-.917-3.466-2.574-8.319h-6.066v16.338h3.79v-7.5l-.125-5.024h.048l4.036,12.525h3.443l4.035-12.525Zm52.238,9.074a4.258,4.258,0,0,1-2.041.384,7.066,7.066,0,0,1-2.922-.547,5.5,5.5,0,0,1-2.179-1.879l-2.179,2.97a7.8,7.8,0,0,0,3,2.091,12.489,12.489,0,0,0,4.506.68,10,10,0,0,0,3.554-.592,5.506,5.506,0,0,0,2.463-1.735,4.246,4.246,0,0,0,.892-2.7,4.083,4.083,0,0,0-1.45-3.343,10.852,10.852,0,0,0-4.838-1.8,9.61,9.61,0,0,1-2.49-.707,1.137,1.137,0,0,1-.729-1,1.363,1.363,0,0,1,.692-1.191,3.675,3.675,0,0,1,1.98-.444,5.587,5.587,0,0,1,2.637.581,5.254,5.254,0,0,1,1.919,1.82l2.4-2.771a8.693,8.693,0,0,0-3.056-2.256,10.257,10.257,0,0,0-3.975-.692,9.585,9.585,0,0,0-3.774.681,5.417,5.417,0,0,0-2.426,1.894,4.733,4.733,0,0,0-.829,2.748,4.05,4.05,0,0,0,.755,2.526,5.081,5.081,0,0,0,2.127,1.572,18.437,18.437,0,0,0,3.48,1,10.347,10.347,0,0,1,2.438.68c.487.239.729.55.729.929A1.2,1.2,0,0,1,1360.236,2540.923Zm-73.263,35.793h5.348v13.046h4.258v-13.046h5.323v-3.292h-14.929Zm195.724-3.292-5.744,16.338h4.283l1.139-3.688h5.645l1.113,3.688h4.383l-5.718-16.338Zm.57,9.754,1.239-3.936.666-2.551h.051l.718,2.577,1.187,3.91Zm25.188-42.1h-8.2v-13.046H1496v16.338h12.454Zm-39.171,45.314-3-12.972h-3.862l-2.945,13-2.7-13H1452.2l4.7,16.338h4.775l1.909-7.92.717-3.987h.049l.743,3.987,1.931,7.92h4.631l4.727-16.338h-4.406Zm-104.837,0-3-12.972h-3.862l-2.944,13-2.7-13h-4.58l4.7,16.338h4.779l1.908-7.92.718-3.987h.048l.744,3.987,1.93,7.92h4.631l4.728-16.338h-4.406Zm157.078-6.559a9.552,9.552,0,0,1-2.486-.706,1.139,1.139,0,0,1-.732-1,1.36,1.36,0,0,1,.695-1.191,3.673,3.673,0,0,1,1.979-.444,5.589,5.589,0,0,1,2.637.581,5.281,5.281,0,0,1,1.92,1.82l2.4-2.771a8.712,8.712,0,0,0-3.059-2.256,10.236,10.236,0,0,0-3.973-.692,9.6,9.6,0,0,0-3.776.681,5.411,5.411,0,0,0-2.426,1.894,4.756,4.756,0,0,0-.829,2.748,4.043,4.043,0,0,0,.755,2.526,5.091,5.091,0,0,0,2.13,1.572,18.426,18.426,0,0,0,3.477,1,10.38,10.38,0,0,1,2.438.681c.487.239.732.55.732.928a1.209,1.209,0,0,1-.681,1.1,4.279,4.279,0,0,1-2.042.384,7.073,7.073,0,0,1-2.922-.547,5.5,5.5,0,0,1-2.179-1.879l-2.178,2.97a7.766,7.766,0,0,0,3,2.09,12.454,12.454,0,0,0,4.505.681,10.007,10.007,0,0,0,3.552-.592,5.49,5.49,0,0,0,2.463-1.735,4.235,4.235,0,0,0,.891-2.7,4.079,4.079,0,0,0-1.446-3.343A10.875,10.875,0,0,0,1521.525,2579.837Zm3.166-38.755H1515.9v-3.34h6.732v-3.1H1515.9v-3.318h8.467v-3.292h-12.728v16.338h13.05Zm-68.264,0h-8.789v-3.34h6.735v-3.1h-6.735v-3.318h8.467v-3.292H1443.38v16.338h13.047Zm53.26,40.513a5.114,5.114,0,0,0,.817-2.971,4.752,4.752,0,0,0-1.6-3.864,6.918,6.918,0,0,0-4.565-1.336h-7.8v16.338h4.183V2583.8h2.552l3.489,5.966h4.7l-4.158-6.41A4.761,4.761,0,0,0,1509.687,2581.595Zm-4.084-1.313a3.178,3.178,0,0,1-1.982.5h-2.9v-4.135h2.9a3.172,3.172,0,0,1,1.982.5,1.878,1.878,0,0,1,.618,1.56A1.908,1.908,0,0,1,1505.6,2580.282Zm-71.4-6.858h-6.932v16.338h6.932a7.786,7.786,0,0,0,5.881-2.116,9.992,9.992,0,0,0,0-12.106A7.8,7.8,0,0,0,1434.2,2573.424Zm2.6,11.884a3.585,3.585,0,0,1-3.018,1.236h-2.253v-9.9h2.253a3.586,3.586,0,0,1,3.018,1.239,7.62,7.62,0,0,1,0,7.427Zm-51.005-11.129a9.623,9.623,0,0,0-8.555,0,6.714,6.714,0,0,0-2.771,2.9,11.048,11.048,0,0,0,0,9.036,6.682,6.682,0,0,0,2.771,2.9,9.623,9.623,0,0,0,8.555,0,6.708,6.708,0,0,0,2.759-2.9,11.049,11.049,0,0,0,0-9.036A6.74,6.74,0,0,0,1385.8,2574.179Zm-1.561,11.2a3.132,3.132,0,0,1-2.711,1.287,3.168,3.168,0,0,1-2.723-1.287,8.1,8.1,0,0,1,0-7.575,3.16,3.16,0,0,1,2.723-1.287,3.125,3.125,0,0,1,2.711,1.287,8.194,8.194,0,0,1,0,7.575Zm27.142-57.346-2.3,4.48-1.239,2.725-1.213-2.725-2.3-4.48h-4.409l5.77,10.372v5.966h4.258v-5.966l5.769-10.372Zm-4.8,53.559a5.129,5.129,0,0,0,.817-2.971,4.752,4.752,0,0,0-1.6-3.864,6.926,6.926,0,0,0-4.568-1.336h-7.8v16.338h4.183V2583.8h2.549l3.492,5.966h4.7l-4.16-6.41A4.77,4.77,0,0,0,1406.582,2581.595Zm-4.087-1.313a3.168,3.168,0,0,1-1.979.5h-2.9v-4.135h2.9a3.162,3.162,0,0,1,1.979.5,1.88,1.88,0,0,1,.621,1.56A1.909,1.909,0,0,1,1402.495,2580.282Zm13.271-6.858h-4.258v16.338h12.451v-3.292h-8.193Zm14.725-34.717h3.244a7.067,7.067,0,0,0,4.679-1.376,4.774,4.774,0,0,0,1.635-3.873,5.006,5.006,0,0,0-1.635-4.024,7,7,0,0,0-4.679-1.4h-7.5v16.338h4.258Zm0-7.453h2.575a3.213,3.213,0,0,1,2.044.533,1.966,1.966,0,0,1,.655,1.62,2.005,2.005,0,0,1-.655,1.649,3.234,3.234,0,0,1-2.044.53h-2.575Z" fill="#222"/>
  </g>
</svg>
